<svg width="257" height="274" viewBox="0 0 257 274" fill="none" xmlns="http://www.w3.org/2000/svg">
<path d="M209.147 199.418C210.112 201.191 211.272 202.852 212.605 204.369C215.516 207.479 218.792 210.226 222.364 212.548C224.965 214.359 227.851 215.722 230.902 216.581C231.083 216.594 231.26 216.648 231.418 216.737C231.577 216.826 231.714 216.949 231.82 217.097C232.093 217.556 232.294 217.485 232.638 217.097C232.983 216.71 233.514 216.925 233.801 217.427C234.647 219.006 234.518 220.297 234.461 223.397C234.461 223.985 234.576 224.688 233.743 224.832C232.911 224.975 232.911 224.243 232.624 223.741C231.763 224.487 230.945 224.287 229.912 223.985C227.631 223.427 225.406 222.659 223.268 221.689C215.461 217.628 209.936 211.228 205.717 207.196C204.338 205.842 203.044 204.404 201.843 202.89C200.824 201.613 201.211 200.508 202.833 200.178C204.053 199.934 204.268 199.561 202.517 199.59C197.897 199.59 193.333 199.733 188.655 199.475C189.347 200.859 190.241 202.131 191.31 203.249C202.991 215.963 211.113 227.874 226.152 233.098C227.769 233.742 229.422 234.293 231.103 234.748C232.279 235.02 233.298 234.676 233.456 233.456C233.528 232.882 233.801 232.509 234.375 232.552C234.949 232.595 234.977 233.112 234.977 233.571C234.843 236.234 234.565 238.888 234.145 241.521C234.073 242.167 233.686 243.042 232.71 242.483C232.423 242.325 232.38 242.483 232.236 242.64C231.175 243.415 230.801 243.286 230.629 241.937C230.557 241.507 230.457 241.277 229.983 241.263C227.592 241.077 225.251 240.475 223.067 239.483C215.95 236.939 209.27 233.308 203.264 228.721C197.239 224.14 191.799 218.838 187.062 212.936C186.373 212.06 176.501 199.576 176.156 198.585C175.97 198.011 176.529 197.667 176.773 197.94C177.749 199.03 179.084 198.614 180.217 198.93C182.198 199.489 184.235 199.848 186.259 200.236C186.589 200.307 187.177 200.594 187.277 200.063C187.55 198.729 185.842 200.063 179.012 197.624C178.148 197.28 177.247 197.035 176.328 196.892C175.568 196.792 175.51 196.519 175.769 195.744C177.204 191.439 178.911 187.349 178.739 182.714C178.776 178.46 179.394 174.231 180.576 170.143C180.949 168.565 182.312 167.876 183.173 166.742C188.813 159.352 186.043 155.262 186.23 152.593C187.564 133.436 182.083 139.549 197.122 139.104C200.135 139.018 203.177 139.649 206.148 138.645C207.439 138.214 208.516 139.291 207.583 140.726C206.168 143.291 205.436 146.177 205.459 149.106C205.215 153.411 204.684 159.941 205.33 164.016C205.509 165.153 206.089 166.188 206.966 166.933C207.843 167.678 208.958 168.084 210.109 168.077C212.336 168.152 214.562 167.861 216.695 167.216C218.059 166.886 218.575 165.465 219.006 164.246C220.271 160.741 221.807 157.339 223.598 154.071C223.728 153.913 223.904 153.799 224.102 153.745C224.3 153.691 224.51 153.7 224.703 153.77C226.539 154.272 222.895 159.309 222.206 166.226C221.517 173.143 220.67 180.346 223.081 187.292C223.515 188.769 223.728 190.302 223.712 191.841C223.827 195.916 218.044 198.184 213.954 198.6C212.376 198.772 210.84 199.131 209.147 199.418Z" fill="#D5DBF2"/>
<path d="M232.236 250.647C232.437 250.117 232.638 249.758 233.241 249.844C233.843 249.93 233.93 250.375 233.958 250.82C233.961 253.139 233.472 255.433 232.523 257.55C232.523 257.693 230.184 259.803 228.218 259.315C219.273 257.278 210.673 253.947 202.689 249.428C199.444 247.663 196.423 245.514 193.692 243.028C191.267 240.66 178.122 236.9 168.766 220.527C167.962 219.092 169.268 218.259 172.037 208.731C172.037 208.63 172.195 208.559 172.339 208.415C173.702 210.51 175.065 212.548 176.371 214.614C183.977 226.554 198.499 240.086 214.758 246.185C219.135 247.821 229.452 250.877 229.797 250.963C231.404 251.351 232.05 251.121 232.236 250.647Z" fill="#D5DBF2"/>
<path d="M195.242 260.449C195.209 258.477 195.07 256.508 194.826 254.551C194.826 253.977 194.481 253.273 195.127 252.886C195.773 252.499 196.232 252.886 196.82 253.144C203.421 256.674 209.893 260.52 217.083 262.859C220.656 264.022 224.817 264.294 228.419 265.485C229.065 265.701 229.567 266.318 230.285 265.328C230.658 264.825 231.562 265.112 231.906 265.945C232.042 266.252 232.112 266.584 232.112 266.92C232.112 267.256 232.043 267.588 231.908 267.896C231.773 268.203 231.576 268.48 231.328 268.707C231.081 268.934 230.789 269.108 230.471 269.216C229.984 269.389 229.639 269.489 229.582 270.135C229.56 270.298 229.504 270.456 229.419 270.597C229.333 270.738 229.22 270.86 229.085 270.955C228.951 271.051 228.798 271.118 228.636 271.152C228.475 271.186 228.308 271.187 228.147 271.154C225.604 271.101 223.06 271.192 220.527 271.426C215.654 271.578 210.81 270.636 206.349 268.671C202.825 267.164 199.523 265.185 196.533 262.788C196.132 263.118 196.275 263.462 196.261 263.763C196.261 265.772 195.17 266.433 193.305 265.658C190.264 264.399 187.376 262.8 184.694 260.893C176.716 255.153 173.415 252.829 166.255 241.377C165.454 239.77 165.285 237.922 165.781 236.197C167.101 226.754 167.058 227.816 167.388 227.013C168.694 237.933 175.74 245.998 184.293 252.843C187.636 255.641 191.626 257.478 195.242 260.449Z" fill="#D5DBF2"/>
<path d="M94.5471 179.327C94.7071 181.897 94.5383 184.477 94.0448 187.005C93.3704 189.459 92.3946 190.305 89.8259 190.305C86.755 190.305 85.1047 191.511 84.9899 189.516C84.9899 188.842 84.4589 188.497 83.9136 188.167C82.0345 187.193 79.971 186.625 77.8579 186.503C75.778 186.207 73.7343 185.697 71.7591 184.981C68.9751 184.293 68.5446 183.776 68.4298 180.892C68.3728 180.366 68.4622 179.834 68.6881 179.356C71.5582 174.276 68.846 162.323 79.3216 161.548C82.0164 161.256 84.7381 161.323 87.4151 161.749C88.2912 161.904 89.1217 162.253 89.8464 162.769C90.5712 163.285 91.172 163.956 91.6053 164.733C94.9345 170.186 94.6332 174.721 94.5471 179.327ZM74.9448 181.107C74.1412 181.652 73.9833 183.001 74.6865 183.317C75.978 183.919 77.1547 185.024 78.7906 184.752C80.3856 184.465 81.9318 183.953 83.3827 183.231C85.5926 182.083 84.8177 179.543 83.1961 179.5C80.8427 179.342 79.3503 178.136 74.9448 181.107Z" fill="#D5DBF2"/>
<path d="M3.59492 207.568C3.50882 206.607 4.22633 204.957 5.02994 205.703C6.46495 207.052 8.20132 206.176 10.526 206.176L112.728 206.937C128.513 207.066 144.169 208.917 146.207 207.884C146.38 207.804 146.57 207.765 146.761 207.771C146.952 207.777 147.139 207.827 147.307 207.918C147.476 208.008 147.621 208.136 147.731 208.292C147.841 208.448 147.914 208.628 147.943 208.817C148.632 212.046 147.943 212.333 146.235 212.304C139.189 212.175 143.222 212.706 136.405 212.218C122.773 211.242 131.397 211.5 107.777 210.783C107.519 210.783 60.4215 209.879 59.9623 209.85C40.3456 209.061 38.0209 208.501 29.0951 208.989C13.9701 209.821 11.875 210.84 6.60845 209.448C6.20665 209.333 5.934 209.276 5.58959 209.692C4.39853 210.955 3.59492 209.161 3.59492 207.568Z" fill="#D5DBF2"/>
<path d="M31.9231 203.723C26.9723 203.723 22.0359 203.464 17.0994 203.22C15.431 203.175 13.7937 202.758 12.3065 202.001C12.0029 201.848 11.7404 201.625 11.5409 201.35C11.3415 201.074 11.211 200.755 11.1604 200.419C11.1098 200.083 11.1405 199.74 11.2501 199.419C11.3596 199.097 11.5447 198.806 11.7899 198.571C14.172 196.217 16.0949 196.878 14.8464 195.041C14.0302 193.777 13.4199 192.392 13.0383 190.937C12.493 189.114 12.9092 188.067 14.6886 187.521C25.7382 184.336 28.4073 193.505 36.5726 198.097C37.5263 198.549 38.399 199.155 39.1556 199.891C39.4452 200.105 39.6694 200.396 39.8029 200.731C39.9365 201.065 39.974 201.431 39.9114 201.785C39.8488 202.14 39.6885 202.47 39.4485 202.739C39.2085 203.008 38.8984 203.204 38.5529 203.306C37.4479 203.837 37.1466 203.708 31.9231 203.723Z" fill="#D5DBF2"/>
<path d="M182.972 16.0657C183.144 15.5061 182.857 15.1617 182.355 14.9034C181.207 14.315 180.073 13.6693 178.925 13.0809C177.777 12.4925 176.572 11.5598 177.017 10.3687C177.146 10.0942 177.348 9.8606 177.601 9.69351C177.854 9.52643 178.148 9.43235 178.452 9.42161C179.528 9.22071 180.575 8.93371 181.652 8.79021C182.129 8.77835 182.585 8.59222 182.934 8.26701C183.283 7.9418 183.5 7.50001 183.546 7.02514C184.011 5.13711 184.665 3.30063 185.497 1.54338C185.586 1.24941 185.758 0.987348 185.992 0.788763C186.226 0.590178 186.513 0.463532 186.818 0.424072C187.535 0.424072 187.851 0.940677 188.167 1.47163C188.769 2.43309 189.415 3.36585 189.96 4.34166C190.214 4.89205 190.635 5.34812 191.163 5.64456C191.692 5.941 192.3 6.0626 192.902 5.99193C194.118 5.94393 195.335 6.02571 196.533 6.23588C196.837 6.24335 197.132 6.33612 197.386 6.50358C197.64 6.67105 197.841 6.90647 197.968 7.18299C198.085 7.46973 198.107 7.78685 198.029 8.08691C197.952 8.38697 197.779 8.65384 197.537 8.84761C196.722 9.80216 195.808 10.668 194.811 11.4306C193.734 12.1768 194.538 12.4351 196.533 17.0415C197.164 18.4766 196.705 19.1797 195.098 19.1654C193.277 19.0683 191.49 18.6302 189.831 17.8738C188.396 17.3142 188.597 18.2613 185.053 21.5618C184.091 22.4515 182.972 21.9923 182.8 20.6578C182.706 19.1252 182.763 17.587 182.972 16.0657Z" fill="#D5DBF2"/>
<path d="M164.073 255.412C173.53 261.697 173.042 262.214 182.384 266.16C183.058 266.447 183.618 266.849 183.489 267.681C183.36 268.513 182.614 268.556 181.896 268.614C172.195 269.245 174.348 269.575 171.507 268.456C169.324 267.586 167.192 266.594 165.121 265.485C164.661 265.321 164.269 265.007 164.009 264.593C163.748 264.179 163.635 263.69 163.686 263.204C163.658 260.601 163.787 257.999 164.073 255.412Z" fill="#D5DBF2"/>
<path d="M161.806 67.1521C161.709 64.4662 162.198 61.7914 163.239 59.3134C164.28 56.8354 165.847 54.6136 167.833 52.802C171.834 49.0459 176.624 46.2316 181.853 44.565C190.922 41.8672 199.633 37.9783 213.94 40.0878C216.812 40.466 219.535 41.5945 221.832 43.3596C225.334 46.1148 230.084 47.9229 233.069 52.5006C238.923 61.4838 238.177 58.1259 239.598 78.3309C239.73 81.0068 239.552 83.689 239.067 86.3239C238.392 90.4711 235.049 92.9537 230.715 99.0094C227.845 102.984 220.67 107.777 211.472 109.141C209.879 109.385 208.702 108.394 207.382 107.892C206.722 107.648 206.837 106.73 207.382 106.228C208.406 105.138 209.558 104.174 210.811 103.358C213.064 102.138 215.289 100.861 217.585 99.77C220.928 98.1915 222.593 93.4703 223.038 89.7249C223.339 87.1562 220.168 86.4387 217.972 86.941C216.695 87.228 216.15 86.941 216.265 85.7069C216.25 83.6425 215.759 81.6095 214.83 79.7659C212.552 73.7828 208.162 68.8413 202.488 65.875C191.539 59.5609 184.823 60.9385 178.997 60.9242C175.669 61.0156 172.398 61.8077 169.397 63.2489C168.048 63.2489 167.876 63.8086 168.493 64.8705C168.708 65.2436 168.321 65.4445 168.134 65.6884C166.341 67.9738 165.334 70.7774 165.264 73.6814C165.264 75.1165 164.69 76.4797 165.264 77.886C165.295 77.9412 165.312 78.0032 165.314 78.0665C165.315 78.1298 165.301 78.1926 165.273 78.2492C165.245 78.3058 165.203 78.3547 165.151 78.3914C165.1 78.4282 165.04 78.4518 164.977 78.4601C164.633 78.4601 164.504 78.2448 164.331 78.0008C163.357 76.4092 162.713 74.6376 162.437 72.7917C161.909 70.9613 161.695 69.0542 161.806 67.1521ZM221.603 70.1083C222.249 71.3424 222.622 72.4186 223.999 72.146C225.09 71.9307 225.162 71.0841 225.176 70.18C225.133 68.5255 224.975 66.8761 224.702 65.2436C224.602 64.3395 224.702 63.3637 223.554 63.091C222.406 62.8184 221.919 63.7081 221.459 64.5261C221.459 64.5261 221.33 64.5261 221.273 64.6409C220.01 63.335 218.776 63.335 218.403 64.7126C217.943 66.5644 217.943 68.5004 218.403 70.3522C218.45 70.6276 218.576 70.8834 218.766 71.0881C218.956 71.2928 219.202 71.4376 219.473 71.5046C219.744 71.5717 220.029 71.5581 220.293 71.4656C220.556 71.373 220.787 71.2055 220.957 70.9836C221.198 70.7119 221.414 70.419 221.603 70.1083ZM228.548 67.2382C228.548 65.9754 228.663 64.0812 227.329 64.0956C227.081 64.0944 226.839 64.1734 226.64 64.3209C226.441 64.4683 226.295 64.6762 226.224 64.9135C225.809 66.2834 225.834 67.7489 226.295 69.1038C226.372 69.3588 226.541 69.5763 226.769 69.7141C226.997 69.852 227.268 69.9004 227.529 69.85C228.85 69.7782 228.62 68.5872 228.606 67.2813L228.548 67.2382ZM231.002 66.5351C230.873 66.0185 231.002 65.1001 230.256 65.1001C229.51 65.1001 229.868 65.918 229.825 66.4059V66.8938C229.825 67.3243 229.725 67.927 230.313 67.9844C230.902 68.0418 230.787 67.353 230.959 66.9943C231.009 66.86 231.043 66.7203 231.06 66.5781L231.002 66.5351Z" fill="#8495C0"/>
<path d="M99.7987 243.415C88.6056 242.711 55.3132 243.113 45.4116 242.711C41.451 242.539 37.476 242.109 33.5154 242.31C27.7753 242.597 22.1357 242.31 16.4674 242.582C14.1194 242.463 11.7658 242.647 9.46451 243.128C6.72363 243.989 8.2591 235.665 7.51289 232.795C7.34069 232.164 7.35504 231.662 8.44565 231.662C11.4879 231.662 30.8175 230.959 33.0992 230.901C35.1513 230.901 56.2173 232.078 82.7364 230.729C99.2551 230.047 115.802 230.569 132.244 232.293C138.587 232.896 139.922 231.777 139.749 233.829C139.577 235.881 139.749 238.292 139.606 240.516C139.477 243.314 138.745 243.386 136.736 243.501C128.743 243.917 104.104 243.687 99.7987 243.415Z" fill="#8495C0"/>
<path d="M28.6356 245.266C29.1378 245.266 71.0689 245.625 71.2411 245.61C77.6844 245.007 104.333 246.873 111.321 246.242C113.832 246.012 130.278 246.844 139.16 246.916C140.71 246.916 140.882 247.275 140.28 248.609C140.05 249.431 139.991 250.29 140.107 251.135C140.107 253.302 139.72 253.747 137.582 253.704C23.9287 252.025 23.57 253.244 10.253 253.23C7.82787 253.23 8.99023 253.488 7.84222 247.16C7.69872 246.342 8.08617 245.983 8.76063 245.926C15.3538 245.129 22.004 244.908 28.6356 245.266Z" fill="#8495C0"/>
<path d="M129.431 204.928C124.652 204.842 117.592 206.004 110.331 204.095C110.043 203.961 109.73 203.891 109.413 203.891C109.095 203.891 108.782 203.961 108.494 204.095C106.356 205.329 104.907 196.619 106.93 190.592C109.685 182.312 112.799 179.887 120.52 178.021C129.976 175.739 137.912 178.265 143.021 187.191C144.118 188.9 144.835 190.825 145.122 192.836C145.409 194.846 145.26 196.895 144.685 198.843C144.219 200.632 143.155 202.208 141.669 203.31C140.184 204.411 138.367 204.972 136.52 204.899C134.482 204.971 132.459 204.985 129.431 204.928Z" fill="#8495C0"/>
<path d="M81.76 200.795C74.9293 207.095 63.1766 203.665 63.564 197.437C63.6231 193.628 65.1679 189.992 67.8691 187.306C68.7082 186.495 69.7744 185.96 70.9257 185.77C73.4226 185.297 71.8584 187.507 74.2979 186.804C78.2155 185.684 81.6309 186.918 84.8453 189.071C85.3231 189.479 85.7142 189.979 85.9952 190.541C86.2762 191.103 86.4415 191.716 86.4812 192.343C86.6104 192.902 86.7252 193.017 87.2561 192.816C90.327 191.683 92.9962 193.017 95.5218 194.438C98.0474 195.858 98.3057 202.546 93.6706 204.024C90.727 205.004 87.5449 205.004 84.6013 204.024C83.8475 203.854 83.1667 203.451 82.6563 202.871C82.1459 202.291 81.8321 201.564 81.76 200.795Z" fill="#8495C0"/>
<path d="M149.322 109.384C149.652 109.461 150 109.419 150.302 109.264C150.604 109.109 150.842 108.851 150.972 108.538C151.359 107.705 152.263 107.72 152.866 108.437C154.086 109.872 153.44 111.422 152.866 112.742C152.436 113.89 151.173 113.776 150.197 113.603C146.753 113.015 122.214 112.298 107.548 113.933C106.48 113.963 105.41 113.915 104.348 113.79C103.459 113.79 103.932 112.872 103.99 112.57C104.592 109.442 104.592 109.456 107.835 109.399L120.119 109.141C120.621 109.141 121.124 109.14 121.109 108.437C121.109 108.093 121.353 107.964 121.683 107.935C121.995 107.852 122.311 107.79 122.63 107.749C132.374 107.906 134.197 105.897 134.484 107.648C134.602 108.012 134.746 108.366 134.914 108.71C137.755 108.452 142.548 108.968 149.322 109.384Z" fill="#8495C0"/>
<path d="M145.389 36.1702C145.376 36.5036 145.232 36.8183 144.987 37.0455C144.212 37.9926 143.452 38.9397 142.634 39.8294C142.203 40.303 141.471 40.7048 141.041 40.0877C140.137 38.7819 137.109 37.6339 132.56 33.0705C130.149 30.6597 127.408 28.6363 124.94 26.2829C123.103 24.5178 123.692 25.2066 129.245 18.5769C130.336 17.271 131.168 17.1419 132.216 18.4477C136.119 23.2311 140.003 28.0145 143.868 32.7979C144.676 33.7606 145.202 34.9275 145.389 36.1702Z" fill="#8495C0"/>
<path d="M199.445 96.4549C198.867 96.4762 198.29 96.3805 197.749 96.1737C197.209 95.9668 196.715 95.6531 196.299 95.2512C195.882 94.8493 195.551 94.3675 195.325 93.8347C195.098 93.3018 194.982 92.7288 194.982 92.1499C194.982 89.2799 197.551 86.1946 200.005 86.1946C201.407 86.333 202.701 87.0072 203.618 88.0765C204.535 89.1459 205.004 90.528 204.927 91.9346C204.769 95.1347 202.947 96.4119 199.445 96.4549Z" fill="#8495C0"/>
<path d="M169.726 83.999C177.389 83.999 175.222 94.1589 168.822 94.0441C167.387 94.0441 167.028 93.5993 166.828 92.1642C166.727 91.4611 164.847 90.1409 167 85.5919C167.206 85.0561 167.588 84.6063 168.083 84.3168C168.579 84.0273 169.158 83.9152 169.726 83.999Z" fill="#8495C0"/>
<path d="M145.762 169.483C145.746 169.102 145.809 168.721 145.948 168.366C146.086 168.01 146.297 167.687 146.567 167.418C146.837 167.148 147.159 166.937 147.515 166.798C147.871 166.66 148.251 166.597 148.632 166.613C149.464 166.633 150.263 166.944 150.89 167.492C151.517 168.04 151.931 168.79 152.062 169.612C152.006 170.427 151.669 171.196 151.109 171.79C150.549 172.384 149.801 172.766 148.991 172.87C148.157 172.734 147.391 172.33 146.808 171.719C146.225 171.108 145.858 170.322 145.762 169.483Z" fill="#8495C0"/>
<path d="M255.943 164.102C256.03 164.831 255.857 165.568 255.455 166.183C254.967 166.958 254.623 167.933 253.418 167.718C251.007 167.302 250.548 165.523 251.179 163.14C251.302 162.473 251.682 161.88 252.238 161.491C252.794 161.102 253.48 160.947 254.15 161.06C255.283 161.232 255.943 162.308 255.943 164.102Z" fill="#8495C0"/>
<path d="M62.5459 173.114C61.8009 174.633 61.1351 176.19 60.5513 177.778C60.0347 177.003 60.2499 175.123 59.2454 175.252C58.7862 175.252 58.6427 175.654 58.6858 176.056C58.8006 177.017 58.5997 178.165 59.7764 178.653C60.2356 178.839 60.0347 179.055 59.9486 179.313C59.0856 181.792 58.0647 184.212 56.892 186.56C56.648 185.928 56.4471 185.426 56.2319 184.924C56.1824 184.776 56.076 184.653 55.936 184.583C55.7961 184.513 55.6341 184.501 55.4857 184.551C55.3372 184.6 55.2145 184.707 55.1446 184.847C55.0746 184.987 55.0631 185.149 55.1126 185.297C55.1913 185.862 55.4081 186.4 55.744 186.861C55.9786 187.071 56.1264 187.361 56.1582 187.675C56.1901 187.988 56.1038 188.302 55.9162 188.555C55.0346 190.278 54.0174 191.929 52.8739 193.491C52.8739 192.472 52.673 190.75 51.7116 191.08C51.2954 191.224 51.3672 191.568 51.4389 191.898C51.4924 192.299 51.6036 192.691 51.769 193.061C52.6013 194.28 51.9412 195.156 51.1519 195.931C49.9671 197.426 48.6032 198.771 47.0908 199.934C46.8442 200.074 46.6444 200.284 46.5168 200.537C45.8711 201.972 45.4836 202.202 43.9338 201.785C41.0471 200.808 38.3592 199.321 35.9982 197.394C33.3104 195.268 31.0426 192.66 29.311 189.703C28.6488 188.624 28.2505 187.405 28.1487 186.144C26.9863 175.883 28.6653 173.229 32.1093 169.34C35.3792 165.519 39.6933 162.736 44.5222 161.332C48.3437 160.066 52.4113 159.727 56.3897 160.342C58.7415 161.004 60.8788 162.271 62.589 164.016C62.7755 164.159 63.0195 164.36 63.0482 164.561C63.2921 166.226 64.8707 166.857 65.746 168.019C66.5829 168.956 67.1224 170.119 67.2958 171.363C68.0277 178.897 65.8608 176.285 66.8653 182.427C66.9441 182.742 66.9474 183.071 66.8751 183.388C66.8028 183.705 66.6569 184 66.4492 184.25C63.9263 187.052 62.18 190.465 61.3836 194.151C61.2507 194.81 60.9766 195.432 60.5802 195.974C60.1839 196.517 59.6746 196.967 59.0876 197.294C56.3199 199.071 53.2808 200.384 50.09 201.183L49.8604 201.254C49.186 201.254 48.2532 201.613 47.9231 201.082C47.5931 200.551 48.7985 200.221 49.2147 199.805C50.2867 198.713 51.2703 197.537 52.1564 196.289C53.0461 195.113 52.7161 196.131 53.5914 196.375C53.9789 196.49 54.4238 196.576 54.6964 196.16C55.4857 194.94 52.5869 195.242 54.4381 193.061C55.6039 191.776 56.5713 190.325 57.3081 188.755C57.8973 188.739 58.4814 188.642 59.0445 188.468C59.4894 188.325 59.0445 187.894 58.9154 187.837C58.4992 187.722 57.2938 188.296 58.0256 186.746C60.4078 181.609 60.1495 181.222 60.7378 181.293C61.3262 181.365 62.5172 180.562 62.2876 180.002C62.058 179.442 61.8428 180.002 61.5414 180.074C60.9961 180.145 60.867 180.074 61.0822 179.342C61.686 177.382 62.4194 175.464 63.2778 173.602C63.5648 172.841 63.0195 172.181 62.5459 173.114ZM33.0851 183.503C32.3532 183.503 32.138 182.7 31.6501 182.413C31.1622 182.126 30.9182 182.111 30.6312 182.413C30.3442 182.714 30.6312 183.058 30.8752 183.317C32.2097 184.752 32.1236 184.092 33.8744 185.297L35.826 189.487C34.9076 189.229 33.7022 188.727 33.4439 189.487C33.286 189.975 33.7022 190.205 34.0753 190.377C35.8834 191.224 36.4574 190.377 36.8735 191.195C37.2897 192.013 37.7919 192.888 38.3086 193.721C37.0601 193.721 36.7444 193.606 36.6439 194.079C36.5435 194.553 37.1749 194.682 37.548 194.869C37.7329 194.949 37.9374 194.974 38.1364 194.94C39.6431 194.567 40.1167 196.103 41.2216 197.566C41.9535 198.557 43.6755 201.355 44.5078 200.436C44.8666 200.035 44.3787 199.719 44.1204 199.432C43.0154 198.241 42.1257 196.418 40.9633 195.299C39.3705 193.749 41.6952 192.644 40.6046 192.429C40.1884 192.314 39.801 193.046 39.7292 193.505C39.7292 193.62 39.7292 193.749 39.3848 193.62C38.8682 192.745 38.4951 192.013 37.9498 191.037C37.8493 190.865 37.4906 190.707 37.9498 190.391C38.225 190.233 38.4485 189.998 38.5936 189.716C38.7387 189.433 38.7992 189.115 38.7678 188.799C38.5956 187.263 38.122 188.282 38.0646 188.54C37.9588 189.064 37.6621 189.529 37.2323 189.846C36.7587 188.913 36.2565 187.78 35.7973 186.976C34.2044 184.379 35.252 183.776 35.2233 182.298C35.2233 181.652 34.8932 180.648 34.4914 181.896C34.3931 182.432 34.254 182.96 34.0753 183.475C33.4515 181.39 33.0947 179.235 33.0134 177.06C33.0134 176.673 33.0134 176.127 32.5254 176.142C32.0375 176.156 32.0519 176.96 32.1523 178.423C32.3727 180.132 32.6841 181.828 33.0851 183.503ZM45.0388 175.611C44.2639 173.946 43.6038 172.353 44.8235 170.574C45.0962 170.186 45.5697 169.297 44.967 168.995C44.3643 168.694 44.2495 169.698 43.8477 170.029C43.7462 170.073 43.6404 170.106 43.532 170.129C43.532 167.905 43.7042 166.771 43.001 166.728C42.2979 166.685 42.427 167.245 42.384 167.603C42.3408 168.172 42.3408 168.743 42.384 169.311C42.384 170.89 41.4512 169.311 40.8772 170.072C40.6189 170.416 40.8772 170.689 41.0351 170.947C41.6234 171.937 42.7284 171.593 42.8001 172.382C42.9271 173.143 43.1191 173.892 43.3742 174.621C43.3742 174.807 43.6612 175.166 43.1876 175.065C42.714 174.965 42.3122 175.065 42.2548 175.553C42.1113 176.83 44.1921 175.912 44.8522 178.222C45.0646 178.874 45.3286 179.507 45.6415 180.117C45.7419 180.346 45.9285 180.562 46.2011 180.504C46.4738 180.447 46.5312 180.074 46.5025 179.801C46.3016 178.481 45.0675 177.06 46.1724 175.496C46.2792 175.348 46.3293 175.167 46.3135 174.985C46.2977 174.803 46.2171 174.633 46.0863 174.506C45.4549 174.649 45.5123 175.324 45.0962 175.611H45.0388Z" fill="#D5DBF2"/>
<path d="M175.754 197.911C176.238 198.016 176.686 198.244 177.056 198.574C177.426 198.903 177.704 199.322 177.863 199.791C181.551 207.282 187.335 213.108 193.089 218.948C196.419 222.566 200.134 225.809 204.167 228.62C211.141 233.126 217.986 237.891 226.195 240.101C234.805 242.425 234.216 241.536 234.26 243.774C234.303 245.643 234.217 247.513 234.001 249.371C233.858 250.547 232.681 250.806 231.906 251.466C231.488 251.71 231.018 251.853 230.535 251.883C230.051 251.913 229.567 251.829 229.122 251.638C223.514 250.41 218.091 248.451 212.993 245.812C208.515 243.473 203.694 241.736 199.46 238.924C180.805 226.597 176.357 214.873 173.286 210.64C172.942 210.191 172.731 209.654 172.675 209.092C172.619 208.529 172.721 207.962 172.97 207.454C175.768 200.006 176.443 199.59 175.754 197.911Z" fill="#D5DBF2"/>
<path d="M168.854 219.408C171.323 223.497 174.245 227.295 177.564 230.73C181.108 234.542 185.205 237.797 189.719 240.388C196.363 244.248 209.493 252.126 218.807 255.226C223.7 256.862 225.623 258.455 229.225 258.856C229.555 258.955 229.908 258.948 230.234 258.838C230.561 258.727 230.845 258.518 231.047 258.239C231.435 257.665 232.296 257.78 232.31 258.785C232.396 260.891 232.237 263 231.836 265.07C231.679 265.802 231.306 266.032 230.617 266.161C228.464 266.563 226.47 265.745 224.403 265.429C216.023 264.152 210.34 262.559 195.703 253.432C195.272 253.107 194.864 252.752 194.483 252.37C194.698 256.675 196.076 258.44 194.928 259.373C194.124 260.019 193.12 259.373 192.359 258.856C185.146 254.601 178.691 249.174 173.259 242.799C170.82 239.742 169.471 236.126 167.864 232.624C167.239 231.281 166.895 229.825 166.853 228.345C166.811 226.864 167.072 225.391 167.62 224.014C168.107 222.637 168.395 221.173 168.854 219.408Z" fill="#D5DBF2"/>
<path d="M224.746 138.989C224.325 143.665 223.514 148.297 222.32 152.837C220.727 159.237 218.561 160.113 218.647 161.447C218.819 163.901 217.212 165.15 215.332 166.039C214.238 166.575 213.043 166.872 211.826 166.912C210.609 166.951 209.398 166.732 208.272 166.269C207.643 166.026 207.098 165.605 206.706 165.057C206.313 164.508 206.089 163.857 206.062 163.184C205.926 161.786 205.926 160.377 206.062 158.979C206.363 156.454 205.201 154.373 206.722 150.886C207.095 150.025 206.894 149.078 207.21 148.174C208.516 144.328 210.209 140.582 210.08 136.363C210.1 135.187 210.369 134.028 210.869 132.962C211.5 131.527 210.869 124.984 210.984 124.123C211.254 122.91 211.092 121.641 210.525 120.535C209.836 119.186 210.065 115.082 208.487 112.126C208.185 111.581 207.841 110.921 208.343 110.289C208.846 109.658 209.491 109.801 210.223 109.844C213.247 110.196 216.204 110.979 219.005 112.169C220.23 112.6 221.29 113.403 222.036 114.465C222.782 115.528 223.178 116.797 223.167 118.096C223.497 124.151 224.602 130.164 224.459 136.263C224.473 137.124 224.803 138.042 224.746 138.989Z" fill="#D5DBF2"/>
<path d="M136.22 229.424C114.436 228.09 121.87 228.448 111.552 228.348C59.8913 227.846 80.125 227.688 40.4326 227.903C33.8745 227.903 27.3165 228.621 20.7442 228.678C9.06314 228.807 7.58508 230.113 7.29807 227.688C7.18319 226.965 7.18319 226.229 7.29807 225.507C7.78598 223.038 8.87659 224.66 13.7843 223.928C15.3629 223.698 31.0045 222.723 39.3132 223.081C47.1054 223.397 54.8831 222.708 62.6753 223.081C68.8889 223.311 75.1025 223.426 81.3305 223.268C102.009 222.737 106.128 223.641 121.123 223.799C125.959 223.799 130.738 224.689 135.574 224.559H139.348C141.429 224.559 140.467 226.066 140.654 227.731C140.869 229.725 139.922 229.41 136.234 229.41L136.22 229.424Z" fill="#D5DBF2"/>
<path d="M173.991 161.849C172.799 159.74 172.771 157.3 172.053 155.062C171.402 153.124 171.372 151.033 171.967 149.078C172.634 146.494 173.043 143.85 173.187 141.185C173.775 135.875 175.454 131.857 175.669 127.351C175.928 121.87 177.32 114.781 182.098 112.126C183.693 111.308 185.458 110.88 187.25 110.877C188.943 110.877 189.862 112.112 188.211 115.182C187.035 117.364 186.776 119.918 185.557 122.085C183.921 124.955 187.91 127.567 186.576 137.985C186.26 140.41 186.045 142.893 185.944 145.361C185.7 151.876 184.868 158.391 185.026 161.017C185.313 166.025 180.075 168.393 176.2 167.919C175.239 167.804 175.024 166.585 174.593 165.824C173.589 164.016 174.249 162.28 173.991 161.849Z" fill="#D5DBF2"/>
<path d="M126.562 141.314C130.304 141.455 133.937 142.616 137.067 144.672C140.324 146.696 141.07 147.844 140.31 151.546C139.047 157.645 136.88 163.414 132.331 167.92C130.308 169.914 128.026 171.88 124.926 171.493C121.525 171.091 118.411 170.058 116.316 166.929C114.48 164.102 113.199 160.951 112.542 157.645C112.097 155.464 111.279 153.34 110.949 151.173C110.819 150.665 110.826 150.132 110.97 149.627C111.113 149.123 111.389 148.666 111.767 148.303C115.412 144.5 121.31 141.228 126.562 141.314ZM124.869 152.995C126.892 152.995 124.869 153.182 129.533 152.35C134.642 151.46 136.306 147.887 133.321 146.064C131.213 144.806 128.712 144.377 126.304 144.859C124.008 145.246 121.152 148.446 123.965 149.394C125.35 149.731 126.799 149.701 128.17 149.307C128.272 149.297 128.367 149.253 128.442 149.183C128.517 149.113 128.568 149.021 128.586 148.92C128.586 148.647 128.356 148.576 128.184 148.533C127.493 148.299 126.774 148.159 126.046 148.116C125.716 148.116 125.17 148.317 125.099 147.858C125.027 147.399 125.558 147.241 125.931 147.098C127.588 146.503 129.407 146.539 131.04 147.198C131.685 147.428 132.575 147.7 132.647 148.332C132.719 148.963 131.815 149.465 131.212 149.767C128.518 151.219 125.427 151.757 122.401 151.302C120.78 151.149 119.224 150.586 117.881 149.666C117.02 148.963 116.905 148.002 117.708 147.413C121.224 144.83 123.592 143.51 131.771 144.73C132.274 144.73 132.862 145.031 133.135 144.342C133.407 143.653 132.862 143.438 132.503 143.151C131.326 142.439 129.976 142.062 128.6 142.061C126.421 141.755 124.2 141.987 122.131 142.737C120.062 143.488 118.209 144.734 116.733 146.366C116.383 146.662 116.109 147.038 115.935 147.462C115.76 147.885 115.69 148.345 115.729 148.801C115.768 149.258 115.916 149.699 116.161 150.086C116.405 150.474 116.739 150.797 117.134 151.029C119.445 152.536 122.157 152.795 124.869 152.995Z" fill="#D5DBF2"/>
<path d="M233.887 234.116C233.411 234.711 232.779 235.16 232.061 235.414C231.344 235.668 230.569 235.715 229.826 235.551C223.92 234.014 218.427 231.191 213.739 227.286C209.624 223.924 205.785 220.239 202.259 216.265C201.183 215.045 190.607 202.259 189.746 201.082C189.459 200.709 189.172 200.178 189.487 199.862C189.803 199.547 190.506 198.944 191.066 199.217C195.543 201.412 199.489 197.782 202.546 201.757C206.234 206.492 210.037 211.127 214.127 215.533C218.833 220.584 225.42 222.191 232.15 224.315C232.265 224.315 232.394 224.487 232.466 224.459C233.126 224.186 233.729 224.085 234.145 224.832C234.448 225.362 234.661 225.939 234.776 226.539C235.365 229.782 235.609 231.117 233.887 234.116Z" fill="#D5DBF2"/>
<path d="M195.945 266.031C195.863 265.423 195.748 264.819 195.601 264.223C195.501 263.998 195.484 263.746 195.553 263.51C195.621 263.273 195.77 263.069 195.974 262.932C198.054 261.496 203.249 270.48 217.614 270.781C221.023 270.955 224.44 270.636 227.759 269.834C228.448 269.647 229.309 269.403 229.553 270.422C229.797 271.441 229.008 271.757 228.218 271.972C225.801 272.681 223.289 273.015 220.771 272.962C218.389 272.862 216.006 273.163 213.596 273.048C206.593 272.718 197.495 269.719 192.214 270.092C187.191 270.437 182.169 270.437 177.146 270.724C175.97 270.724 167.388 269.647 165.092 269.389C164.432 269.317 164.174 269.045 164.231 268.37C164.403 266.06 163.829 264.625 165.379 265.4C171.435 268.442 174.678 268.815 179.399 268.399C180.547 268.298 181.71 268.399 183.145 268.399C182.331 267.57 181.353 266.92 180.275 266.49C175.123 264.237 170.961 260.449 166.211 257.565C165.395 257.095 164.754 256.371 164.389 255.502C164.023 254.634 163.953 253.67 164.188 252.757C164.891 247.706 166.025 242.712 165.623 237.474C171.291 251.624 182.671 259.789 195.945 266.031Z" fill="#D5DBF2"/>
<path d="M79.1345 146.05C81.5597 136.005 81.0144 137.44 82.5929 133.537C82.8512 132.891 83.1669 132.231 84.0279 132.331C84.8889 132.432 85.0898 133.034 85.2477 133.68C86.2263 138.002 86.9213 142.384 87.3285 146.796C88.7635 145.218 89.194 144.586 89.9402 144.859C90.1926 144.944 90.4136 145.104 90.5747 145.316C90.7358 145.528 90.8297 145.784 90.8442 146.05C90.9447 147.054 91.0451 148.073 91.0882 149.078C91.1312 150.082 90.8586 150.886 91.8631 151.56C92.3367 151.876 92.1358 152.637 92.0353 153.182C91.4481 155.841 90.4405 158.389 89.0505 160.73C88.8467 161.083 88.5624 161.383 88.2207 161.605C87.8791 161.827 87.4897 161.965 87.0845 162.007C83.6539 162.711 80.1134 162.682 76.695 161.921C76.3075 161.835 75.877 161.921 75.4896 161.792C74.6142 161.577 73.7963 161.261 74.2268 160.07C74.2955 159.752 74.2444 159.42 74.0833 159.137C73.1936 156.64 72.6483 154.072 71.9738 151.517C71.8303 150.972 71.6007 150.341 72.2178 149.982C73.294 149.365 73.8824 150.656 75.3461 152.536C75.8483 153.182 76.2358 153.053 76.2071 152.221C75.9775 144.744 75.6905 144.242 76.7524 144.098C76.9584 144.08 77.1646 144.131 77.3387 144.242C77.5127 144.354 77.6447 144.521 77.7139 144.715C78.7184 146.595 78.7758 147.585 79.1345 146.05Z" fill="#D5DBF2"/>
<path d="M163.069 26.3554C163.069 29.0962 163.37 30.2442 161.849 30.4021C159.366 30.6748 157.544 33.0282 156.525 29.9142C151.89 16.5399 153.842 21.8351 150.254 9.37914C150.198 9.24911 150.171 9.10838 150.174 8.96674C150.178 8.8251 150.212 8.68594 150.275 8.55894C150.338 8.43193 150.428 8.32013 150.538 8.23131C150.648 8.14248 150.777 8.07877 150.914 8.04458C154.573 6.46607 154.157 7.44188 159.983 4.988C161.203 4.48575 162.021 4.988 162.021 6.32256C162.036 13.3398 163.083 21.1463 163.069 26.3554Z" fill="#D5DBF2"/>
<path d="M210.696 199.117C212.642 199.459 214.636 199.415 216.565 198.987C220.87 198.227 221.889 195.572 223.583 196.648C224.057 196.992 224.437 197.449 224.688 197.979C224.938 198.508 225.052 199.092 225.018 199.676C224.857 200.111 224.805 200.579 224.865 201.039C224.925 201.499 225.096 201.937 225.362 202.317C225.697 202.756 225.869 203.299 225.848 203.851C225.827 204.404 225.615 204.932 225.247 205.344C224.817 205.789 225.118 206.191 225.247 206.564C227.256 210.41 231.934 212.792 231.131 214.299C230.973 214.6 231.131 214.816 231.36 215.016C231.468 215.074 231.563 215.154 231.639 215.25C231.715 215.346 231.77 215.457 231.801 215.576C231.832 215.694 231.838 215.818 231.819 215.939C231.8 216.06 231.756 216.176 231.69 216.279C231.389 216.81 230.844 216.753 230.385 216.609C229.442 216.362 228.521 216.041 227.629 215.648C216.408 210.238 209.275 202.073 208.716 200.58C208.357 199.633 209.017 199.073 210.696 199.117Z" fill="#D5DBF2"/>
<path d="M5.23236 168.163C5.23853 166.509 5.33914 164.856 5.53372 163.213C5.66287 162.509 5.53372 161.562 6.60998 161.62C7.68624 161.677 7.42793 162.71 7.52838 163.801C8.11674 163.887 8.18849 162.825 8.8486 163.069C9.5087 163.313 9.26475 163.686 9.1643 164.016C9.06547 164.25 9.03067 164.507 9.06345 164.759C9.09623 165.011 9.19541 165.25 9.35085 165.451C9.75266 166.011 9.14995 166.556 8.17414 168.321C8.05934 168.536 7.77234 168.838 8.17414 169.01C10.3554 169.857 7.27008 171.335 6.98308 175.023C7.67189 174.764 8.08804 173.588 8.89165 174.377C9.69526 175.166 8.7051 175.611 8.43244 176.171C8.0557 177.049 7.83709 177.986 7.78669 178.94C8.30329 178.94 8.38939 178.553 8.6477 178.338C8.906 178.122 9.3365 177.735 9.81006 178.108C9.98091 178.222 10.1005 178.399 10.1434 178.6C10.1862 178.8 10.149 179.01 10.0397 179.184C9.61512 180.281 9.41977 181.453 9.46565 182.628C9.40467 183.051 9.45015 183.483 9.59799 183.884C9.74583 184.285 9.99135 184.642 10.3123 184.924C10.6137 185.154 10.8146 185.484 10.5276 185.871C9.69526 186.991 8.40374 185.01 6.38037 184.149C6.30321 184.115 6.23539 184.063 6.18253 183.997C6.12967 183.931 6.09331 183.853 6.07647 183.77C6.05963 183.688 6.06279 183.602 6.0857 183.521C6.10861 183.439 6.15059 183.365 6.20817 183.303C6.82523 182.7 6.30862 182.37 5.92117 182.054C3.12289 179.816 2.19013 179.643 2.64934 178.696C2.99374 177.979 3.5534 178.208 4.08435 178.352C4.37135 178.352 4.71576 178.782 4.97406 178.452C5.23236 178.122 4.97406 177.735 4.81621 177.434C3.88345 175.367 0.755118 173.932 2.19013 172.741C2.60629 172.397 3.00809 172.626 3.39554 172.913C3.783 173.2 4.14175 173.918 4.51486 173.516C6.09337 171.837 1.50132 167.388 3.28074 166.542C4.0987 166.154 4.51486 167.159 5.23236 168.163Z" fill="#D5DBF2"/>
<path d="M2.6053 193.549C1.45729 191.425 0.538879 190.291 1.58644 189.717C2.634 189.143 3.36586 190.751 4.21252 192.2C4.78652 191.698 4.38472 190.521 5.36053 190.621C6.33634 190.722 6.10673 191.798 6.35069 192.458C6.35069 192.659 6.47984 192.846 6.58029 193.118C6.96774 192.731 7.16864 192.028 7.85745 192.315C8.54626 192.602 8.37406 193.176 8.38841 193.75C8.4465 194.15 8.4465 194.556 8.38841 194.955C7.48435 197.739 10.584 197.395 10.1391 198.528C9.69427 199.662 8.25925 198.27 7.34085 198.873C7.28506 198.903 7.22215 198.919 7.15854 198.917C7.09494 198.915 7.03295 198.897 6.97891 198.863C6.92487 198.829 6.88074 198.782 6.85104 198.726C6.82134 198.669 6.80714 198.606 6.80989 198.543C6.80989 197.294 5.71928 197.94 3.22235 197.323C1.85909 196.993 1.78734 196.562 2.4905 195.4C1.24204 194.927 -0.37953 194.596 0.0796745 193.491C0.424078 192.602 1.47164 193.161 2.6053 193.549Z" fill="#D5DBF2"/>
<path d="M76.7954 184.479C75.4895 184.709 75.1882 183.546 74.8438 182.829C74.4994 182.111 75.4034 181.853 75.9344 181.624C77.7579 180.824 79.6941 180.311 81.6745 180.102C83.6117 179.916 83.1095 180.877 83.5113 181.193C84.7167 182.241 84.6736 182.384 83.1525 183.015C81.096 183.743 78.9632 184.234 76.7954 184.479Z" fill="#D5DBF2"/>
<path d="M97.488 192.329C98.2629 192.745 97.5884 193.979 96.6843 193.764C95.5962 193.43 94.6094 192.828 93.8143 192.013C93.7293 191.927 93.6816 191.811 93.6816 191.69C93.6816 191.57 93.7293 191.453 93.8143 191.368C94.3309 190.492 96.6269 191.841 97.488 192.329Z" fill="#D5DBF2"/>
<path d="M161.863 266.074C160.887 247.591 161.274 249.442 162.953 232.724C164.704 215.504 170.214 204.282 172.482 198.513C172.64 198.112 172.396 197.581 172.41 197.078C172.296 196.152 172.359 195.212 172.597 194.309C173.259 193.041 174.027 191.831 174.893 190.693C173.644 189.258 174.577 187.579 174.979 185.857C176.302 180.321 176.57 174.587 175.768 168.952C174.25 168.033 173.023 166.703 172.228 165.116C171.433 163.529 171.103 161.75 171.276 159.983H170.86C166.555 165.221 160.987 168.751 155.348 172.21C154.233 173.038 152.959 173.627 151.605 173.938C150.252 174.249 148.848 174.276 147.484 174.018C147.326 174.018 147.154 174.018 146.996 173.932C145.217 173.343 141.184 168.034 141.112 166.168C141.041 164.303 142.547 167.144 145.963 171.205C146.483 171.805 147.175 172.23 147.944 172.425C148.714 172.62 149.525 172.575 150.268 172.296C153.05 171.499 155.658 170.19 157.959 168.436C162.341 165.466 166.443 162.104 170.214 158.39C169.747 156.345 169.478 154.259 169.411 152.162C169.727 149.571 170.207 147.002 170.846 144.471C170.898 144.321 170.936 144.168 170.961 144.012C171.147 139.707 171.09 138.272 171.477 137.066C171.863 136.046 172.114 134.98 172.223 133.895C171.622 133.655 171.054 133.342 170.53 132.962C169.798 132.345 170.344 131.771 170.932 131.986L172.568 132.589C173.027 129.475 173.515 126.304 174.003 123.146L173.558 122.931C169.253 127.007 166.613 129.475 160.04 141.041C157.629 145.346 155.563 149.752 153.31 154.1C152.463 155.764 153.31 156.468 153.31 158.706C153.31 159.266 152.564 159.897 152.191 158.993C150.756 155.535 151.617 159.094 147.484 136.55C147.484 136.248 147.283 135.947 147.068 135.301C146.178 139.764 141.328 162.997 139.72 170.502C139.276 172.64 138.041 172.181 134.124 174.664C133.877 174.911 133.688 175.21 133.571 175.539C133.454 175.869 133.412 176.22 133.448 176.567C133.483 176.915 133.596 177.25 133.778 177.549C133.959 177.848 134.205 178.102 134.497 178.294C136.708 179.297 138.46 181.095 139.405 183.331C140.51 185.885 141.385 188.554 142.275 191.181C142.562 191.984 142.662 192.845 142.964 193.634C143.683 195.437 143.88 197.406 143.529 199.316C143.179 201.225 142.296 202.996 140.983 204.426H145.547C146.565 204.426 147.226 204.655 146.982 206.004C146.738 207.353 147.111 208.501 146.982 209.764C146.838 212.634 145.231 212.318 142.146 212.318C141.988 217.57 140.84 255.082 140.381 268.729C140.381 270.164 138.415 271.025 138.486 268.729C138.759 259.229 139.921 214.198 139.921 212.361C136.664 212.218 6.35021 211.572 5.51791 211.271C4.47034 210.883 4.72865 209.836 5.51791 209.534C6.07756 209.305 137.841 210.381 144.714 210.381L144.886 206.263C142.39 206.263 7.91438 204.426 4.25509 204.311C2.44697 204.311 2.71963 202.876 3.46583 202.876C5.80586 202.63 8.1603 202.548 10.5118 202.632C9.72363 202.118 9.15672 201.328 8.92293 200.417C8.68915 199.505 8.80547 198.54 9.24894 197.71C10.0382 195.959 11.6885 195.285 13.2383 194.51C12.2912 193.39 11.2723 192.357 10.44 191.181C7.95743 187.693 10.0095 183.345 14.745 184.106C22.3793 185.311 23.8717 187.507 25.4646 188.138C24.8762 182.513 24.1157 178.495 24.948 174.046C25.8234 169.354 30.1284 169.01 30.5302 168.306C32.3181 165.083 35.2218 162.623 38.6954 161.39C39.4416 161.074 39.3125 161.232 45.8705 161.017C47.4777 161.017 50.1755 159.051 53.0456 160.299C55.9156 161.547 58.3408 162.825 59.8762 165.551C59.9776 165.749 60.1238 165.921 60.3031 166.053C60.4824 166.185 60.69 166.274 60.9095 166.312C62.0547 166.218 63.2017 166.47 64.202 167.036C65.2024 167.601 66.01 168.454 66.5204 169.483C66.6208 169.641 66.7643 169.784 66.9509 170.028C68.2137 166.742 69.3617 163.47 72.5331 161.418C70.5344 156.162 68.8712 150.784 67.5536 145.317C67.4388 144.858 67.8693 142.734 69.376 144.586C70.8828 146.437 72.5761 148.647 74.2407 150.785C72.9205 137.87 72.8057 137.511 72.9492 136.837C73.2219 135.559 74.1546 136.062 74.3842 136.506C75.6764 139.499 77.1624 142.404 78.8328 145.203C79.8229 139.276 79.0337 142.333 81.7889 132.001C82.0472 131.025 83.6688 129.848 83.9988 131.67C84.7307 135.746 85.0894 139.42 86.3379 150.039C87.1499 148.592 88.0659 147.206 89.0788 145.891C90.4133 144.643 90.7003 146.351 90.6716 146.509C90.3703 148.647 89.6384 152.564 89.5093 153.813L89.7963 153.727C90.3416 153.497 92.5515 152.292 91.4035 155.076C88.8922 161.246 87.7299 162.509 88.3613 163.27C90.4656 165.614 91.8809 168.494 92.4511 171.593C93.4985 177.111 93.4985 182.778 92.4511 188.296C92.2071 189.487 91.5614 190.004 92.1641 191.511C93.4699 190.219 93.9004 188.081 96.1821 188.124C96.2482 188.124 96.3118 188.149 96.3598 188.194C96.4079 188.24 96.4367 188.302 96.4404 188.368C96.4404 188.626 96.2395 188.641 96.096 188.698C95.6368 188.913 95.0341 189.659 94.4744 189.903C95.3774 190.034 96.2695 190.23 97.1436 190.492C97.3692 190.564 97.5777 190.681 97.7563 190.837C97.9348 190.993 98.0797 191.183 98.1818 191.397C98.284 191.611 98.3413 191.843 98.3503 192.08C98.3593 192.316 98.3198 192.553 98.2342 192.773C97.7176 194.338 95.4646 193.19 92.982 192.3C93.3264 192.759 93.4843 193.175 93.7713 193.29C94.5521 193.607 95.2157 194.157 95.6705 194.867C96.1254 195.576 96.3493 196.409 96.3112 197.251C96.3112 199.805 95.809 202.173 93.2977 203.679C104.62 203.679 104.491 203.679 104.247 203.522C101.449 201.01 101.75 197.782 102.367 194.582C103.35 189.876 105.343 185.44 108.208 181.58C108.918 180.537 109.852 179.664 110.942 179.026C112.031 178.389 113.249 178.001 114.507 177.892C114.895 177.836 115.278 177.755 115.655 177.648C115.688 177.564 115.717 177.478 115.741 177.39C115.887 176.555 115.747 175.696 115.343 174.951C114.94 174.206 114.296 173.619 113.517 173.286C112.957 172.999 112.57 172.396 112.082 172.023C111.536 171.636 111.076 171.141 110.73 170.568C110.385 169.995 110.161 169.357 110.073 168.694C106.701 150.613 107.404 157.816 104.448 130.235C103.285 119.372 103.013 115.24 102.912 115.125C101.09 113.69 102.295 111.724 102.08 110.016C101.98 109.198 102.941 108.897 103.802 108.897H115.827C115.827 108.782 115.713 108.021 115.727 107.907C115.282 108.169 114.797 108.358 114.292 108.466C111.537 109.012 112.154 107.505 111.652 107.031C110.217 105.84 110.217 105.41 111.293 103.917C113 101.535 112.986 99.4401 116.76 97.675C124.495 94.0731 131.857 95.1207 138.816 99.6553C140.248 100.49 141.433 101.69 142.249 103.132C143.066 104.574 143.486 106.206 143.466 107.864C145.547 107.95 147.642 108.05 149.737 108.122C152.607 108.208 152.449 108.122 152.435 110.992C152.489 111.486 152.443 111.986 152.3 112.461C152.157 112.937 151.92 113.379 151.602 113.762C151.057 114.379 151.201 115.598 151 116.545C150.182 120.621 149.392 124.696 148.517 128.772C147.909 131.125 147.909 133.594 148.517 135.947C150.038 141.687 151.172 147.427 152.822 153.311C163.212 132.531 164.675 128.643 171.262 122.946C173.214 121.238 174.807 121.396 174.563 119.53C174.456 119.098 174.501 118.642 174.692 118.239C175.639 116.976 175.782 115.168 177.332 114.292C177.92 113.962 177.734 112.47 180.389 111.767C180.968 111.569 181.533 111.335 182.082 111.064V110.734C178.538 109.485 177.533 109.299 176.098 108.567C169.755 105.611 166.598 100.186 165.378 93.657C164.894 89.8503 164.688 86.0135 164.761 82.1768C164.77 81.7445 164.692 81.3148 164.531 80.9131C164.371 80.5114 164.132 80.1458 163.829 79.8378C158.921 74.4708 158.089 66.0186 159.524 59.8624C160.408 56.7268 162.363 54.0002 165.048 52.1563C164.285 51.2419 163.576 50.2836 162.925 49.2863C162.465 48.4827 162.925 48.0235 163.771 48.1814C171.635 49.6164 178.279 43.3597 183.704 41.3076C195.844 36.7156 208.572 34.9649 218.876 42.8718C220.526 44.1138 222.312 45.1633 224.2 46.0001C229.703 48.2575 234.196 52.44 236.842 57.7672C239.712 63.7369 238.521 68.7021 237.445 85.4487C237.432 88.2994 236.605 91.0873 235.063 93.4847C234.331 94.5036 234.173 94.5754 233.326 93.4847C230.327 100.028 224.889 103.731 218.474 106.228C217.671 106.417 216.844 106.489 216.02 106.443C215.825 106.414 215.627 106.414 215.432 106.443C213.007 107.582 210.346 108.128 207.668 108.036L207.783 109.686C210.194 109.5 212.303 110.518 214.513 110.762C217.814 111.121 219.981 114.135 221.688 117.033C223.136 119.567 223.889 122.438 223.87 125.356C228.935 126.906 229.064 126.935 254.479 159.582C256.028 161.576 257.506 163.384 256.832 165.896C255.038 172.669 251.092 178.337 247.289 184.077C244.046 188.928 241.334 194.122 238.406 199.174C238.1 199.794 237.841 200.437 237.631 201.096C238.134 201.096 238.507 200.996 238.88 200.996C239.246 200.969 239.614 201.02 239.959 201.146C240.304 201.272 240.619 201.47 240.882 201.726C241.145 201.982 241.351 202.292 241.485 202.633C241.62 202.975 241.681 203.341 241.664 203.708C241.639 205.563 241.18 207.386 240.323 209.031C239.465 210.676 238.234 212.097 236.727 213.179C235.516 213.881 234.218 214.421 232.867 214.787C235.493 226.424 234.159 247.792 232.164 259.473C231.633 262.587 231.289 265.73 230.858 268.858C230.614 270.594 229.71 270.652 229.811 269.504C229.811 269.188 231.576 253.718 231.992 242.712C232.552 233.347 232.244 223.951 231.073 214.643C231.056 214.496 231.006 214.356 230.926 214.232C230.847 214.107 230.74 214.003 230.614 213.925C226.567 212.318 225.635 208.759 225.333 205.043C225.429 203.208 224.829 201.404 223.654 199.992C223 199.211 222.414 198.376 221.904 197.495C218.704 200.279 214.729 200.365 210.868 200.365C176.041 200.752 184.651 200.623 174.448 198.729C170.229 210.668 166.383 218.919 164.761 236.369C164.36 240.674 161.977 261.396 163.326 267.437C163.226 268.37 161.963 267.911 161.863 266.074ZM188.798 111.925C188.756 113.034 188.597 114.135 188.324 115.211C187.836 116.646 186.717 117.593 186.459 118.554C185.957 120.492 184.479 122.185 185.024 124.395C185.024 124.495 184.923 124.625 184.923 124.739C184.866 125.389 184.866 126.042 184.923 126.691C185.096 127.853 185.598 133.263 187.392 133.938C193.388 136.301 199.932 136.913 206.262 135.703C207.281 135.502 208.328 135.373 208.027 133.88C208.018 133.633 208.106 133.391 208.271 133.206C209.089 132.201 208.644 131.24 208.372 130.149C208.099 129.059 208.673 127.609 208.544 126.935C207.582 121.869 207.597 124.61 207.941 116.258C207.51 115.756 207.008 115.397 206.865 114.924C206.192 112.746 206.044 110.44 206.434 108.194C206.443 107.643 206.36 107.096 206.19 106.572C204.985 106.572 204.583 106.256 205.258 105.725C205.688 105.395 207.252 105.18 207.697 104.893C209.658 103.883 211.338 102.404 212.59 100.588C212.777 100.403 213.003 100.262 213.251 100.178C213.5 100.093 213.765 100.067 214.025 100.1C214.794 100.253 215.588 100.215 216.339 99.9903C217.089 99.7652 217.773 99.3594 218.331 98.8087C220.632 96.6923 222.004 93.7523 222.148 90.6291C222.187 89.8348 221.935 89.0534 221.438 88.4323C220.941 87.8113 220.234 87.3934 219.451 87.2575C218.667 87.1216 217.861 87.2771 217.184 87.6946C216.507 88.1121 216.006 88.7629 215.776 89.5241C215.676 89.7968 215.217 89.9403 214.915 90.1555C214.542 89.0506 214.456 89.1941 214.757 88.4192C215.22 87.414 216.015 86.5987 217.008 86.1101C218.001 85.6215 219.132 85.4893 220.21 85.7357C221.222 85.9956 222.115 86.5916 222.744 87.426C223.372 88.2604 223.698 89.2836 223.669 90.3277C223.636 92.2376 223.175 94.1158 222.321 95.8243C221.467 97.5328 220.24 99.0282 218.732 100.201C218.058 100.76 217.139 101.492 216.422 101.42C214.011 101.133 212.748 102.64 211.256 104.018C210.193 104.865 209.065 105.627 207.884 106.299C209.319 106.629 209.505 106.099 216.106 104.348C217.656 103.932 217.355 104.936 221.057 102.913C232.293 96.7996 231.647 91.4327 233.097 91.2318C233.427 91.2318 233.829 91.6192 234.202 91.8345C235.881 89.4954 235.221 87.2998 235.924 74.8152C236.326 67.5253 239.382 57.1071 228.935 50.5491C226.811 49.2146 224.501 48.1814 222.306 46.9616C217.096 44.0916 214.657 41.9677 212.26 40.9202C206.958 38.7439 201.11 38.2724 195.528 39.5713C188.999 40.9202 182.527 42.4413 176.801 46.1293C172.999 48.4964 168.508 49.5079 164.058 48.9993C164.688 49.7712 165.422 50.4522 166.239 51.0227C166.338 51.0977 166.417 51.1943 166.472 51.3051C166.527 51.4158 166.555 51.5377 166.555 51.6613C166.555 51.7848 166.527 51.9067 166.472 52.0175C166.417 52.1282 166.338 52.2248 166.239 52.2998C163.517 54.1992 161.606 57.0519 160.887 60.2929C159.84 65.4295 160.558 70.769 162.925 75.4466C163.298 76.2215 163.771 76.8816 164.187 77.6996C164.546 77.5274 164.403 77.6996 164.503 76.8529C164.934 72.9784 165.221 69.0465 167.057 65.5307C167.588 64.4975 170.803 60.1637 169.698 63.2347C169.023 65.1002 168.263 66.937 167.703 68.8456C165.789 76.6447 165.516 84.7564 166.9 92.6668C168.134 100.373 172.554 105.869 180.504 108.036C184.696 109.298 189.041 109.983 193.419 110.074C195.858 110.074 197.609 110.978 192.371 111.666C191.194 111.867 190.032 111.853 188.798 111.925ZM132.158 177.189C131.326 174.879 132.99 173.788 134.841 172.812C135.622 172.383 136.427 172 137.252 171.664C137.634 171.541 137.972 171.31 138.227 170.999C138.481 170.689 138.641 170.312 138.687 169.914C140.122 162.911 149.192 119.286 150.167 114.422C150.227 114.068 150.359 113.731 150.555 113.431C151.516 112.14 151.114 110.748 150.942 109.126C122.687 109.126 137.711 109.126 114.909 109.973C112.957 109.973 111.006 109.815 109.054 109.83C107.103 109.844 104.878 109.973 102.769 110.045C102.769 113.79 102.683 113.073 103.156 113.919C104.591 116.474 103.027 109.471 107.619 148.876C108.334 155.667 109.61 162.387 111.436 168.966C111.595 169.396 111.862 169.776 112.211 170.071C115.44 172.941 117.205 173.788 116.904 175.812C116.867 176.39 116.867 176.97 116.904 177.548C121.978 177.145 127.07 177.026 132.158 177.189ZM186.416 138.185C186.33 139.42 185.469 140.453 185.655 141.931C186.042 143.66 185.923 145.463 185.311 147.126C184.959 147.813 184.887 148.61 185.11 149.35C186.617 152.22 185.11 155.42 185.383 156.051C186.373 158.433 184.938 160.615 184.852 162.911V163.026C184.62 163.902 184.257 164.739 183.775 165.508C180.704 169.038 179.542 168.192 177.605 168.378C177.691 169.024 177.734 169.34 177.791 169.655C178.81 175.396 178.239 181.306 176.141 186.746C175.78 187.43 175.634 188.206 175.721 188.974C175.808 189.742 176.125 190.466 176.629 191.051C177.748 192.386 176.414 192.242 175.596 192.329C175.165 193.146 174.606 194.137 174.161 195.199C173.788 195.973 174.017 196.533 174.921 196.72C182.283 198.155 181.738 199.748 214.126 198.442C216.039 198.427 217.919 197.933 219.593 197.007C222.176 195.486 222.463 193.921 220.612 191.769L219.823 191.941C217.771 192.415 219.206 190.994 219.364 190.894C221.358 189.458 219.062 187.765 218.804 184.752C217.814 173.142 219.335 168.622 221.602 157.903C220.024 159.338 220.641 161.103 219.737 162.681C218.817 164.14 217.78 165.522 216.637 166.814C216.379 167.13 213.064 167.101 210.424 167.503C209.636 167.608 208.834 167.524 208.085 167.256C207.336 166.989 206.662 166.547 206.119 165.967C205.298 164.865 204.667 163.633 204.253 162.322C204.577 160.348 204.474 158.327 203.952 156.396C203.816 155.762 203.816 155.107 203.952 154.473C204.43 150.709 205.192 146.986 206.233 143.337C206.233 143.222 206.406 143.136 206.434 143.036C206.704 141.918 206.772 140.762 206.635 139.62C199.848 140.783 193.189 139.534 186.416 138.185ZM228.175 192.271C228.663 192.357 228.907 192.486 229.093 192.415C230.399 191.984 233.714 192.673 234.403 193.85C235.091 195.026 236.641 195.285 237.732 196.045C238.736 194.266 243.242 186.732 245.381 183.417C252.556 172.267 253.087 173.602 255.167 165.982C255.348 164.996 255.287 163.981 254.99 163.023C254.693 162.066 254.167 161.195 253.46 160.486C239.712 142.964 236.885 139.319 228.82 130.824C227.232 129.338 225.544 127.962 223.769 126.705V132.13C224.09 135.406 224.176 138.7 224.028 141.988C223.798 149.881 222.994 149.709 224.257 150.512C230.715 154.645 227.931 153.612 239.597 164.059C240.582 162.587 241.833 161.312 243.285 160.299C243.673 159.969 244.333 160.299 244.103 161.103C243.874 161.906 240.2 163.829 233.326 178.796C231.375 183.116 229.925 187.636 228.175 192.242V192.271ZM208.085 114.436C209.247 113.991 209.362 114.694 209.333 115.455C209.06 123.075 208.902 123.046 209.118 123.434C210.553 126.146 209.362 129.174 210.208 132.044C210.294 132.316 209.362 132.517 209.218 136.822C209.218 137.08 208.974 137.324 208.888 137.597C207.453 142.29 208.027 140.108 207.152 146.351C207.09 146.585 207.014 146.815 206.922 147.039C204.655 155.865 205.028 154.1 205.631 159.797C205.803 161.304 205.401 162.767 206.664 164.188C207.711 165.365 208.601 166.24 210.251 166.01H211.93C213.738 165.795 215.963 166.498 216.766 163.901C216.766 163.714 217.168 163.628 217.297 163.442C218.632 161.648 217.8 163.442 220.483 154.688C221.33 151.904 221.1 154.545 222.549 145.317C223.066 141.988 222.09 131.699 222.047 130.264C221.961 128.054 222.047 125.83 222.047 123.62C222.021 123.218 221.959 122.82 221.861 122.429C221.368 120.832 220.749 119.278 220.009 117.78C219.278 115.613 217.412 114.493 216.322 112.728C216.235 112.585 215.977 112.527 215.776 112.484C207.166 110.59 209.907 110.978 207.496 110.978L208.085 114.436ZM132.459 203.479C138.343 203.105 140.137 203.091 140.711 202.115C141.323 201.206 141.732 200.174 141.908 199.092C142.083 198.009 142.023 196.901 141.729 195.844C141.041 193.591 140.596 191.267 139.792 189.057C135.487 177.462 133.88 178.122 116 179.198C114.896 179.146 113.794 179.335 112.771 179.751C111.748 180.168 110.827 180.802 110.073 181.609C106.5 185.853 104.189 191.013 103.4 196.504C102.869 200.695 105.553 204.21 109.958 203.981C119.185 203.522 130.579 203.593 132.459 203.479ZM187.707 111.638C186.418 111.536 185.122 111.536 183.833 111.638C182.943 111.781 182.182 112.585 181.293 112.771C180.073 113.044 179.011 113.331 178.652 114.709C178.652 114.881 178.38 114.996 178.265 115.168C176.041 118.138 175.639 118.583 175.754 118.813C176.242 119.86 175.682 120.664 175.237 121.539C175.135 121.923 175.105 122.322 175.151 122.716C175.007 129.977 174.864 125.414 173.874 133.048C173.574 133.936 173.377 134.856 173.285 135.789C173.269 136.147 173.196 136.501 173.07 136.837C172.898 137.654 172.683 138.458 172.554 139.276C172.54 139.804 172.496 140.331 172.424 140.855C171.865 142.864 172.539 145.16 171.377 147.025C171.276 147.197 171.377 147.499 171.377 147.743C170.485 151.617 170.878 155.677 172.496 159.309C172.869 159.955 172.582 160.988 172.654 161.834C172.975 163.45 173.746 164.943 174.878 166.14C176.227 167.948 177.605 166.728 178.753 166.355C179.198 166.211 179.686 166.211 180.188 166.068C180.977 165.795 182.053 165.68 182.441 165.106C183.098 163.934 183.623 162.693 184.005 161.404C184.062 161.207 184.062 160.998 184.005 160.801C183.675 159.065 185.024 157.271 183.818 155.549C183.632 155.291 185.253 152.679 183.675 149.594C183.187 148.675 184.708 145.676 184.335 143.079C184.048 141.632 184.203 140.132 184.78 138.774C186.918 134.239 183.101 131.326 183.718 127.638C183.718 127.538 183.646 127.408 183.603 127.294C182.656 125.026 184.206 122.874 183.89 120.621C183.89 120.506 184.091 120.377 184.163 120.233C184.479 119.645 184.809 119.057 185.11 118.44C185.297 117.824 185.573 117.24 185.928 116.703C187.248 115.34 187.42 113.589 187.707 111.652V111.638ZM238.909 165.207C232.939 160.299 238.492 165.207 226.654 154.215C226.037 153.626 225.319 153.153 224.53 152.536C222.349 160.026 220.053 169.569 220.11 177.347C220.11 180.619 219.866 183.919 221.114 187.076C222.105 189.588 220.885 190.391 222.09 191.611C222.52 192.019 222.821 192.542 222.959 193.118C223.096 193.693 223.064 194.297 222.865 194.854C222.506 195.973 222.865 196.131 224.946 199.001C228.591 187.335 232.508 175.725 238.909 165.221V165.207ZM46.3728 201.226C51.126 201.034 55.7362 199.545 59.704 196.921C60.0327 196.751 60.2958 196.478 60.4517 196.143C60.6076 195.807 60.6474 195.43 60.565 195.069C60.3161 193.161 60.627 191.221 61.4601 189.486C62.2932 187.751 63.6125 186.296 65.2575 185.297C66.3338 184.594 66.6926 183.991 66.2764 182.872C66.1472 182.484 66.176 182.011 65.9607 181.709C64.9275 180.375 65.5302 179.184 66.0899 177.892C66.7148 176.473 66.9119 174.903 66.6569 173.373C66.402 171.844 65.7062 170.422 64.6548 169.282C64.2423 168.745 63.6806 168.342 63.0399 168.122C62.3993 167.903 61.7082 167.877 61.0529 168.048C58.3121 168.694 57.0923 170.918 56.0591 173.114C55.9365 173.525 55.7305 173.907 55.454 174.235C55.1775 174.564 54.8364 174.831 54.4519 175.022C53.3535 175.416 52.4012 176.135 51.7218 177.083C51.0424 178.032 50.6682 179.165 50.6491 180.332C50.6491 182.456 48.0517 180.935 46.3441 184.479C45.544 185.791 45.1811 187.324 45.3074 188.856C45.4338 190.387 46.0429 191.839 47.0472 193.003C47.2061 193.202 47.3172 193.435 47.372 193.684C47.4267 193.933 47.4236 194.191 47.3629 194.438C46.0427 196.519 46.5306 198.843 46.3728 201.226ZM75.073 178.05C73.7815 177.146 72.203 179.485 71.1267 177.935L69.907 178.854C69.8679 178.439 69.8679 178.021 69.907 177.605C70.5527 175.037 71.9734 177.476 72.6479 177.06C73.1775 176.753 73.7879 176.615 74.398 176.664C75.0081 176.712 75.589 176.946 76.0632 177.333L77.9287 176.586L78.2444 177.017L75.6614 179.801C77.4911 179.1 79.4438 178.778 81.4015 178.854C83.6257 178.854 85.2329 180.174 84.6159 182.47C85.8069 184.106 87.2707 183.905 88.9209 183.03C88.8026 183.453 88.5759 183.838 88.2633 184.147C87.9507 184.455 87.5629 184.677 87.1383 184.79C86.7137 184.903 86.267 184.904 85.8422 184.791C85.4175 184.679 85.0294 184.457 84.7163 184.149C83.6401 185.096 83.6544 185.067 82.3486 184.479C81.4445 184.063 77.6417 185.914 74.3412 184.364L74.0685 185.9C76.2056 185.533 78.4027 185.772 80.4113 186.588C81.3643 186.962 82.229 187.531 82.9504 188.257C83.6718 188.983 84.2341 189.852 84.6015 190.807L90.8008 189.918C91.0815 188.983 91.2595 188.021 91.3317 187.048C91.3317 175.467 91.547 170.602 88.4617 165.522C87.9965 164.626 87.2913 163.876 86.4247 163.356C85.5581 162.837 84.5642 162.568 83.554 162.581C77.8139 162.581 74.1977 162.093 72.8631 163.686C70.4236 166.556 68.0415 171.133 68.3428 175.008C68.472 176.658 67.1374 179.313 67.324 180.361C67.5966 181.695 67.9697 183.015 68.2854 184.264L73.021 185.153V183.46H70.1509C70.0361 183.46 69.8065 183.073 69.8496 182.915C70.2083 181.48 71.2846 182.197 73.0784 182.829L75.073 178.05ZM45.2104 201.47C45.2335 201.241 45.2335 201.01 45.2104 200.781C44.7167 198.679 44.801 196.482 45.4543 194.424C45.8274 193.419 42.7996 191.267 43.5601 187.421C43.7373 186.727 43.6486 185.992 43.3114 185.36C42.9742 184.728 42.4128 184.245 41.7377 184.005C39.6569 183.116 40.0013 181.279 39.8721 179.586C38.9968 168.421 28.5786 167.417 26.7274 173.975C26.3378 175.789 26.2074 177.649 26.34 179.499C26.5792 180.675 26.7517 181.863 26.8566 183.058C26.6328 184.457 26.6982 185.887 27.0487 187.259C27.3992 188.631 28.0273 189.917 28.8943 191.037C31.7394 194.606 35.3946 197.444 39.5564 199.317C41.3646 200.164 43.2731 200.738 45.2104 201.47ZM32.1805 168.565C36.6577 168.88 38.9824 171.535 40.36 175.08C41.2498 177.376 41.2785 181.595 41.9099 182.255C42.7101 182.946 43.5696 183.565 44.4785 184.106C44.8389 183.216 45.3793 182.409 46.0657 181.738C46.7522 181.066 47.57 180.544 48.4679 180.203C48.6124 180.115 48.7352 179.996 48.8271 179.855C48.9191 179.713 48.9778 179.552 48.9988 179.385C49.8168 174.491 53.9783 173.759 54.294 172.884C55.2639 170.384 56.9515 168.228 59.1444 166.685C57.0636 162.954 52.1128 160.6 49.0993 161.734C49.6748 162.356 50.2115 163.012 50.7065 163.7C50.9074 164.03 51.4671 165.723 49.702 164.69C48.5253 164.016 47.449 162.853 46.2149 162.667C39.0685 161.547 35.9833 164.016 32.1805 168.565ZM72.2748 203.177C73.5806 202.962 74.9008 202.79 76.1923 202.531C78.354 202.272 80.3335 201.192 81.7221 199.515C83.1107 197.838 83.8024 195.692 83.6544 193.52C83.6544 188.985 79.5646 186.632 75.5896 187.464C74.9661 187.62 74.3179 187.651 73.6825 187.554C73.047 187.458 72.4369 187.237 71.8873 186.904C67.367 184.407 62.6458 188.511 62.4593 193.477C62.2727 198.442 66.8217 203.105 72.203 203.177H72.2748ZM76.5798 152.794C76.752 154.229 75.9053 154.688 74.9439 153.454C73.5089 151.617 72.1743 149.752 70.7967 147.886C70.3231 147.24 70.0792 147.341 70.3518 148.216C71.6577 152.392 72.9779 156.568 74.3268 160.83C78.6319 160.83 82.9369 160.141 87.242 161.691C90.8008 153.942 90.112 155.822 89.4806 156.152C88.8492 156.482 87.6725 157.372 88.0456 155.406C88.2178 154.372 90.1837 146.882 88.7344 149.436C88.374 150.12 87.9714 150.782 87.529 151.416C86.7828 152.435 85.6491 152.995 85.3764 150.971C84.9746 148.001 85.3764 149.637 83.5253 134.512C83.5117 134.455 83.4795 134.405 83.434 134.369C83.3884 134.333 83.3321 134.314 83.2741 134.314C83.2162 134.314 83.1598 134.333 83.1143 134.369C83.0687 134.405 83.0366 134.455 83.023 134.512C82.1764 138.63 81.344 142.749 80.4543 146.853C80.1243 148.417 79.3781 148.489 78.6749 147.197C73.7959 138.343 74.6425 137.267 76.5224 152.794H76.5798ZM117.88 100.1C117.133 100.519 116.423 100.999 115.756 101.535C114.55 102.554 113.345 103.587 112.211 104.678C112.156 104.731 112.124 104.804 112.123 104.881C112.122 104.958 112.151 105.032 112.204 105.087C112.257 105.142 112.33 105.174 112.407 105.175C112.484 105.176 112.558 105.147 112.613 105.094C115.139 102.784 117.521 101.191 119.114 100.918C119.178 100.905 119.245 100.917 119.301 100.952C119.357 100.986 119.398 101.041 119.415 101.105C119.645 101.779 116.76 101.865 113.675 106.127C113.609 106.221 113.574 106.333 113.574 106.448C113.574 106.562 113.61 106.674 113.676 106.768C113.741 106.862 113.834 106.934 113.942 106.973C114.05 107.012 114.167 107.018 114.278 106.988C114.852 106.83 118.984 104.707 122.443 103.056C123.261 102.669 125.012 102.64 123.031 103.774L117.291 107.046C116.315 107.605 116.488 107.835 117.607 107.634C119.63 107.275 121.654 106.931 123.663 106.558C124.237 106.457 124.438 106.07 128.671 103.286C129.317 102.87 130.465 102.956 129.274 103.903C128.771 104.319 128.255 104.721 127.724 105.08C126.389 105.969 124.136 106.83 126.131 106.787C133.507 106.658 135.301 103.501 135.545 107.634C135.545 107.892 135.329 107.821 142.059 107.821C141.567 105.105 140.019 102.696 137.754 101.119C131.699 97.0579 125.241 95.6803 118.253 98.5217C117.679 98.7513 117.119 99.0096 116.559 99.2535C116 99.4975 116.129 100.028 116.559 99.8132C116.9 99.6464 117.255 99.5118 117.621 99.4114C118.353 99.2392 118.41 99.7701 117.88 100.1ZM38.9537 200.551C36.3277 198.901 30.2288 196.246 26.5122 190.061C26.2252 189.559 24.8906 189.157 23.7282 188.483C20.7738 186.686 17.4336 185.618 13.9845 185.369C13.5711 185.296 13.1459 185.334 12.7515 185.477C12.357 185.62 12.0072 185.865 11.7369 186.186C11.4667 186.507 11.2855 186.894 11.2115 187.307C11.1375 187.72 11.1733 188.145 11.3154 188.54C11.8614 190.25 12.9495 191.736 14.415 192.773C19.0541 196.561 24.5625 199.135 30.4441 200.264C32.7762 200.732 35.1337 201.062 37.5044 201.254C37.9205 201.326 38.9681 201.154 38.9681 200.594L38.9537 200.551ZM235.952 199.073C232.795 198.542 228.878 198.269 226.984 195.672C225.993 200.264 225.549 205.028 227.601 209.233C228.21 210.539 229.276 211.577 230.598 212.15C231.92 212.724 233.406 212.794 234.776 212.347C236.318 211.476 237.617 210.231 238.553 208.726C239.488 207.222 240.03 205.506 240.128 203.737C240.145 203.474 240.083 203.212 239.952 202.983C239.822 202.755 239.627 202.57 239.392 202.45C239.156 202.331 238.892 202.284 238.63 202.314C238.368 202.343 238.121 202.449 237.918 202.618C235.551 203.952 235.952 200.838 235.952 199.073ZM87.8877 203.249C87.8877 202.862 87.7299 203.12 89.4949 203.034C93.1112 202.847 95.0771 200.551 94.4888 196.978C94.3596 196.232 93.5991 195.543 93.0538 194.94C92.5085 194.338 91.8053 194.065 91.4753 193.505C90.2698 191.31 88.9353 191.597 86.4527 192.228C84.1854 192.816 85.3047 194.869 83.5827 199.087C82.9369 200.68 83.1091 201.957 84.7307 202.632C85.7622 202.933 86.8189 203.139 87.8877 203.249ZM36.6721 202.761C34.1237 202.706 31.5925 202.33 29.1382 201.642C18.7487 199.174 15.563 194.983 14.2141 195.715C12.9858 196.286 11.8834 197.096 10.971 198.097C10.745 198.404 10.5984 198.762 10.5444 199.139C10.4903 199.517 10.5304 199.902 10.6611 200.26C10.7918 200.618 11.009 200.938 11.2935 201.191C11.5779 201.445 11.9206 201.624 12.2912 201.714C13.6983 202.314 15.21 202.631 16.7397 202.646C21.5614 202.646 23.8861 202.761 36.6721 202.761ZM38.8963 202.905L65.8459 203.278L60.9669 197.796C60.1202 198.341 59.2592 198.973 58.3408 199.475C44.7655 206.808 41.3646 198.844 39.5277 202.345C39.4273 202.546 38.882 202.876 38.8963 202.948V202.905ZM76.3359 183.647C78.2649 183.442 80.1812 183.13 82.0759 182.714C83.7836 182.312 83.1235 180.246 81.6311 180.16C80.3858 180.139 79.1427 180.269 77.9287 180.547C75.891 180.992 73.4802 184.02 76.3359 183.69V183.647ZM134.21 107.017C129.905 107.419 123.95 107.72 119.53 108.093C118.339 108.194 118.31 108.897 119.53 108.882C124.036 108.882 130.135 108.395 134.497 108.395L134.21 107.017ZM233.57 195.328C229.954 193.893 229.94 193.634 229.595 195.586C232.135 197.165 232.882 197.136 233.57 195.328ZM81.7602 201.441L79.005 203.421H83.1091L81.7602 201.441ZM97.4449 192.716C96.9427 190.951 95.5507 190.549 93.3264 191.525L97.4449 192.716Z" fill="#001B62"/>
<path d="M193.203 223.024C193.677 233.069 193.074 228.764 195.915 258.382C196.188 261.252 196.604 263.993 196.92 266.806C197.063 268.098 195.973 267.48 195.887 267.007C194.71 261.138 193.548 252.312 193.189 248.883C191.008 228.018 191.553 227.644 191.338 223.167C191.338 222.378 190.405 222.22 182.728 219.207C182.451 219.135 182.198 218.992 181.996 218.79C180.561 216.939 182.426 217.355 182.656 217.427C186.071 218.719 189.444 220.082 192.844 221.388C193.404 221.603 194.036 221.646 194.581 221.89C194.796 221.976 195.858 222.751 194.38 223.009C193.988 223.037 193.595 223.042 193.203 223.024Z" fill="#001B62"/>
<path d="M156.64 113.891C156.867 115.334 156.744 116.81 156.281 118.196C153.411 123.462 155.98 124.065 153.569 126.663C152.665 127.653 152.249 126.06 152.407 125.902C153.67 124.596 152.837 122.903 153.311 121.497C153.784 120.09 153.569 118.54 154.918 117.536C155.262 117.278 155.176 116.101 155.162 114.164C155.148 112.226 156.64 113.79 156.64 113.891Z" fill="#001B62"/>
<path d="M98.1917 114.896C99.6267 115.269 99.7702 116.23 99.6267 117.407C99.5406 117.981 100.086 118.985 100.1 119.158C100.215 120.593 100.301 121.941 100.43 123.319C100.43 123.62 100.703 123.893 100.76 124.194C101.349 127.064 101.148 126.419 100.473 127.064C100.258 126.835 99.8563 126.62 99.8706 126.404C99.8706 124.969 98.6365 124.108 98.9235 122.516C99.2105 120.923 97.6607 118.655 97.9477 117.766C98.1246 117.429 98.1604 117.035 98.0474 116.672C97.9344 116.309 97.6817 116.005 97.345 115.828C96.6131 115.34 96.8571 114.063 97.6463 113.518C97.8879 113.419 98.1458 113.365 98.4069 113.36C98.5648 114.479 98.5791 114.092 98.1917 114.896Z" fill="#001B62"/>
<path d="M217.054 96.3695C215.856 97.5489 214.469 98.519 212.95 99.2396C211.156 99.6127 210.281 98.479 212.448 96.1256C213.264 95.2718 214.035 94.3761 214.758 93.4421C214.981 93.0315 215.305 92.6843 215.699 92.4333C216.093 92.1823 216.545 92.0356 217.011 92.0071C218.389 92.0932 219.551 93.8152 217.054 96.3695Z" fill="#001B62"/>
<path d="M206.293 71.6584C207.254 72.95 205.934 73.2083 205.345 72.6343C204.358 71.6456 203.172 70.8784 201.866 70.3836C200.56 69.8887 199.163 69.6776 197.769 69.7642C196.821 69.7642 195.889 70.1804 194.899 70.2808C192.703 70.4817 193.808 68.8458 194.124 68.7023C196.172 67.6661 198.523 67.3945 200.753 67.9364C202.984 68.4782 204.948 69.798 206.293 71.6584Z" fill="#001B62"/>
<path d="M181.782 68.1428C182.054 68.645 181.179 69.6639 180.275 68.9033C179.256 67.8526 177.912 67.1772 176.461 66.9871C175.01 66.7969 173.537 67.103 172.282 67.8558C170.301 68.8172 169.986 67.3966 171.607 66.5786C175.683 64.4978 179.572 64.1247 181.782 68.1428Z" fill="#001B62"/>
<path d="M178.653 96.5704C178.278 96.3333 177.944 96.0377 177.662 95.6951C177.261 95.1354 177.662 94.4036 178.423 94.6619C179.858 95.1067 182.958 98.3499 188.999 96.1973C190.563 95.6377 190.29 97.3453 189.63 97.6323C186.459 98.766 182.857 99.5122 178.653 96.5704Z" fill="#001B62"/>
<path d="M192.901 78.8336C193.418 77.6856 193.92 76.5806 194.509 75.5187C194.982 74.6721 196.632 75.2317 196.69 76.2219C196.838 78.0505 196.295 79.8682 195.169 81.3162C193.949 82.7799 192.055 80.5843 192.901 78.8336Z" fill="#001B62"/>
<path d="M184.852 81.4166C185.613 83.8992 182.843 85.7217 180.935 86.9988C180.854 87.056 180.792 87.1357 180.756 87.228C180.721 87.3203 180.713 87.4211 180.735 87.5176C180.756 87.6142 180.806 87.7022 180.877 87.7708C180.948 87.8393 181.038 87.8853 181.136 87.9029C181.954 88.0751 182.7 88.2186 183.432 88.4338C185.01 88.8787 183.848 89.8689 183.202 89.7684C182.124 89.64 181.067 89.3698 180.059 88.9648C179.747 88.8909 179.466 88.7189 179.258 88.474C179.05 88.2292 178.926 87.9242 178.903 87.6037C178.881 87.2832 178.961 86.9639 179.133 86.6924C179.305 86.421 179.559 86.2116 179.859 86.0948C180.834 85.406 183.877 84.6598 184.049 81.2588C184.077 80.6561 184.451 80.1538 184.852 81.4166Z" fill="#001B62"/>
<path d="M174.548 74.3852C175.294 72.8067 177.102 73.926 177.116 74.9736C177.073 76.1354 176.865 77.2853 176.499 78.3889C175.681 81.2159 172.352 79.0777 174.548 74.3852Z" fill="#001B62"/>
<path d="M126.965 150.584C126.592 157.759 126.42 162.38 125.889 165.623C125.544 167.718 123.937 166.685 123.837 165.753C123.507 163.026 123.234 160.299 123.09 157.544C121.153 120.406 121.483 128.471 122.344 119.933C122.35 119.567 122.476 119.214 122.703 118.928C123.177 118.469 123.736 117.866 124.31 117.823C124.884 117.78 125.487 118.44 125.659 118.942C128.328 126.806 128.17 127.883 126.965 150.584ZM123.406 120.449C122.143 129.648 122.947 134.957 123.708 146.882C124.138 153.569 123.708 157.731 124.339 164.475C124.54 166.857 124.884 166.226 125.013 164.605C126.893 140.625 127.008 134.943 126.176 123.692C126.019 122.486 125.695 121.308 125.214 120.191C124.339 117.823 123.55 119.531 123.406 120.42V120.449Z" fill="#001B62"/>
<path d="M114.293 165.838C111.236 156.999 110.992 154.444 109.629 142.648C108.194 129.647 107.993 129.819 108.467 123.993C108.467 123.304 110.131 121.769 110.633 123.893C111.408 127.179 112.269 130.465 112.757 133.809C115.068 149.938 116 162.509 116.216 164.776C116.431 167.044 114.623 166.8 114.293 165.838ZM109.414 124.625C108.495 132.245 113.274 165.078 115.01 164.805C115.076 164.792 115.135 164.756 115.177 164.703C115.219 164.651 115.241 164.585 115.24 164.518C115.262 164.222 115.262 163.925 115.24 163.628C110.935 125.873 111.265 129.819 110.088 124.754C109.816 123.634 109.514 123.706 109.414 124.625Z" fill="#001B62"/>
<path d="M131.901 164.016C133.896 154.201 137.957 136.751 139.951 128.141C140.356 126.58 140.899 125.057 141.573 123.592C141.788 123.133 142.534 122.501 142.864 122.602C143.467 122.76 144.386 123.391 144.4 123.85C144.572 128.155 145.089 125.013 135.474 162.596C135.192 163.653 134.822 164.685 134.369 165.681C134.025 166.47 133.652 167.589 132.547 167.216C132.188 167.188 131.456 166.169 131.901 164.016ZM133.824 164.648C136.034 157.171 135.905 158.176 142.979 129.016C143.267 127.669 143.454 126.302 143.539 124.926C143.539 124.022 142.75 122.372 141.817 125.371C140.382 130.064 141.056 126.534 132.877 163.399C132.202 166.484 132.949 167.618 133.824 164.662V164.648Z" fill="#001B62"/>
<path d="M105.023 113.231C137.683 112.14 124.654 112.269 146.882 112.829C148.719 112.829 149.465 112.628 149.451 113.116C149.436 113.604 152.048 113.346 105.051 113.833C104.391 113.92 103.114 113.288 105.023 113.231Z" fill="#001B62"/>
<path d="M209.29 196.361C197.982 197.38 196.748 196.978 185.426 195.443C185.143 195.423 184.868 195.34 184.622 195.199C184.106 194.797 183.79 194.123 184.866 194.238C189.745 194.754 194.595 195.486 199.489 195.759C202.947 195.96 206.449 195.572 209.936 195.443C211.887 195.371 210.869 196.218 209.29 196.361Z" fill="#001B62"/>
<path d="M130.911 191.181C130.911 195.687 127.74 198.629 122.86 198.729C118.455 198.815 116.259 194.811 116.073 191.396C116.01 190.39 116.154 189.382 116.496 188.434C116.837 187.485 117.369 186.617 118.058 185.881C118.748 185.146 119.58 184.56 120.505 184.158C121.43 183.757 122.427 183.549 123.434 183.547C125.411 183.65 127.276 184.492 128.661 185.906C130.046 187.32 130.849 189.203 130.911 191.181ZM123.377 197.208C127.28 197.108 129.777 194.654 129.648 191.037C129.497 189.487 128.796 188.042 127.672 186.963C126.548 185.884 125.076 185.242 123.521 185.154C121.934 185.236 120.437 185.912 119.325 187.047C118.214 188.182 117.571 189.694 117.522 191.281C117.533 192.837 118.151 194.328 119.245 195.435C120.339 196.542 121.821 197.178 123.377 197.208Z" fill="#001B62"/>
<path d="M73.4951 172.54L72.3615 173.329L71.9453 173.013C72.2382 172.378 72.6147 171.784 73.0646 171.248C73.2368 171.076 73.9256 171.535 74.3992 171.578C74.8347 171.649 75.2813 171.599 75.6907 171.435C75.8953 171.262 76.1323 171.131 76.3879 171.05C76.6436 170.969 76.9127 170.94 77.1797 170.964C77.4468 170.988 77.7064 171.065 77.9435 171.19C78.1805 171.315 78.3904 171.486 78.5607 171.693C78.7686 171.837 79.0108 171.923 79.2628 171.944C79.5148 171.964 79.7676 171.917 79.9957 171.808C81.1581 171.019 82.2057 170.631 83.3824 171.722C83.655 171.98 84.8174 171.593 85.1474 171.722C85.8506 172.038 86.5825 172.755 87.2282 171.722C87.4291 171.894 87.8166 172.109 87.8022 172.267C87.7867 172.481 87.7189 172.687 87.605 172.868C87.491 173.049 87.3343 173.199 87.1486 173.306C86.963 173.412 86.7541 173.471 86.5402 173.477C86.3264 173.484 86.1142 173.438 85.9223 173.343C84.0281 172.382 83.7985 173.602 82.507 172.439C81.9617 171.952 81.5743 172.066 81.072 172.439C79.4217 173.587 79.3213 173.544 77.5419 172.439C77.3561 172.374 77.1582 172.35 76.9622 172.37C76.7662 172.39 76.577 172.453 76.4082 172.554C76.0123 172.924 75.4903 173.128 74.9488 173.125C74.4074 173.123 73.8874 172.913 73.4951 172.54Z" fill="#001B62"/>
<path d="M82.5634 166.47C83.0161 166.126 83.496 165.819 83.9984 165.552C84.1015 165.512 84.2151 165.509 84.3204 165.542C84.4258 165.575 84.5168 165.643 84.5784 165.735C84.6401 165.827 84.6688 165.936 84.6599 166.047C84.651 166.157 84.605 166.261 84.5294 166.341C82.9365 167.776 82.8648 167.776 81.3293 166.973C81.119 166.837 80.8823 166.748 80.6349 166.711C80.3875 166.674 80.1351 166.689 79.8943 166.757C77.7274 167.862 77.7418 167.905 75.6753 166.384C75.3512 166.78 74.9961 167.15 74.6134 167.489C74.3695 167.676 73.8529 167.877 73.695 167.762C73.4171 167.491 73.2314 167.14 73.1641 166.757C73.1641 166.671 73.6089 166.513 73.7811 166.312C75.1157 164.734 76.4215 164.677 77.7561 166.312C77.8547 166.368 77.9659 166.397 78.079 166.397C78.1921 166.397 78.3032 166.368 78.4019 166.312C78.6716 166.024 79.0003 165.797 79.3655 165.647C79.7307 165.496 80.124 165.426 80.5187 165.441C80.9134 165.456 81.3002 165.556 81.653 165.733C82.0058 165.911 82.3163 166.162 82.5634 166.47Z" fill="#001B62"/>
<path d="M84.5445 177.376C83.5544 178.166 82.4924 178.969 81.4879 177.721L80.2969 177.936C80.2969 177.563 80.2969 177.061 80.4404 176.86C80.597 176.706 80.7835 176.586 80.9884 176.507C81.1932 176.428 81.4121 176.392 81.6314 176.4C82.0189 176.4 82.3346 176.888 82.7364 177.19C82.8799 177.104 84.5158 175.999 84.7454 176.243C85.8791 177.434 87.7015 176.63 88.907 177.678C88.1464 178.682 85.9508 178.539 84.5445 177.376Z" fill="#001B62"/>
<path d="M212.217 47.8802C208.319 49.2538 204.545 50.9581 200.937 52.9745C200.607 53.1611 200.478 53.5342 200.134 53.979C200.11 54.011 200.095 54.049 200.092 54.0888C200.088 54.1286 200.096 54.1687 200.114 54.2044C200.131 54.2402 200.159 54.2703 200.193 54.2913C200.227 54.3123 200.266 54.3234 200.306 54.3234C200.464 54.3234 200.593 54.2373 213.881 48.6838C216.12 47.7798 214.312 47.0335 212.217 47.8802Z" fill="#001B62"/>
<path d="M215.188 78.4894C214.671 78.5755 214.714 78.5611 214.097 80.8715C213.997 81.2446 213.739 81.833 214.097 81.833C215.331 81.833 217.297 78.1019 215.188 78.4894Z" fill="#001B62"/>
<path d="M212.863 78.2452C213.308 78.7474 214.829 75.9348 213.839 74.4424C213.423 73.811 211.715 76.8819 212.863 78.2452Z" fill="#001B62"/>
<path d="M210.983 70.9696C210.309 70.9696 210.194 71.3571 209.835 72.5768C209.577 73.4522 209.52 73.5096 209.606 73.6387C209.745 73.8997 209.919 74.141 210.122 74.3563C210.309 74.5572 210.869 74.2558 210.94 74.0118C211.156 73.2513 211.342 72.462 211.5 71.6728C211.557 71.4145 211.199 70.9122 210.983 70.9696Z" fill="#001B62"/>
<path d="M203.364 67.6546C203.389 67.6814 203.42 67.7013 203.455 67.7125C203.49 67.7237 203.527 67.7258 203.563 67.7186C203.599 67.7114 203.633 67.6952 203.661 67.6714C203.688 67.6477 203.71 67.6172 203.723 67.5829C204.034 67.0642 204.191 66.4675 204.176 65.8627C204.161 65.2579 203.974 64.6699 203.637 64.1676C203.235 63.6366 201.757 65.9757 203.364 67.6546Z" fill="#001B62"/>
<path d="M187.808 60.1352C187.593 59.9343 186.861 60.0347 186.804 60.3218C186.646 61.1397 186.531 62.0151 186.388 63.1057C186.378 63.1433 186.379 63.183 186.391 63.22C186.403 63.257 186.426 63.2896 186.456 63.314C186.487 63.3383 186.523 63.3533 186.562 63.357C186.601 63.3608 186.64 63.3533 186.675 63.3353C187.765 62.8617 188.368 60.6949 187.808 60.1352Z" fill="#001B62"/>
<path d="M206.607 66.5495C206.473 66.5979 206.356 66.6852 206.272 66.8002C206.188 66.9152 206.14 67.0528 206.134 67.1953C206.134 67.7693 206.249 68.1998 206.449 69.477C206.454 69.5145 206.469 69.5501 206.492 69.5802C206.515 69.6102 206.545 69.6337 206.58 69.6483C206.615 69.6628 206.653 69.6679 206.691 69.663C206.728 69.6582 206.764 69.6435 206.794 69.6205C207.203 69.3353 207.488 68.9043 207.589 68.4159C207.691 67.9276 207.601 67.4189 207.339 66.9944C207.285 66.8485 207.184 66.7252 207.051 66.6444C206.918 66.5636 206.762 66.5302 206.607 66.5495Z" fill="#001B62"/>
<path d="M173.199 60.8529C172.798 60.7524 172.525 60.6089 172.41 60.8529C171.406 62.4888 171.506 63.0341 171.75 63.7229C171.75 63.8807 171.965 63.8807 172.382 63.9812C172.409 63.9898 172.438 63.9924 172.466 63.9889C172.495 63.9855 172.522 63.9759 172.547 63.961C172.571 63.946 172.592 63.926 172.608 63.9022C172.624 63.8785 172.635 63.8516 172.64 63.8233C173.286 61.3551 173.515 60.939 173.199 60.8529Z" fill="#001B62"/>
<path d="M195.485 65.2295C195.518 65.2471 195.555 65.2563 195.593 65.2563C195.63 65.2563 195.667 65.2471 195.7 65.2295C195.858 65.2295 195.815 65.2295 196.074 62.2017C196.059 62.1768 196.039 62.1551 196.016 62.1379C195.993 62.1208 195.966 62.1085 195.938 62.1018C195.91 62.0951 195.881 62.0941 195.852 62.099C195.824 62.1038 195.797 62.1143 195.772 62.1299C194.524 63.1631 194.165 64.2537 195.485 65.2295Z" fill="#001B62"/>
<path d="M190.835 63.8377C190.871 63.8284 190.904 63.8104 190.932 63.7854C190.959 63.7604 190.98 63.7292 190.993 63.6943C191.84 61.5274 191.137 60.7238 190.405 60.4368C190.37 60.4217 190.333 60.4158 190.296 60.4196C190.259 60.4234 190.223 60.4368 190.193 60.4585C190.162 60.4803 190.138 60.5095 190.122 60.5434C190.107 60.5774 190.1 60.6148 190.103 60.652C190.204 61.6135 189.673 62.7328 190.634 63.766C190.659 63.7933 190.691 63.8141 190.726 63.8266C190.761 63.8391 190.798 63.8429 190.835 63.8377Z" fill="#001B62"/>
<path d="M215.576 85.5924C215.588 85.6353 215.615 85.6727 215.652 85.6987C215.688 85.7247 215.732 85.7378 215.777 85.7359C215.992 85.7359 215.891 85.822 217.212 82.5502C217.231 82.51 217.237 82.4649 217.23 82.421C217.222 82.3772 217.201 82.3367 217.17 82.3052C217.138 82.2738 217.098 82.2528 217.054 82.2453C217.01 82.2378 216.965 82.244 216.925 82.2632C216.603 82.3741 216.309 82.5526 216.061 82.7868C215.814 83.021 215.621 83.3054 215.493 83.6209C215.365 83.9364 215.306 84.2756 215.32 84.6157C215.335 84.9558 215.422 85.2888 215.576 85.5924Z" fill="#001B62"/>
<path d="M180.762 60.1208C180.728 60.0991 180.688 60.0876 180.647 60.0876C180.607 60.0876 180.567 60.0991 180.532 60.1208C179.743 60.7092 179.356 61.3262 179.399 61.8859C179.442 62.4455 180.446 63.3209 180.518 62.8043C180.891 60.1926 180.949 60.2356 180.762 60.1208Z" fill="#001B62"/>
<path d="M178.323 60.4943C177.663 60.3508 177.462 60.2504 177.405 60.4943C176.974 62.4173 176.788 62.7186 177.103 62.7904C178.251 63.0487 177.921 63.307 178.538 60.7383C178.542 60.7077 178.54 60.6766 178.531 60.6471C178.522 60.6176 178.507 60.5903 178.486 60.5672C178.466 60.544 178.441 60.5256 178.413 60.513C178.384 60.5004 178.354 60.4941 178.323 60.4943Z" fill="#001B62"/>
<path d="M198.298 65.6032C198.585 65.6032 198.513 65.4166 198.757 63.2498C198.757 62.9628 198.527 63.0058 197.939 62.9915C197.81 62.9915 197.709 62.9915 197.709 63.2067C197.709 65.8758 197.551 65.6032 198.298 65.6032Z" fill="#001B62"/>
<path d="M121.267 174.061C121.225 174.064 121.185 174.08 121.152 174.105C121.119 174.131 121.094 174.166 121.08 174.205C121.066 174.245 121.065 174.288 121.075 174.328C121.085 174.369 121.107 174.406 121.138 174.434C122.229 175.467 127.524 175.553 128.5 174.549C128.564 174.526 128.617 174.478 128.647 174.417C128.676 174.355 128.68 174.284 128.657 174.219C128.635 174.154 128.587 174.101 128.525 174.072C128.463 174.042 128.392 174.038 128.327 174.061C125.983 173.772 123.612 173.772 121.267 174.061Z" fill="#001B62"/>
<path d="M199.661 161.376C195.7 160.333 191.65 159.66 187.564 159.367C187.538 159.363 187.511 159.364 187.485 159.37C187.459 159.377 187.434 159.388 187.413 159.404C187.392 159.42 187.374 159.441 187.36 159.464C187.347 159.487 187.338 159.512 187.334 159.539C187.263 159.998 187.176 160.213 187.435 160.256C191.065 160.859 199.675 162.251 199.532 162.251C199.762 162.251 199.747 162.021 199.819 161.62C199.825 161.567 199.812 161.514 199.784 161.469C199.755 161.425 199.712 161.392 199.661 161.376Z" fill="#001B62"/>
<path d="M214.958 137.784C214.923 137.779 214.888 137.782 214.855 137.793C214.822 137.805 214.792 137.824 214.768 137.849C214.744 137.875 214.726 137.906 214.717 137.939C214.707 137.973 214.706 138.008 214.714 138.043C215.073 139.664 214.714 139.765 216.709 139.349C216.996 139.349 217.412 139.349 217.354 138.99C217.168 138.186 217.039 138.186 214.958 137.784Z" fill="#001B62"/>
<path d="M211.701 157.272C211.47 157.557 211.314 157.895 211.246 158.256C211.178 158.617 211.201 158.989 211.314 159.338C211.325 159.375 211.348 159.407 211.379 159.43C211.41 159.453 211.447 159.466 211.486 159.467C211.52 159.464 211.553 159.453 211.583 159.435C211.612 159.418 211.638 159.395 211.658 159.367C213.94 156.267 213.882 156.497 213.796 156.253C213.71 156.009 212.361 156.325 211.701 157.272Z" fill="#001B62"/>
<path d="M218.732 121.842C217.297 121.655 216.565 122.329 216.738 123.736C216.747 123.787 216.774 123.833 216.813 123.866C216.852 123.9 216.901 123.92 216.953 123.922C217.111 123.922 217.068 123.922 218.847 122.215C218.878 122.187 218.9 122.152 218.91 122.112C218.921 122.072 218.921 122.031 218.909 121.991C218.897 121.952 218.874 121.917 218.842 121.891C218.811 121.864 218.773 121.847 218.732 121.842Z" fill="#001B62"/>
<path d="M215.546 122.401C215.546 122.559 215.632 122.602 216.034 122.874C216.436 123.147 216.336 122.874 217.627 121.009C217.652 120.976 217.667 120.936 217.67 120.895C217.673 120.854 217.664 120.813 217.645 120.777C217.625 120.74 217.595 120.71 217.559 120.691C217.523 120.671 217.482 120.662 217.441 120.664C217.197 120.627 216.948 120.646 216.712 120.717C216.476 120.789 216.26 120.913 216.078 121.08C215.896 121.246 215.754 121.451 215.662 121.68C215.57 121.908 215.531 122.155 215.546 122.401Z" fill="#001B62"/>
<path d="M174.793 147.312C174.773 147.291 174.749 147.273 174.722 147.261C174.694 147.25 174.665 147.243 174.635 147.243C174.606 147.243 174.576 147.25 174.549 147.261C174.522 147.273 174.498 147.291 174.478 147.312C173.746 148.03 173.602 147.628 174.851 149.436C175.052 149.709 175.367 149.321 175.798 148.991C176.228 148.661 175.798 148.604 174.793 147.312Z" fill="#001B62"/>
<path d="M181.278 137.124C181.253 137.089 181.218 137.062 181.177 137.048C181.136 137.033 181.092 137.031 181.05 137.042C181.009 137.053 180.971 137.076 180.943 137.109C180.914 137.141 180.896 137.181 180.891 137.224C180.704 138.401 180.891 139.391 182.039 139.391C182.24 139.391 182.555 139.391 182.627 139.233C182.699 139.075 182.699 139.161 181.278 137.124Z" fill="#001B62"/>
<path d="M16.3947 188.01C15.971 188.685 15.5969 189.39 15.2754 190.119C15.0458 190.622 15.5193 191.052 16.0216 191.052C16.5239 191.052 16.5813 190.779 17.3562 189.244C17.6145 188.742 17.7149 188.656 17.6575 188.512C17.3275 187.594 16.6817 187.622 16.3947 188.01Z" fill="#001B62"/>
<path d="M21.7332 190.32C19.2363 190.564 19.3941 193.936 19.9825 193.979C20.1977 193.979 19.9825 194.209 21.9485 190.636C21.9671 190.601 21.9759 190.562 21.9739 190.522C21.9718 190.483 21.959 190.445 21.9368 190.412C21.9145 190.38 21.8838 190.354 21.8479 190.338C21.812 190.321 21.7723 190.315 21.7332 190.32Z" fill="#001B62"/>
<path d="M25.0058 193.104C24.964 193.106 24.9236 193.119 24.8884 193.142C24.8533 193.165 24.8245 193.196 24.8049 193.233C23.4847 196.39 23.3699 196.103 24.1735 196.304C24.205 196.318 24.2393 196.325 24.2739 196.325C24.3086 196.325 24.3428 196.318 24.3744 196.304C24.8754 195.999 25.2408 195.514 25.3956 194.948C25.5503 194.383 25.4828 193.779 25.2067 193.262C25.1926 193.218 25.166 193.18 25.1302 193.152C25.0945 193.124 25.0511 193.107 25.0058 193.104Z" fill="#001B62"/>
<path d="M15.8649 199.375C15.7644 198.758 14.516 198.901 14.6451 199.662C14.6451 200.15 14.8317 200.623 14.9465 201.097C15.1474 201.901 15.0182 201.771 15.8649 201.7C16.1088 201.7 16.0658 201.47 16.0227 200.968C15.9797 200.466 15.9366 199.892 15.8649 199.375Z" fill="#001B62"/>
<path d="M20.4713 199.002C19.6533 199.002 19.8399 198.657 19.7251 201.384C19.7231 201.413 19.7272 201.443 19.7372 201.47C19.7471 201.498 19.7626 201.524 19.7828 201.545C19.803 201.567 19.8274 201.584 19.8545 201.596C19.8816 201.607 19.9108 201.613 19.9403 201.613C20.9018 201.613 20.6722 201.9 20.6722 199.217C20.6723 199.162 20.6516 199.109 20.6143 199.069C20.577 199.029 20.5259 199.005 20.4713 199.002Z" fill="#001B62"/>
<path d="M122.587 188.239C122.587 187.479 123.649 187.708 123.721 188.239C123.936 189.875 124.122 191.511 124.237 193.161C124.237 194.18 122.96 193.965 122.802 193.319C122.499 191.643 122.426 189.934 122.587 188.239Z" fill="#001B62"/>
</svg>
