<svg width="256" height="281" viewBox="0 0 256 281" fill="none" xmlns="http://www.w3.org/2000/svg">
<path d="M101.128 120.347C103.297 118.208 102.928 118.872 102.928 117.396C102.659 117.378 102.402 117.281 102.187 117.119C101.972 116.956 101.809 116.735 101.718 116.481C101.084 116.481 100.833 116.57 100.803 116.171C100.139 116.171 99.9473 115.921 99.8883 115.257C99.2243 115.257 99.0177 115.257 98.9734 114.961C98.147 114.961 98.5455 114.755 97.8372 115.95C97.6601 116.245 97.8372 116.644 97.5273 116.909C97.2174 117.175 97.7781 118.916 97.1584 118.916C97.1584 123.712 97.1584 123.609 96.9223 123.918C96.8671 124.803 96.8671 125.69 96.9223 126.575C96.9223 126.929 96.6271 126.486 96.6271 127.43C96.7209 127.465 96.802 127.527 96.8592 127.609C96.9164 127.691 96.9472 127.788 96.9472 127.888C96.9472 127.988 96.9164 128.085 96.8592 128.167C96.802 128.249 96.7209 128.311 96.6271 128.345C96.6271 132.241 96.2877 131.09 97.5125 132.462V132.61C97.5125 132.669 97.8224 132.698 97.8224 132.905C99.7112 132.905 99.298 133.51 99.298 129.954C99.298 129.127 98.8111 129.305 99.2095 128.936C99.6079 128.567 99.0619 128.109 99.6079 128.109C99.6079 127.445 99.5194 127.239 99.903 127.194C99.903 125.601 99.7998 125.379 100.213 125.379C100.213 122.428 100.641 123.24 100.538 122.605C100.478 122.413 100.472 122.208 100.522 122.012C100.571 121.817 100.674 121.639 100.818 121.498C101.069 121.262 100.582 121.071 101.128 120.805C101.113 120.628 101.054 120.421 101.128 120.347Z" fill="#D5DBF2"/>
<path d="M234.363 167.228C234.601 168.237 234.922 169.224 235.323 170.179C236.09 169.206 234.983 160.75 234.083 160.263C233.183 159.776 233.08 160.485 233.183 160.868C233.467 163.007 233.861 165.13 234.363 167.228Z" fill="#D5DBF2"/>
<path d="M187.51 208.162C188.336 208.31 217.805 184.98 217.952 184.847C223.161 179.328 236.501 176.672 232.251 166.446C230.908 160.057 231.661 162.772 230.776 162.772C230.687 163.938 190.55 199.515 186.846 199.589C185.99 201.478 187.879 204.798 187.51 208.162Z" fill="#D5DBF2"/>
<path d="M235.321 170.785C235.424 170.785 234.805 171.375 235.321 171.671C235.321 173.854 235.838 172.822 234.701 174.622C234.554 174.622 188.544 210.539 188.485 210.686C183.143 210.686 171.485 205.138 165.214 202.924C165.878 203.81 180.959 211.158 186.625 212.929C187.791 213.298 188.012 213.254 189.222 212.28C193.649 208.768 228.474 184.036 234.775 175.61C235.613 174.561 236.126 173.289 236.251 171.951C236.066 171.477 235.742 171.071 235.321 170.785Z" fill="#D5DBF2"/>
<path d="M179.721 206.539C182.2 207.454 183.675 207.749 184.443 207.395C185.726 206.804 185.062 204.443 183.793 200.016C179.573 198.098 177.035 198.777 172.165 194.438C171.678 194.438 131.379 178.989 129.947 176.554C126.435 175.078 121.92 179.048 119.087 177.085C117.611 176.082 120.356 173.986 120.356 171.182C120.238 171.182 116.386 169.869 114.985 169.323C114.143 168.999 113.981 168.762 112.727 169.943C107.857 174.517 99.1362 176.155 104.862 168.01L105.068 166.062C103.946 165.98 102.818 166.02 101.704 166.18C101.586 166.298 101.704 173.381 101.704 173.411C101.925 175.432 102.132 175.344 103.416 175.845C103.563 175.978 173.936 204.443 179.721 206.539Z" fill="#D5DBF2"/>
<path d="M139.14 17.3186C139.147 17.3596 139.145 17.4017 139.133 17.4416C139.121 17.4815 139.1 17.518 139.071 17.5482C139.042 17.5783 139.007 17.6013 138.967 17.6153C138.928 17.6292 138.886 17.6337 138.845 17.6285C138.845 18.2925 138.594 18.4843 137.93 18.5434C137.93 18.7795 138.048 19.1188 137.62 19.1484C137.659 19.3497 137.618 19.5585 137.505 19.7296C137.392 19.9008 137.216 20.0206 137.015 20.0633C137.02 20.1051 137.015 20.1474 137.001 20.1872C136.987 20.2269 136.965 20.263 136.935 20.2928C136.905 20.3225 136.869 20.3452 136.829 20.3591C136.789 20.373 136.747 20.3778 136.705 20.3731C136.71 20.413 136.706 20.4535 136.692 20.4915C136.679 20.5294 136.658 20.5639 136.629 20.5923C136.601 20.6207 136.566 20.6423 136.528 20.6555C136.49 20.6686 136.45 20.673 136.41 20.6683C136.41 20.9044 136.528 21.2438 136.1 21.2733C136.108 21.3143 136.105 21.3564 136.093 21.3963C136.081 21.4362 136.06 21.4727 136.031 21.5029C136.002 21.533 135.967 21.556 135.928 21.57C135.888 21.5839 135.846 21.5884 135.805 21.5832C135.805 21.8193 135.923 22.1587 135.495 22.1882C135.5 22.23 135.495 22.2724 135.481 22.3121C135.467 22.3518 135.445 22.3879 135.415 22.4177C135.385 22.4474 135.349 22.4701 135.309 22.484C135.27 22.498 135.227 22.5027 135.185 22.498C135.19 22.5385 135.185 22.5795 135.172 22.6181C135.159 22.6566 135.138 22.6919 135.11 22.7214C135.082 22.7509 135.047 22.7739 135.009 22.7889C134.972 22.8038 134.931 22.8103 134.89 22.8079C134.929 23.0075 134.887 23.2144 134.774 23.3832C134.661 23.552 134.485 23.6688 134.285 23.7081C134.285 23.9442 134.403 24.2836 133.975 24.3278C134.014 24.5274 133.973 24.7343 133.859 24.9031C133.746 25.0719 133.57 25.1887 133.37 25.228C133.37 26.3937 133.119 25.9215 132.544 27.1463C132.382 27.5004 132.544 28.0612 131.836 28.2825C131.836 28.5186 131.968 28.8433 131.541 28.8875C131.541 29.4483 131.541 29.4483 130.936 29.4925V30.0976C131.127 30.3089 131.329 30.5108 131.541 30.7026C131.747 30.7026 131.836 30.8059 131.836 31.0124C132.278 31.0124 132.116 31.3814 132.146 31.6175C132.187 31.6128 132.23 31.6175 132.269 31.6315C132.309 31.6454 132.345 31.6681 132.375 31.6978C132.405 31.7276 132.428 31.7637 132.441 31.8034C132.455 31.8431 132.46 31.8855 132.455 31.9273C132.66 32.0099 132.846 32.1337 133.001 32.2911C133.156 32.4485 133.276 32.6361 133.356 32.8422C133.798 32.8422 133.636 33.2111 133.665 33.4472C133.871 33.5318 134.057 33.6562 134.214 33.8132C134.371 33.9702 134.496 34.1568 134.58 34.3621C135.008 34.3621 134.846 34.731 134.89 34.9671C135.171 35.0852 135.023 34.8343 135.495 35.882C135.696 35.9247 135.872 36.0445 135.985 36.2156C136.098 36.3868 136.14 36.5956 136.1 36.7969C136.454 36.7969 136.41 37.0625 136.41 37.4019C136.451 37.3967 136.493 37.4012 136.533 37.4151C136.572 37.4291 136.607 37.4521 136.636 37.4822C136.665 37.5124 136.686 37.5489 136.698 37.5888C136.71 37.6287 136.713 37.6708 136.705 37.7118C137 37.7118 137.03 37.8889 137.015 38.066C138.919 35.1147 145.5 22.439 145.957 21.9078C146.179 21.6274 146.474 20.7716 145.751 20.4322C143.833 19.6648 141.206 16.6545 140.055 16.6545C140.041 16.7592 140.005 16.8599 139.951 16.9506C139.897 17.0413 139.825 17.12 139.739 17.1821C139.654 17.2441 139.557 17.2882 139.454 17.3117C139.351 17.3351 139.244 17.3375 139.14 17.3186Z" fill="#D5DBF2"/>
<path d="M87.2715 113.47C88.2749 113.47 88.1421 112.924 88.6438 113.323C89.1455 113.721 88.8799 114.238 88.6438 114.503C88.4077 114.769 88.6438 115.138 89.0274 114.946C89.4111 114.754 89.9866 114.444 90.5031 114.193C92.3034 113.249 90.326 117.794 92.1263 115.876C93.0117 114.931 94.3102 116.156 94.0594 116.791C91.1081 124.582 110.291 85.6842 110.675 84.9021C111.059 84.12 112.667 82.2903 111.855 82.4378C110.991 82.4969 110.123 82.4969 109.258 82.4378C106.75 82.5706 109.258 80.3277 108.476 79.6046C108.284 79.4423 106.558 79.3242 106.351 78.9996C105.835 78.2175 106.942 77.6273 107.827 77.3174C108.712 77.0075 106.351 76.491 107.104 75.0597C107.724 73.9825 107.886 75.0597 109.317 75.163C109.317 74.7793 108.668 74.2628 108.491 73.525C108.314 72.7872 108.875 72.1674 109.509 72.4773C111.944 73.6431 110.498 74.9711 112.667 73.7906C114.261 72.92 114.762 76.3582 114.91 76.5353C115.058 76.7124 115.427 76.7419 115.412 76.314C115.412 75.5909 121.595 64.5089 120.99 63.8301C120.857 63.6825 118.038 57.0569 113.523 61.6904C111.354 63.9186 99.6077 87.3074 99.2831 87.3369C99.2831 87.7058 99.5044 89.0782 98.3682 89.1667C98.4863 90.8932 89.7358 108.114 87.478 112.098C87.3747 112.305 86.9616 113.456 87.2715 113.47Z" fill="#D5DBF2"/>
<path d="M137.59 133.274C134.639 133.171 132.204 135.399 130.772 136.816C123.217 144.356 125.829 144.061 126.242 144.829C126.39 144.829 149.542 154.066 157.673 158.36C157.821 158.434 179.232 167.125 181.372 168.247C181.519 168.247 181.814 150.953 181.711 150.805C181.121 149.92 142.238 133.437 137.59 133.274Z" fill="#D5DBF2"/>
<path d="M174.452 182.427C173.168 183.711 172.977 182.501 172.977 188.846C172.977 190.071 173.331 188.418 177.64 185.615C177.787 185.511 220.64 150.509 220.787 150.377C221.584 149.698 220.787 150.14 219.843 145.566C219.297 143.013 219.843 142.615 217.792 144.297C202.343 155.821 187.85 168.572 174.452 182.427Z" fill="#D5DBF2"/>
<path d="M220.567 123.166C215.122 125.94 186.627 150.111 184.724 150.008C182.141 151.705 183.558 152.59 183.573 154.966C183.573 157.076 183.824 160.868 183.853 164.985C183.853 166.461 183.012 167.302 185.181 165.723C185.329 165.62 221.777 138.483 221.91 138.335C222.206 138.064 222.442 137.733 222.602 137.365C222.763 136.996 222.843 136.598 222.839 136.196C222.839 132.448 223.164 127.032 221.659 123.609C221.452 123.136 221.777 122.561 220.567 123.166Z" fill="#D5DBF2"/>
<path d="M224.949 132.757C224.845 135.856 224.683 137.066 224.639 137.405C225.398 136.912 226.002 136.213 226.38 135.39C226.759 134.568 226.897 133.655 226.778 132.757C226.631 131.975 224.845 128.33 224.949 129.525C224.963 129.806 225.008 130.691 224.949 132.757Z" fill="#D5DBF2"/>
<path d="M128.913 30.6736C129.946 29.7145 135.273 41.0031 136.882 38.2731C136.631 38.1698 132.248 31.3082 129.99 29.9653C129.843 29.9653 128.899 29.9948 128.913 30.6736Z" fill="#8495C0"/>
<path d="M142.46 11.4909C142.637 6.28188 143.936 -0.99299 148.982 1.05814C154.029 3.10927 156.759 7.04921 157.069 9.63157C157.379 12.2139 152.302 18.1312 150.502 17.0983C148.702 16.0653 142.46 11.4909 142.46 11.4909Z" fill="#8495C0"/>
<path d="M141.928 50.2849C141.928 47.5107 139.109 42.0361 138.061 40.4719C136.143 44.6185 143.743 44.0725 139.124 58.1057C139.935 57.7221 142.001 54.6675 141.928 50.2849Z" fill="#8495C0"/>
<path d="M155.888 112.262C158.072 111.701 159.725 111.14 159.754 109.03C159.754 107.363 155.431 99.8958 155.327 99.7778C155.15 98.7153 156.375 97.5938 156.803 97.343C156.645 95.3067 156.147 93.3114 155.327 91.4404C155.003 90.6436 154.708 89.9648 154.885 89.5074C155.062 89.0499 155.947 88.9171 156.803 89.1089C160.315 89.8468 185.209 100.589 193.576 106.462C195.716 107.938 196.217 108.794 194.52 110.683C194.122 111.125 187.496 118.946 187.245 119.536C187.245 119.374 186.301 119.773 186.98 120.378C186.98 120.717 197.914 129.423 198.505 128.361C198.505 128.361 208.922 118.445 211.918 115.552C212.187 115.293 212.526 115.118 212.893 115.05C213.261 114.981 213.64 115.023 213.984 115.169C215.46 115.803 217.835 117.116 219.488 117.928C220.005 118.17 220.415 118.595 220.638 119.12C220.862 119.646 220.883 120.236 220.698 120.776C194.55 141.612 187.216 146.865 186.921 147.514C183.025 149.492 185.637 151.484 168.534 143.988C146.577 134.381 143.449 134.042 143.124 133.658C143.832 132.522 150.502 132.876 154.236 126.708C157.511 121.16 155.859 115.788 155.888 112.262Z" fill="#8495C0"/>
<path d="M122.097 95.5278C122.288 95.5278 125.048 99.6301 124.826 100.088C120.518 101.519 119.145 97.151 122.097 95.5278Z" fill="#8495C0"/>
<path d="M147.949 100.899C148.01 101.746 147.796 102.59 147.338 103.305C146.881 104.02 146.205 104.569 145.41 104.869C144.23 105.12 144.2 105.016 144.378 104.116C144.628 102.818 145.425 103.172 145.853 102.537C146.115 101.865 146.327 101.175 146.488 100.471C146.783 99.7335 147.875 100.501 147.949 100.899Z" fill="#8495C0"/>
<path d="M157.244 109.827C156.213 110.139 155.129 110.24 154.057 110.122C152.906 108.337 156.197 105.695 157.318 106.861C157.584 107.126 157.51 107.909 157.244 109.827Z" fill="#8495C0"/>
<path d="M141.573 109.826C141.536 109.443 141.58 109.056 141.701 108.69C141.822 108.324 142.017 107.988 142.276 107.702C142.534 107.416 142.849 107.187 143.2 107.029C143.552 106.872 143.933 106.789 144.318 106.787C146.472 106.787 148.361 108.631 146.738 110.018C146.295 110.387 144.952 109.812 141.573 109.826Z" fill="#8495C0"/>
<path d="M129.474 72.0946C129.474 72.3012 128.869 78.4841 128.869 78.4841C124.767 78.4841 124.442 74.5294 128.323 72.1979C128.618 71.9765 129.017 72.1684 129.474 72.0946Z" fill="#8495C0"/>
<path d="M98.9717 113.471C99.1045 113.471 103.841 103.747 103.841 103.747C107.53 107.849 108.711 107.554 111.219 107.421C114.318 107.259 112.429 109.074 112.4 109.222C109.685 109.222 108.15 116.187 102.705 116.187C102.676 115.892 98.9717 114.932 98.9717 113.471Z" fill="#8495C0"/>
<path d="M149.749 104.116C149.646 102.64 150.251 100.943 152.184 101.017C154.117 101.091 154.693 102.05 154.648 103.157C154.56 106.669 150.133 108.262 149.749 104.116Z" fill="#8495C0"/>
<path d="M113.891 95.5278C116.237 95.5278 117.447 96.8412 117.978 99.0841C118.982 103.363 117.801 103.511 116.163 104.249C111.161 104.942 113.891 101.371 113.891 95.5278Z" fill="#8495C0"/>
<path d="M116.192 86.8366C117.101 87.952 117.747 89.2585 118.08 90.6585C117.933 90.6585 114.864 93.6098 114.022 89.7436C113.447 86.9104 115.203 86.2464 116.192 86.8366Z" fill="#8495C0"/>
<path d="M123.025 106.477C122.686 104.101 123.984 103.053 125.607 103.526C126.021 103.621 126.411 103.8 126.753 104.051C127.095 104.302 127.383 104.621 127.598 104.986C127.814 105.352 127.952 105.758 128.006 106.179C128.059 106.6 128.026 107.028 127.909 107.436C127.511 107.569 126.168 106.713 123.025 106.477Z" fill="#8495C0"/>
<path d="M118.952 78.1599C118.569 77.1417 119.144 75.0463 120.767 74.9135C123.719 74.6922 123.527 78.8682 123.114 79.5175C122.773 79.7828 122.372 79.9604 121.946 80.0347C121.52 80.1091 121.083 80.0779 120.672 79.9439C120.262 79.8099 119.89 79.5772 119.59 79.2661C119.29 78.9551 119.071 78.5753 118.952 78.1599Z" fill="#8495C0"/>
<path d="M127.069 30.9393C126.022 29.9476 124.768 29.2003 123.398 28.7512C122.028 28.3022 120.575 28.1625 119.145 28.3422C103.046 30.4376 104.757 45.9612 103.975 52.9262C103.975 53.0738 101.954 62.8867 101.629 63.0933C101.629 63.964 102.027 63.6541 102.322 63.0933C102.618 62.5326 102.795 61.6177 103.4 61.9866C104.329 62.5769 103.798 65.9561 104.875 67.1808C104.979 67.3136 106.558 67.476 107.827 67.8891C108.402 67.7121 109.568 64.141 111.855 59.6108C112.977 58.7697 109.833 58.5336 107.886 48.2485C108.653 41.6967 104.093 49.1043 110.837 37.1517C112.224 36.709 114.688 39.1143 116.902 40.3243C119.901 41.7099 123.105 42.5971 126.39 42.9509C127.571 43.1723 127.733 43.3936 126.39 44.22C126.51 44.5302 126.653 44.8311 126.818 45.1201C127.143 44.825 127.379 44.5741 127.954 45.9907C134.536 46.2416 131.097 50.9931 128.22 55.1692C126.847 57.2351 132.868 63.8016 133.975 57.0875C132.676 51.0522 137.28 59.3157 138.859 56.4087C139.507 54.0553 139.658 51.5929 139.302 49.1781C138.815 46.3892 131.422 33.8906 127.069 30.9393Z" fill="#8495C0"/>
<path d="M187.644 238.871C188.573 238.015 189.119 237.395 186.729 236.156C186.286 237.262 186.817 238.236 184.914 240.169C173.212 252.092 161.171 264.355 148.318 274.965C145.101 277.621 27.8033 216.574 26.2244 212.309C26.1063 212.014 25.7669 212 25.6932 212.309C25.3685 213.505 24.0109 213.785 24.4979 214.862C24.8816 215.689 26.3719 216.943 30.4004 219.422C30.7988 219.422 131.555 271.217 142.548 274.935C154.029 278.787 145.234 279.657 157.083 271.32C164.521 266.022 187.496 239.004 187.644 238.871Z" fill="#8495C0"/>
<path d="M220.476 153.697C179.468 188.935 174.437 190.308 174.437 193.539C174.584 193.539 185.091 197.641 185.091 197.789C189.016 197.789 229.182 159.91 229.36 159.791C229.537 159.673 220.801 153.417 220.476 153.697Z" fill="#8495C0"/>
<path d="M62.3192 44.8993C62.096 44.808 61.8986 44.6634 61.7443 44.4782C61.5899 44.293 61.4833 44.0728 61.4338 43.8368C61.3811 43.5997 61.3843 43.3536 61.4432 43.1179C61.5021 42.8823 61.6151 42.6636 61.7732 42.4792L66.8493 36.5767C67.1178 36.2597 67.4738 36.029 67.8728 35.9135C68.2718 35.798 68.696 35.8029 69.0923 35.9274L76.7508 38.3179C77.359 38.4971 77.8748 38.9038 78.1909 39.4534C78.5069 40.0031 78.5989 40.6534 78.4478 41.2692L77.4296 45.6961C77.3886 45.9563 77.4029 46.2221 77.4716 46.4764C77.5402 46.7306 77.6617 46.9676 77.828 47.1717C77.9793 47.3895 78.1767 47.5713 78.4063 47.7039C78.6359 47.8366 78.8919 47.9169 79.1561 47.9391L80.2038 48.0571C80.7343 48.1319 81.2278 48.3716 81.6144 48.7424C82.0011 49.1131 82.2613 49.5962 82.3582 50.123L84.3651 58.298C84.4214 58.5235 84.414 58.7601 84.3436 58.9816C84.2733 59.2031 84.1428 59.4006 83.9667 59.5523C83.8016 59.6997 83.6055 59.8081 83.3928 59.8694C83.1802 59.9307 82.9565 59.9434 82.7382 59.9066C82.52 59.8698 82.3129 59.7843 82.1322 59.6566C81.9514 59.5288 81.8018 59.3621 81.6942 59.1686L80.0858 56.3797C79.862 55.9813 79.5158 55.6657 79.0984 55.4796C78.6811 55.2935 78.2149 55.2469 77.769 55.3467L72.7666 56.424C72.4151 56.4986 72.0502 56.4822 71.7068 56.3763C71.3633 56.2704 71.0526 56.0786 70.804 55.8189C70.5514 55.561 70.3707 55.2413 70.2801 54.8918C70.1895 54.5422 70.192 54.1751 70.2876 53.8268L71.0844 50.8756C71.2129 50.3933 71.1663 49.8811 70.9529 49.4299C70.7395 48.9787 70.373 48.6178 69.9187 48.4113L62.3192 44.8993Z" fill="#8495C0"/>
<path d="M4.90162 142.069C5.38031 141.566 5.71073 140.939 5.85652 140.26C6.00232 139.58 5.95784 138.874 5.72797 138.218C5.04918 136.314 4.09002 133.673 3.42599 132.094C2.30451 129.394 4.70979 129.615 6.22969 130.825C7.74959 132.035 10.5533 133.924 13.6079 132.035C16.6624 130.146 18.0347 128.567 19.0382 129.512C20.0416 130.456 17.2084 135.813 17.474 136.61C17.7396 137.406 24.7046 139.989 24.4095 142.291C24.1144 144.593 17.415 142.866 16.1755 143.973C14.9359 145.08 15.5557 151.986 13.3275 151.735C11.0993 151.484 12.0437 145.596 10.7451 145.39C9.44657 145.183 4.1638 149.389 2.43731 147.485C1.31583 146.275 3.32269 143.737 4.90162 142.069Z" fill="#8495C0"/>
<path d="M1.84729 193.008C1.52936 192.949 1.2325 192.808 0.986459 192.598C0.740418 192.388 0.553845 192.117 0.445439 191.813C-0.661286 188.744 0.652026 182.339 0.578245 180.008C0.489707 177.411 3.66232 179.654 6.00857 180.495C8.35483 181.336 25.7525 188.537 27.7446 189.467C29.7367 190.396 28.5415 194.026 25.6788 194.661C22.816 195.295 9.94851 194.735 1.84729 193.008Z" fill="#8495C0"/>
<path d="M226.675 203.972C228.8 203.559 228.711 193.761 231.102 194.012C233.492 194.262 233.153 202.6 234.437 202.777C235.72 202.954 241.815 201.006 242.361 202.939C242.907 204.872 237.181 207.942 236.753 209.122C236.325 210.303 241.269 216.589 239.011 218.153C236.753 219.717 233.109 212.959 231.781 213.283C230.452 213.608 227.693 218.625 225.775 217.327C223.856 216.028 226.822 210.863 226.306 210.214C225.789 209.565 220.049 208.886 220.403 206.702C220.758 204.518 225.155 204.252 226.675 203.972Z" fill="#8495C0"/>
<path d="M149.852 37.4768C148.067 36.5472 154.928 24.0043 156.153 21.3629C157.378 18.7216 158.013 19.7545 159.532 20.3595C161.052 20.9645 162.484 21.5843 164.092 22.1893C165.701 22.7943 166.217 23.5469 164.387 25.1406C162.557 26.7342 151.608 38.318 149.852 37.4768Z" fill="#8495C0"/>
<path d="M95.3441 159.659C94.8129 154.096 95.4621 151.366 97.6756 148.267C99.889 145.168 100.051 144.77 100.14 144.342C100.228 143.914 101.616 146.688 101.497 149.669C101.446 153.245 101.944 156.809 102.973 160.234C103.726 161.902 102.073 162.064 102.073 162.064L95.3441 159.659Z" fill="#D5DBF2"/>
<path d="M112.491 99.9248C112.122 98.7443 109.127 92.9303 107.961 93.432C107.105 93.7861 109.053 96.5603 111.237 100.367C111.975 101.666 112.919 101.356 112.491 99.9248Z" fill="#D5DBF2"/>
<path d="M114.499 82.1292C115.443 82.1292 113.879 81.7161 121.124 81.7013C120.536 81.0974 119.827 80.6247 119.044 80.3142C118.94 80.4618 114.263 80.9192 114.204 80.9192C114.169 81.1304 114.177 81.3464 114.228 81.5543C114.279 81.7621 114.371 81.9577 114.499 82.1292Z" fill="#D5DBF2"/>
<path d="M154.665 94.9075C154.665 94.2877 154.384 94.0073 153.927 94.0073C152.346 94.0536 150.794 94.4465 149.382 95.1583C148.895 95.601 149.382 95.8666 149.736 95.9994C151.446 96.0715 153.145 95.695 154.665 94.9075Z" fill="#D5DBF2"/>
<path d="M112.935 152.797C111.946 152.797 112.935 160.795 112.935 166.417C117.996 169.944 118.232 170.018 118.158 168.704C118.188 168.557 114.72 152.767 112.935 152.797Z" fill="#D5DBF2"/>
<path d="M153.293 88.8572C152.789 88.7889 152.276 88.8216 151.785 88.9533C151.293 89.0851 150.833 89.3132 150.431 89.6246C148.955 90.9969 151.906 90.3772 153.22 90.3476C153.854 90.3476 153.928 88.9163 153.293 88.8572Z" fill="#D5DBF2"/>
<path d="M116.991 85.154C115.265 85.2868 116.991 86.7182 118.245 86.6296C121.002 86.6339 123.747 86.2666 126.406 85.5377C126.406 85.095 124.842 84.3276 124.546 84.3276C124.546 84.6375 117.139 85.1392 116.991 85.154Z" fill="#D5DBF2"/>
<path d="M111.207 91.8386C111.487 91.8386 111.753 91.9271 111.753 91.6172C111.753 90.3187 110.277 90.1416 110.277 89.7432C110.127 89.7706 109.988 89.8433 109.88 89.9513C109.772 90.0594 109.699 90.1978 109.672 90.3482C109.672 90.3482 110.424 91.5877 111.207 91.8386Z" fill="#D5DBF2"/>
<path d="M105.984 97.992C106.939 100.882 108.057 103.715 109.334 106.477C110.706 107.672 111.872 106.477 110.81 105.267C110.706 105.149 108.316 98.2871 107.46 97.3574C106.604 96.4278 106.206 96.3097 105.984 97.992Z" fill="#D5DBF2"/>
<path d="M142.757 68.7301C141.68 68.228 140.559 67.8278 139.407 67.5349C133.357 67.2397 132.147 67.7414 131.941 67.83C131.683 67.9245 131.456 68.0893 131.287 68.3057C131.117 68.5221 131.011 68.7815 130.981 69.0548C141.901 69.0548 142.314 68.4793 142.757 68.7301Z" fill="#D5DBF2"/>
<path d="M149.469 83.354C149.469 79.9748 149.366 82.4391 135.746 82.4391C135.661 83.032 135.502 83.612 135.274 84.1656C135.229 84.3279 145.219 83.3392 149.469 83.354Z" fill="#D5DBF2"/>
<path d="M130.036 82.7482C130.169 84.4452 128.56 84.2239 133.341 84.2239C133.754 82.6302 133.754 82.3793 133.548 82.4384L130.036 82.7482Z" fill="#D5DBF2"/>
<path d="M121.005 89.4481C118.703 90.5548 120.769 91.4992 122.2 91.1008C125.213 90.1373 128.363 89.6689 131.526 89.7137C131.009 89.2251 130.44 88.7946 129.829 88.4299C128.412 87.7511 122.584 88.6955 121.005 89.4481Z" fill="#D5DBF2"/>
<path d="M134.242 88.2089C134.044 88.5362 133.98 88.9277 134.065 89.3009C134.596 90.629 147.774 89.3009 147.965 89.7436C149.013 89.7436 148.364 88.6959 148.644 88.386C148.767 88.2578 148.84 88.0906 148.851 87.9138C147.862 87.9876 135.378 87.9876 134.242 88.2089Z" fill="#D5DBF2"/>
<path d="M123.912 93.9189C122.436 94.0959 121.994 95.2469 124.65 95.5273C125.948 95.6601 145.884 95.2174 146.312 95.2174C146.634 94.5603 146.891 93.8733 147.079 93.1663C146.991 93.0187 127.306 93.5204 123.912 93.9189Z" fill="#D5DBF2"/>
<path d="M126.038 99.0252C125.654 99.0252 127.115 100.663 127.321 100.84C128.797 102.05 143.76 99.9548 143.775 100.398C144.321 100.398 144.881 98.8186 145.442 98.2431C143.937 98.1988 126.185 99.0547 126.038 99.0252Z" fill="#D5DBF2"/>
<path d="M86.3869 124.745C87.0657 125.202 87.2427 123.859 86.9033 123.608C86.5639 123.357 85.7228 124.302 86.3869 124.745Z" fill="#D5DBF2"/>
<path d="M94.5168 161.134C94.5168 161.134 86.873 151.749 101.201 142.054C100.951 140.136 100.508 133.348 100.508 133.348C99.652 133.348 97.2172 132.713 95.8154 132.551C95.7312 128.02 95.8986 123.488 96.3171 118.975C96.5089 117.883 94.8415 118.326 94.7087 118.533C92.0364 121.274 89.0668 123.709 85.8549 125.793C84.9732 122.284 84.6938 118.652 85.0285 115.05C86.1057 107.849 90.4588 103.466 93.4249 95.7194C95.2546 92.7681 93.115 91.7499 93.8233 88.8134C94.0594 87.7952 94.989 88.2232 95.1956 88.0018C95.8301 87.2787 94.5021 84.2242 97.0549 84.7554C97.5566 83.7815 98.1469 84.0914 98.6929 83.2798C99.2388 82.4682 100.168 80.6679 103.843 75.3999C103.843 74.4703 69.6229 76.123 52.1957 78.056C42.0138 79.1775 25.4425 84.3275 24.3652 94.2142C23.5979 101.592 32.3189 109.679 45.3635 116.939C46.4872 117.476 47.4568 118.288 48.182 119.3C49.0673 120.953 45.3045 125.704 43.7551 133.053C41.881 141.774 42.6631 148.399 45.9538 153.269C49.3772 158.375 55.5454 161.562 64.2073 163.215C71.2756 164.572 95.5203 168.881 100.168 167.642C100.168 165.871 101.26 164.218 100.611 163.215C99.9619 162.211 98.0288 161.134 94.5168 161.134Z" fill="#D5DBF2"/>
<path d="M129.255 162.862C139.141 166.374 167.99 180.436 170.262 180.082C170.557 180.082 181.595 171.037 181.049 170.505C180.503 169.974 173.435 168.115 173.228 167.643C170.735 167.643 132.678 149.935 127.071 147.53C126.244 147.176 125.934 147.412 125.831 148.031C125.831 148.179 127.307 162.788 127.307 162.935C127.41 163.393 127.72 162.271 129.255 162.862Z" fill="#D5DBF2"/>
<path d="M129.107 174.326C130.435 173.943 160.257 187.755 170.114 190.366C170.114 190.263 170.203 190.13 170.114 190.086C168.639 188.271 169.067 182.265 168.285 182.383C168.137 182.383 127.911 165.059 127.764 164.986C128 165.118 129.107 174.179 129.107 174.326Z" fill="#D5DBF2"/>
<path d="M151.375 126.31C149 127.49 137.091 131.091 143.717 132.33C150.947 130.958 155.182 125.041 155.182 122.871C155.182 122.06 155.182 120.658 154.976 118.12C154.268 120.392 153.84 123.904 151.375 126.31Z" fill="#D5DBF2"/>
<path d="M121.802 169.796C122.864 169.988 127.144 169.663 126.627 169.029C126.509 168.881 122.333 142.6 124.119 139.25C128.324 131.356 148.039 126.988 150.532 124.199C153.484 120.952 153.484 111.508 153.336 111.39C153.188 111.272 124.089 110.475 119.647 106.963C118.629 106.196 102.028 123.033 102.028 126.855C102.028 149.181 107.562 163.746 107.503 165.221C108.315 165.221 111.162 165.31 111.148 164.528C111.148 164.262 112.077 148.296 112.166 148.178C111.487 147.617 107.739 137.391 109.406 131.474C111.989 122.31 125.934 114.519 124.473 113.766C123.012 113.013 122.997 112.202 123.602 112.069C126.037 111.567 126.553 113.353 129.283 112.984C130.301 112.836 131.585 114.061 130.419 114.696C128.545 115.714 126.893 114.002 125.993 115.124C123.573 118.385 112.21 126.25 111.679 133.894C111.369 138.439 121.831 169.648 121.802 169.796Z" fill="#D5DBF2"/>
<path d="M250.772 104.913C242.479 97.6234 238.835 92.2964 250.536 70.4128C262.238 48.5292 229.715 18.6771 195.436 35.5879C161.157 52.4986 153.454 64.2889 143.125 67.2254C154.487 71.8146 150.636 82.1293 150.636 82.1293C154.738 82.3359 153.735 88.2679 153.735 88.2679C166.927 90.6585 195.451 104.013 195.436 106.167C195.421 108.322 206.297 114.372 211.668 114.21C217.039 114.047 221.23 116.084 221.54 118.814C221.85 121.543 222.293 121.986 224.093 124.834C227.634 130.412 228.254 136.506 225.716 137.893C221.85 140.004 220.817 140.136 220.861 140.845C220.906 141.553 225.51 143.545 224.639 145.552C223.768 147.559 226.543 151.455 227.885 151.971C229.228 152.487 242.642 142.01 243.32 141.435C258.136 129.32 259.065 112.188 250.772 104.913Z" fill="#D5DBF2"/>
<path d="M130.331 73.0535C130.331 73.8356 130.14 74.1455 130.331 74.2192C130.523 74.293 148.747 73.3634 147.788 72.4337C145.501 70.176 130.626 72.8026 130.331 73.0535Z" fill="#D5DBF2"/>
<path d="M130.14 77.6425C129.727 77.7753 129.535 78.1294 130.022 79.1181C130.169 79.1181 148.924 78.2622 149.072 78.2032C149.22 78.1442 149.175 77.7458 149.175 76.3734C146.268 76.3587 130.804 77.4359 130.14 77.6425Z" fill="#D5DBF2"/>
<path d="M77.3718 27.0583C74.9665 26.3057 74.7599 25.5826 75.6306 24.712C77.4899 22.8527 80.4116 22.351 84.4844 17.9094C86.9929 15.2237 88.203 18.0864 87.0225 20.7278C85.842 23.3692 86.3732 26.0106 88.4981 25.7892C90.623 25.5679 92.7331 24.5792 92.5708 28.3273C92.4085 32.0754 92.4233 41.0178 91.8773 42.5081C91.3313 43.9985 90.2246 44.5298 89.6343 41.6375C89.0441 38.7453 88.2472 37.4615 88.0702 35.735C87.8931 34.0085 85.2812 34.4807 83.3481 34.7168C81.415 34.9529 81.0461 32.6067 81.8725 29.6997C82.6988 26.7927 79.7033 27.7813 77.3718 27.0583Z" fill="#D5DBF2"/>
<path d="M168.255 33.5517C168.004 32.1941 168.152 31.6924 165.791 32.8286C163.43 33.9649 153.528 40.7528 152.156 41.6824C150.784 42.6121 151.817 44.8845 153.942 44.4566C156.067 44.0287 168.093 41.0331 169.023 40.6937C169.952 40.3544 168.388 34.26 168.255 33.5517Z" fill="#D5DBF2"/>
<path d="M194.403 247.149C193.223 247.606 193.946 250.528 196.174 250.676C198.402 250.823 216.833 249.657 220.315 250.676C223.798 251.694 222.558 249.038 222.426 247.296C222.04 244.108 221.404 240.955 220.522 237.867C219.917 236.392 218.825 235.934 215.564 237.469C212.303 239.003 197.045 246.145 194.403 247.149Z" fill="#D5DBF2"/>
<path d="M12.1474 160.795C12.5754 159.172 13.2837 159.319 14.1543 160.131C15.0249 160.942 35.1526 176.835 36.5101 178.104C37.8677 179.373 37.1742 180.48 36.5101 181.306C35.8461 182.132 35.3886 184.257 33.1014 183.092C30.8142 181.926 11.2768 168.748 10.0816 168.247C8.88629 167.745 9.43228 167.007 9.94875 165.871C10.7984 164.232 11.533 162.536 12.1474 160.795Z" fill="#D5DBF2"/>
<path d="M119.617 48.6464C120.576 48.4398 121.417 48.9858 121.314 50.4466C121.211 51.9075 120.812 53.2208 119.322 53.2061C117.035 53.2061 116.99 51.6271 116.99 51.4796C117.014 50.7705 117.293 50.0938 117.776 49.5735C118.258 49.0531 118.912 48.724 119.617 48.6464Z" fill="#001B62"/>
<path d="M129.091 81.9807C128.973 82.9785 128.775 83.9653 128.501 84.9319C128.501 84.9319 125.137 83.3678 125.166 83.0136C125.225 81.7593 127.999 80.8592 129.091 81.9807Z" fill="#001B62"/>
<path d="M123.689 36.089C124.577 36.8867 125.329 37.8237 125.917 38.8632C126.714 39.8961 127.481 39.6157 127.57 39.2468C128.13 37.0924 124.412 33.8755 122.774 32.9311C121.829 32.3704 121.136 32.8278 121.726 33.7722C122.301 34.6082 122.959 35.3843 123.689 36.089Z" fill="#001B62"/>
<path d="M115.809 55.4047C115.573 55.6703 115.337 55.7441 115.042 55.4785C114.947 55.4248 114.841 55.391 114.732 55.379C114.624 55.3671 114.514 55.3773 114.409 55.409C114.304 55.4407 114.207 55.4932 114.123 55.5635C114.039 55.6338 113.97 55.7203 113.92 55.8179C113.655 56.4081 115.662 57.5591 116.636 56.4376C116.768 56.2753 118.628 54.4455 117.506 54.5046C116.884 54.682 116.305 54.9887 115.809 55.4047Z" fill="#001B62"/>
<path d="M114.586 52.8668C114.306 52.6455 113.716 52.4536 113.642 52.1585C113.495 51.4269 113.386 50.6881 113.317 49.9451C113.229 49.4876 112.668 49.3843 112.668 49.9451V52.4241C112.668 52.8078 113.73 53.4571 113.878 53.5013C114.026 53.5456 115.044 53.221 114.586 52.8668Z" fill="#001B62"/>
<path d="M116.266 48.5135C116.427 47.8873 116.364 47.2244 116.089 46.6395C115.661 45.8869 114.79 46.1525 114.79 46.6395C114.69 47.2956 114.799 47.9665 115.1 48.5578C115.513 49.1333 116.192 48.9562 116.266 48.5135Z" fill="#001B62"/>
<path d="M110.291 49.2812C110.468 49.6058 111.471 49.8715 111.501 49.0599C111.559 48.5952 111.524 48.1237 111.398 47.6728C111.343 47.5364 111.249 47.419 111.129 47.3351C111.008 47.2512 110.866 47.2044 110.719 47.2006C110.634 47.1761 110.544 47.171 110.457 47.1857C110.37 47.2004 110.287 47.2345 110.215 47.2855C110.143 47.3365 110.083 47.4031 110.04 47.4803C109.997 47.5576 109.972 47.6435 109.966 47.7318C109.931 48.2682 110.044 48.8039 110.291 49.2812Z" fill="#001B62"/>
<path d="M111.234 43.511C108.283 43.1716 109.257 46.3442 111.382 44.3374C111.913 43.8357 111.382 43.5258 111.234 43.511Z" fill="#001B62"/>
<path d="M170.246 151.808C171.722 152.206 174.88 153.829 175.042 152.767C175.16 151.985 173.684 150.981 171.205 149.816C163.399 146.2 145.692 141.168 137.812 136.83C137.074 136.417 134.861 136.314 137.148 137.848C140.35 139.988 170.099 151.763 170.246 151.808Z" fill="#001B62"/>
<path d="M162.823 156.028C165.952 157.12 167.59 156.264 163.723 154.435C156.552 151.055 141.589 144.917 135.686 143.382C132.986 142.674 133.355 144.002 135.096 144.858C135.155 144.843 159.916 155.01 162.823 156.028Z" fill="#001B62"/>
<path d="M215.165 131.724C213.026 132.934 195.111 145.241 191.555 149.122C190.758 149.993 190.655 150.598 192.131 150.096C192.278 150.096 215.239 134.336 217.29 132.167C217.674 131.754 216.538 130.972 215.165 131.724Z" fill="#001B62"/>
<path d="M210.722 140.652C205.586 143.455 200.822 146.89 196.541 150.878C195.965 151.409 196.334 152.752 198.858 150.642C201.646 148.311 208.966 144.046 211.533 141.788C213.156 140.327 212.374 139.87 210.722 140.652Z" fill="#001B62"/>
<path d="M97.3198 107.362C97.5412 106.934 109.715 84.3569 109.641 83.7518C109.095 79.7086 99.7841 101.194 98.8987 101.814C98.5003 102.079 93.616 112.143 94.944 112.512C95.3425 112.63 96.9214 108.129 97.3198 107.362Z" fill="#001B62"/>
<path d="M104.299 81.5532C104.388 81.4057 104.107 78.9561 101.584 84.8439C101.584 84.9915 96.7735 94.6273 96.5078 95.3209C95.8881 96.8703 90.3692 106.093 89.3953 109.93C88.8493 112.084 89.1887 112.01 90.3102 110.136C92.8187 105.931 104.225 81.7156 104.299 81.5532Z" fill="#001B62"/>
<path d="M109.745 70.486C110.395 70.7812 110.808 70.2499 111.221 69.5121L115.146 61.9274C115.441 61.3224 115.515 60.8502 114.954 60.5846C114.039 60.1714 112.136 65.0114 109.996 69.3351C109.731 69.8663 109.539 70.3827 109.745 70.486Z" fill="#001B62"/>
<path d="M115.146 73.1274C116.164 72.4191 120.443 63.1521 120.207 62.798C119.617 61.7503 113.242 74.4703 115.146 73.1274Z" fill="#001B62"/>
<path d="M225.699 170.992C224.622 170.992 206.044 186.205 205.336 187.711C203.713 191.105 229.359 171.036 225.699 170.992Z" fill="#001B62"/>
<path d="M229.331 172.216C225.996 174.444 215.327 183.253 215.091 183.637C214.102 185.201 215.386 184.803 216.389 184.183C217.717 183.371 229.478 174.562 230.378 173.19C230.939 172.348 230.909 171.124 229.331 172.216Z" fill="#001B62"/>
<path d="M135.185 35.7933C136.114 38.2429 139.759 29.0349 144.216 23.0291C144.599 22.5127 143.92 21.5535 143.315 22.129C142.71 22.7045 134.978 35.3654 135.185 35.7933Z" fill="#001B62"/>
<path d="M186.079 233.75C186.079 232.038 186.005 231.33 186.005 231.286C185.784 225.708 173.861 214.626 160.093 208.841C150.324 204.724 136.63 203.868 126.153 204.046C126.006 203.913 118.495 192.24 93.9107 177.263C86.8969 173.143 78.9072 170.977 70.7728 170.991C69.8627 170.975 68.9736 171.266 68.2495 171.818C60.5172 178.355 20.7046 214.714 20.6603 214.773C20.4227 215.084 20.2561 215.443 20.1724 215.824C20.0886 216.206 20.0897 216.602 20.1755 216.983C20.2614 217.365 20.4299 217.723 20.6692 218.032C20.9085 218.341 21.2128 218.594 21.5605 218.772C21.708 218.861 144.038 280.218 148.465 280.321C149.467 280.398 150.464 280.121 151.283 279.539C161.613 270.98 176.59 253.642 189.93 239.594C190.15 239.363 190.272 239.056 190.27 238.738V237.528C190.261 236.886 190.043 236.264 189.65 235.757C188.728 234.694 187.466 233.985 186.079 233.75ZM184.087 232.422C184.079 234.35 184.187 236.277 184.411 238.192C182.213 240.656 168.533 253.819 150.472 270.892C150.147 271.187 150.073 270.892 150.073 270.449C150.058 269.625 149.999 268.802 149.896 267.985C149.867 267.837 183.939 232.555 184.072 232.422H184.087ZM123.822 209.21C126.434 206.067 144.156 206.982 156.758 211.35C168.873 215.555 177.122 222.447 181.932 230.961C180.22 233.101 154.559 259.662 148.657 263.986C147.535 261.846 131.716 247.975 118.701 243.888C113.212 242.161 99.6804 238.088 92.0514 237.867C100.477 229.854 119.011 214.98 123.822 209.21ZM69.6071 173.47C89.3363 173.234 108.416 188.965 122.007 203.839C123.482 205.506 124.132 206.938 121.653 208.266C119.557 209.328 87.7131 238.265 87.4917 238.221C87.2704 238.177 59.5875 204.577 36.2283 205.802C36.243 205.787 39.9911 202.629 69.6071 173.47ZM29.4256 211.512C30.0695 210.395 30.9826 209.457 32.0817 208.782C67.5707 212.752 77.1033 234.193 84.4667 239.771C87.3442 241.969 87.9787 241.527 89.4986 241.527C116.37 241.645 126.95 251.443 145.764 265.801C146.408 266.169 146.944 266.699 147.32 267.338C147.695 267.978 147.896 268.704 147.904 269.446C147.904 272.781 148.022 272.869 147.55 272.854C141.972 272.781 33.4541 215.009 29.4256 211.512ZM171.736 256.711C163.738 264.753 160.432 268.132 149.867 278.329C141.131 277.325 27.9057 219.466 24.4379 216.116C23.6559 215.378 24.8659 212.87 26.6071 212.663C30.2372 216.072 130.595 271.216 148.362 275.038C149.085 275.894 150.206 275.142 150.398 274.714C150.59 274.286 184.81 240.361 184.957 240.243C186.758 238.87 186.315 237.38 186.772 236.229C189.251 237.38 188.897 238.28 188.012 239.092C187.126 239.903 183.865 244.419 171.736 256.711Z" fill="#001B62"/>
<path d="M145.147 189.318C142.992 188.536 141.428 188.625 144.851 190.366C150.415 193.17 167.429 200.489 173.257 201.419C175.19 201.729 175.323 201.183 173.582 200.327C173.434 200.253 149.205 190.794 145.147 189.318Z" fill="#001B62"/>
<path d="M153.925 190.44C154.412 190.764 155.401 189.938 154.766 189.48C150.573 187.698 146.282 186.156 141.914 184.862C138.743 183.972 135.664 182.781 132.72 181.305C131.245 180.804 130.595 181.615 132.322 182.633C136.439 185.083 151.609 188.831 153.925 190.44Z" fill="#001B62"/>
<path d="M215.666 150.967C214.456 150.672 206.635 157.224 203.463 160.013C203.345 160.116 200.29 162.669 198.888 163.938C197.486 165.207 198.46 165.517 199.464 164.985C199.685 164.867 217.732 151.454 215.666 150.967Z" fill="#001B62"/>
<path d="M204.554 158.182C205.514 156.913 204.422 156.515 203.256 157.548C200.777 159.776 188.883 169.796 185.888 172.304C184.117 173.78 186.153 173.529 186.67 173.145C191.215 169.81 204.215 158.64 204.554 158.182Z" fill="#001B62"/>
<path d="M60.7395 207.336C60.3263 208.059 60.8428 209.373 62.9825 209.653C65.1221 209.933 66.1993 209.225 67.5864 210.051C68.7227 210.745 68.4275 212.014 69.3719 213.003C70.641 214.478 76.0566 213.947 75.8352 215.467C75.7759 216.166 75.9676 216.864 76.3759 217.434C76.7842 218.005 77.3825 218.411 78.0634 218.581C79.2308 218.753 80.4139 218.792 81.5902 218.699C82.2247 218.699 82.7854 218.92 82.5051 219.761C80.8966 224.454 88.9388 219.186 90.2669 218.964C91.2703 218.787 91.4179 217.208 90.1784 217.193C85.9581 217.105 85.8548 218.905 85.3678 218.241C84.8808 217.577 85.2055 216.766 83.9955 215.983C82.3446 215.529 80.6456 215.271 78.934 215.216C78.9002 214.47 78.6508 213.749 78.216 213.142C77.7813 212.534 77.1799 212.066 76.4845 211.793C72.5888 210.228 71.733 211.261 71.6001 210.096C71.5849 209.498 71.4185 208.914 71.1167 208.398C70.8148 207.882 70.3872 207.451 69.8737 207.144C68.2281 206.455 66.445 206.157 64.6647 206.274C64.6647 206.274 64.5761 203.75 63.189 202.939C60.6657 201.375 60.2378 203.234 58.7621 202.658C58.3195 202.481 58.2014 201.965 59.1458 200.725C59.7065 199.988 58.5408 198.689 57.0504 200.002C56.5192 200.46 54.7927 202.85 55.2501 204.562C56.2683 208.163 62.9234 203.485 60.7395 207.336Z" fill="#001B62"/>
<path d="M79.7883 187.223C79.6555 188.167 80.9983 189.038 81.8247 188.964C86.9746 188.551 84.8645 189.805 84.6579 192.122C84.4808 193.981 89.7046 193.42 91.7409 193.598C92.8624 193.598 90.3538 197.951 91.7409 198.925C93.4822 200.164 97.3631 198.143 97.7615 199.249C97.8074 199.508 97.7969 199.774 97.7307 200.029C97.6645 200.284 97.5441 200.521 97.3778 200.725C97.2476 200.934 97.1715 201.171 97.1566 201.417C97.1417 201.663 97.1885 201.908 97.2926 202.131C97.3967 202.354 97.5549 202.547 97.7528 202.693C97.9506 202.839 98.1819 202.934 98.4255 202.968C100.214 202.539 101.974 201.996 103.694 201.345C107.737 200.149 105.258 199.338 103.694 199.294C101.347 199.294 100.182 200.651 100.55 198.998C100.486 198.402 100.268 197.832 99.9195 197.343C99.5706 196.855 99.1018 196.464 98.5584 196.209C97.186 195.619 94.1315 196.342 94.7512 195.501C95.0149 194.942 95.1239 194.323 95.0668 193.708C95.0097 193.093 94.7886 192.504 94.4266 192.004C93.2903 190.041 90.2801 190.528 88.952 190.528C87.6239 190.528 89.8669 187.193 86.5024 186.456C85.0268 186.131 83.2413 186.455 82.7396 186.101C82.592 186.013 82.9757 183.43 79.6703 183.504C77.5453 183.504 73.9743 183.357 72.2921 184.139C71.3182 184.596 70.6837 185.334 71.0526 185.614C71.5022 185.895 72.0043 186.081 72.5282 186.16C77.2355 187.016 80.1277 184.832 79.7883 187.223Z" fill="#001B62"/>
<path d="M63.75 192.919C64.3845 192.919 66.7013 193.214 66.7013 193.229C68.6934 193.657 66.7013 193.967 67.0407 196.18C67.38 198.394 74.0352 196.741 73.0317 198.895C72.1168 200.814 72.6038 201.522 73.2678 201.847C75.5403 202.879 81.8117 201.05 81.3248 204.798C81.3286 205.216 81.4254 205.628 81.6082 206.004C81.7909 206.38 82.055 206.71 82.3813 206.972C82.7076 207.233 83.0879 207.418 83.4948 207.515C83.9016 207.611 84.3247 207.615 84.7335 207.528C86.9912 207.07 86.0025 209.431 87.3601 210.774C88.7177 212.117 91.3 210.582 93.6758 210.567C96.6271 210.567 95.3728 209.092 94.576 209.003C93.0171 208.568 91.3686 208.568 89.8097 209.003C89.5736 209.136 88.6734 209.003 88.9833 208.561C90.2081 206.937 87.5077 205.122 84.6597 204.754C83.7448 204.635 85.3828 203.381 82.8299 200.843C81.2067 199.235 78.2407 198.88 75.9535 198.91C76.2182 198.404 76.2785 197.816 76.122 197.266C75.9654 196.717 75.604 196.249 75.1124 195.959C71.4823 193.406 70.1838 196.505 70.3903 192.255C70.3903 190.632 65.9634 190.425 64.3107 190.883C61.0643 191.783 63.0712 192.919 63.75 192.919Z" fill="#001B62"/>
<path d="M129.739 223.789C132.557 225.339 132.277 226.298 133.634 226.741C135.302 227.272 135.907 226.446 135.641 228.128C135.566 228.321 135.535 228.529 135.551 228.736C135.566 228.942 135.628 229.143 135.731 229.323C135.834 229.503 135.977 229.657 136.148 229.774C136.319 229.892 136.514 229.97 136.719 230.002C137.766 230.312 142.37 229.677 142.473 230.223C142.577 230.769 139.168 233.75 141.323 235.063C143.226 236.229 144.716 234.93 147.092 234.886C147.86 234.886 146.354 236.923 148.169 237.646C149.787 238.05 151.48 238.05 153.098 237.646C154.574 237.528 153.969 238.354 153.57 239.874C153.172 241.394 154.249 242.456 156.876 241.792C159.989 240.981 160.225 240.966 162.276 240.567C163.752 240.302 163.398 238.9 162.276 238.9C161.775 238.9 158.528 239.313 157.628 239.402C155.813 239.564 156.831 239.018 156.846 237.572C156.82 236.969 156.587 236.393 156.187 235.942C155.787 235.49 155.243 235.191 154.647 235.093C152.257 234.414 150.309 236.155 150.84 234.503C150.982 234.106 150.969 233.67 150.806 233.283C150.642 232.895 150.338 232.582 149.955 232.407C147.904 231.227 146.059 232.23 144.628 232.407C143.197 232.584 146.605 230.577 145.321 228.644C143.374 225.693 140.186 227.257 139.242 227.272C138.976 227.272 138.829 226.992 138.681 226.593C138.135 225.118 138.017 223.834 134.49 223.539C132.448 221.6 129.975 220.174 127.274 219.377C125.518 218.92 123.335 218.949 126.079 221.207C127.24 222.149 128.462 223.012 129.739 223.789Z" fill="#001B62"/>
<path d="M121.196 233.101C119.897 233.101 119.543 231.95 118.628 231.448C117.713 230.946 116.356 231.448 116.636 232.23C118.2 236.731 121.255 236.288 123.085 236.421C126.287 236.672 122.317 240.125 128.382 240.42C129.74 240.494 129.577 239.992 129.725 241.423C129.902 243.135 131.496 243.268 133.562 243.179C136.513 243.061 134.727 245.26 137.738 246.352C139.538 247.001 140.984 246.485 140.984 247.193C140.984 251.9 144.968 249.48 143.935 250.646C143.729 250.882 142.799 253.332 145.824 253.051C147.595 252.889 149.823 251.871 149.823 250.631C149.823 249.392 148.51 249.731 148.244 249.997C147.978 250.262 147.255 250.218 147.477 249.908C147.964 249.155 147.123 247.355 145.234 247.414C143.758 247.414 143.758 247.414 143.758 246.957C143.861 245.127 142.283 243.401 138.962 243.755C138.8 243.759 138.639 243.727 138.49 243.661C138.342 243.594 138.211 243.495 138.106 243.371C137.516 242.471 138.756 241.807 136.808 240.744C136.274 240.417 135.674 240.213 135.051 240.147C134.428 240.08 133.798 240.153 133.207 240.361C132.233 240.966 132.838 239.298 131.732 238.251C130.625 237.203 127.423 237.941 127.305 236.701C127.157 233.809 124.073 233.101 121.196 233.101Z" fill="#001B62"/>
<path d="M139.404 218.182C140.275 218.182 140.156 218.462 141.868 220.085C142.901 221.074 147.313 219.835 149.143 222.255C149.757 223.091 150.511 223.815 151.371 224.394C153.098 225.545 153.836 224.896 156.757 225.87C157.923 226.224 158.941 226.755 159.015 227.493C159.118 228.556 159.871 228.969 160.948 229.19C163.025 229.24 165.101 229.081 167.146 228.718C167.411 228.718 167.721 229.087 167.736 229.234C167.839 229.81 168.651 229.234 168.666 228.703C168.666 226.239 165.154 226.918 163.427 227.021C161.701 227.124 161.155 227.124 161.081 226.386C160.594 222.21 153.703 223.627 151.563 221.089C148.361 217.237 148.612 217.754 144.878 217.503C144.509 217.516 144.141 217.449 143.799 217.306C143.458 217.163 143.152 216.949 142.901 216.677C141.426 214.744 140.688 215.688 138.651 214.596C136.94 213.681 135.331 214.227 136.453 216.264C136.733 216.814 137.154 217.281 137.672 217.617C138.19 217.954 138.787 218.149 139.404 218.182Z" fill="#001B62"/>
<path d="M202.842 187.769C204.2 186.545 201.514 189.038 202.842 187.769Z" fill="#001B62"/>
<path d="M235.528 172.29C235.041 168.076 234.182 163.913 232.961 159.85C232.843 159.541 232.784 159.541 232.961 159.157C233.086 158.994 233.16 158.798 233.173 158.593C233.186 158.388 233.138 158.183 233.034 158.006C232.651 157.416 230.452 155.615 223.974 151.794C223.974 151.248 221.377 141.848 221.244 141.464C222.274 140.615 223.259 139.714 224.195 138.764C224.403 138.543 224.523 138.255 224.535 137.952C224.771 130.574 225.568 124.199 220.772 119.256C219.503 117.957 154.959 89.3448 154.575 87.9577C154.575 87.8101 153.291 83.1914 151.624 81.4501V79.5613C151.624 74.5589 150.074 71.6519 148.127 69.7779C143.449 65.2624 133.134 62.7391 132.175 62.2522C132.677 61.293 135.48 61.5734 135.51 58.386C135.51 57.9728 136.13 57.9728 136.44 58.8434C136.602 59.3304 137.384 60.1568 138.83 58.8434C140.186 56.1982 140.861 53.2565 140.793 50.2848C140.381 47.3975 139.339 44.6364 137.738 42.1983C137.532 41.8442 149.824 18.4554 149.912 18.3078C150.975 16.5518 153.498 14.1023 154.841 11.5494C156.036 9.24743 156.316 6.8569 153.601 4.80577C151.363 2.79665 148.722 1.28752 145.854 0.378877C144.57 0.0247252 144.039 -0.536015 142.386 1.17572C140.321 3.33014 140.143 9.86719 139.656 10.8264C136.853 16.1829 132.426 22.4691 128.397 29.1685C126.355 27.5211 123.906 26.4567 121.308 26.0878C118.71 25.7189 116.061 26.0594 113.641 27.0731C106.986 29.6702 104.418 36.3253 103.577 39.9849C103.474 40.4718 101.201 59.3009 100.065 64.5246C99.475 67.2398 100.537 67.0037 101.201 66.3839C101.595 66.0411 101.925 65.6315 102.175 65.1739C102.648 64.2295 102.869 64.6722 102.825 65.4543C102.803 66.2496 102.857 67.0451 102.987 67.83C103.005 68.1749 103.143 68.5026 103.378 68.7561C103.612 69.0095 103.928 69.1727 104.271 69.2171C104.885 69.3549 105.516 69.4046 106.145 69.3647C106.282 69.3576 106.418 69.3894 106.537 69.4566C106.656 69.5237 106.754 69.6234 106.819 69.744C106.884 69.8646 106.913 70.0011 106.904 70.1377C106.894 70.2744 106.846 70.4054 106.765 70.5157C106.661 70.619 98.8847 82.8225 98.4273 83.5013C96.7156 82.9848 96.6861 83.8554 96.4942 84.4752C95.1219 84.18 95.0186 85.5967 95.0186 85.7737C95.0012 86.1031 95.0012 86.4331 95.0186 86.7624C95.0186 87.2346 95.0186 87.4264 94.8415 87.5297C94.6644 87.633 93.8233 87.5297 93.3659 88.3708C92.9084 89.212 93.6462 91.3221 93.8233 92.6207C93.8233 92.6207 85.7664 110.328 85.1171 113.029C84.9944 113.594 84.8367 114.151 84.6449 114.696C84.4608 118.196 84.4608 121.703 84.6449 125.203C84.6449 126.87 85.3679 127.387 87.0944 126.088C90.0483 123.993 92.7084 121.511 95.0038 118.71C95.476 118.223 95.6384 118.282 95.6088 118.71C95.6088 118.857 93.9561 127.564 94.5169 131.887C94.6792 133.083 95.0186 133.879 95.6679 133.879C96.9458 133.905 98.2194 134.038 99.475 134.278C99.475 134.425 100.05 138.926 100.464 141.863C97.9403 143.604 96.4795 143.973 93.2183 150.126C91.5213 153.358 91.905 155.586 92.3034 160.101C92.3553 160.677 92.5916 161.221 92.9771 161.651C93.3625 162.082 93.8767 162.377 94.4431 162.492L99.8292 163.51C99.1061 164.277 99.5193 172.644 99.7258 176.23C99.7519 176.724 99.9185 177.2 100.206 177.603C100.494 178.006 100.89 178.318 101.349 178.502C106.809 180.79 125.328 188.448 125.623 188.433C125.918 188.419 183.335 210.111 183.498 210.214C186.36 211.999 189.252 211.04 191.997 208.738C202.327 199.884 234.879 174.725 235.012 174.577C235.882 173.618 235.72 173.603 235.528 172.29ZM229.331 159.762C216.921 169.693 190.226 197.745 184.752 198.025C184.53 197.922 182.892 197.169 173.065 192.86C175.721 190.367 220.285 153.815 220.477 153.697C220.669 153.579 229.463 159.644 229.331 159.762ZM112.962 156.914C112.962 155.955 113.095 156.619 114.438 156.663C114.866 156.663 117.611 164.602 118.614 168.188C117.802 168.645 113.626 166.712 112.357 166.107C112.905 163.075 113.108 159.991 112.962 156.914ZM112.962 151.528C113.582 151.351 113.803 152.679 114.29 153.948C114.6 154.774 112.711 154.627 112.711 154.346C112.638 151.425 112.652 151.602 112.918 151.528H112.962ZM111.251 136.993C110.754 135.477 110.86 133.829 111.546 132.389C113.248 129.063 115.354 125.961 117.817 123.152C119.293 121.809 125.49 115.936 126.095 115.124C127.025 113.899 128.368 115.832 130.522 114.696C131.673 114.062 130.744 112.409 129.696 112.556C127.866 112.822 125.018 111.391 123.602 111.671C122.967 111.804 122.864 112.925 124.576 113.766C125.845 114.401 112.52 122.192 109.598 131.076C108.934 132.768 108.667 134.591 108.816 136.403C109.48 140.697 111.767 148.06 111.767 148.208C111.767 149.905 111.59 163.348 110.941 164.897C110.778 165.266 107.473 165.192 107.325 165.207C106.868 165.207 106.632 164.779 106.484 164.145C104.227 153.918 100.582 135.399 101.305 124.922C101.323 123.499 101.846 122.129 102.78 121.056C105.835 116.851 112.711 111.14 113.11 110.727C116.061 107.775 117.537 105.267 119.603 106.949C120.621 107.761 146.577 112.97 152.804 111.376C153.35 111.243 153.439 111.214 153.38 111.937C153.011 116.777 153.144 121.351 149.72 124.701C146.297 128.051 131.659 129.88 125.682 136.89C124.468 138.071 123.696 139.634 123.498 141.317C122.598 147.529 127.482 169.044 126.45 169.354C126.302 169.354 121.477 170.342 121.123 169.354C117.802 160.219 115.102 155.35 111.206 136.993H111.251ZM110.646 167.627C110.646 169.103 103.754 172.615 104.61 171.346C105.412 170.299 106.086 169.159 106.617 167.952C107.015 167.081 110.587 166.697 110.601 167.627H110.646ZM111.103 79.6351C110.218 79.2293 109.269 78.9797 108.299 78.8973C107.753 78.8973 107.414 78.2775 108.299 78.2628C109.554 78.2628 110.203 78.2628 110.527 78.3513C110.852 78.4398 111.014 78.0414 110.527 77.7906C109.595 77.2988 108.723 76.6996 107.93 76.005C107.709 75.7247 107.68 75.0606 108.462 75.6657C109.23 76.3376 110.102 76.8808 111.044 77.2741C111.442 77.3626 111.59 77.2741 111.398 76.8904C110.899 76.4016 110.485 75.8331 110.173 75.2082L109.303 73.8506C109.199 73.6883 109.303 73.1866 109.834 73.467C109.982 73.467 112.239 76.7281 112.298 76.8609C112.375 76.9705 112.491 77.0453 112.623 77.0688C112.754 77.0923 112.89 77.0627 112.999 76.9863C113.109 76.91 113.184 76.7933 113.207 76.6619C113.231 76.5304 113.201 76.395 113.125 76.2854C112.922 75.9109 112.796 75.4994 112.756 75.0754C112.756 74.3376 113.538 74.5294 113.656 74.677C114.209 75.8435 114.399 77.1492 114.202 78.4251C113.56 79.3122 113.094 80.314 112.829 81.3763C111.893 81.1826 110.936 81.1082 109.981 81.155C109.928 81.1555 109.875 81.1363 109.835 81.1009C109.794 81.0656 109.767 81.0166 109.76 80.9632C109.748 80.9083 109.754 80.8508 109.778 80.8C109.802 80.7491 109.843 80.7079 109.893 80.6828C110.587 80.4319 111.31 80.0483 111.103 79.6351ZM112.254 86.4378C112.55 85.847 112.906 85.2882 113.316 84.7703C115.028 86.0246 120.695 96.354 128.073 103.954C129.77 105.695 133.621 106.374 137.177 106.182C145.249 105.739 145.352 101.533 146.533 99.8808C148.715 99.9759 150.899 99.7421 153.011 99.1872C153.395 99.0839 153.557 99.1872 153.704 99.5561C156.405 106.403 157.039 105.828 156.966 108.971C156.964 109.147 156.899 109.317 156.782 109.45C156.666 109.583 156.506 109.669 156.331 109.694C146.74 110.948 125.225 107.347 115.102 103.555C114.829 103.472 114.577 103.33 114.365 103.139C114.154 102.948 113.987 102.712 113.877 102.448C113.754 101.77 113.754 101.075 113.877 100.397C114.364 92.9158 112.903 87.3674 112.254 86.3787V86.4378ZM112.918 104.5C113.434 105.045 110.277 106.492 108.491 104.986C107.96 104.544 107.119 104.116 104.463 101.932C107.075 95.3358 110.646 89.3743 110.882 88.4151C110.882 88.2823 111 88.2971 111.103 88.4151C113.08 90.3777 111.767 102.109 111.767 102.257C111.767 103.039 111.988 103.467 112.918 104.44V104.5ZM108.491 108.041C109.126 108.196 109.789 108.196 110.424 108.041C112.05 107.488 113.522 106.558 114.718 105.326C115.087 105.326 115.943 105.488 115.795 105.798C115.648 106.108 105.761 114.165 104.551 115.537C102.972 115.242 98.1912 114.283 98.0436 114.224C98.9438 111.184 103.548 103.644 103.636 103.481C105.673 105.665 106.765 107.51 108.521 107.982L108.491 108.041ZM181.712 168.114C181.712 168.719 127.91 145.33 124.959 144.504C124.959 141.907 124.871 140.284 126.804 138.601C131.378 134.779 132.942 134.558 137.753 132.699C140.911 133.673 174.363 145.655 181.255 150.406C181.122 158.95 181.889 165.222 181.742 168.055L181.712 168.114ZM120.68 174.99C120.798 174.769 121.875 171.567 122.288 171.626C122.451 171.626 125.948 171.051 126.095 171.051C126.479 171.051 126.759 171.051 126.877 171.478C127.015 171.861 127.009 172.28 126.859 172.657C126.71 173.035 126.428 173.345 126.066 173.53C124.692 174.404 123.245 175.159 121.742 175.787C120.783 176.156 120.296 175.699 120.709 174.931L120.68 174.99ZM125.107 146.953C125.107 146.216 125.107 146.452 126.715 147.293C155.151 161.695 179.13 169.427 180.959 170.564C181.712 171.036 170.482 180.14 170.202 180.185C167.93 180.524 138.181 166.151 129.194 162.964C126.951 162.152 127.409 161.961 127.202 160.323C127.261 160.219 125.166 147.145 125.166 146.85L125.107 146.953ZM172.784 181.454C173.994 180.819 181.314 174.533 183.468 172.6C184.353 171.803 184.206 172.069 183.66 170.932C182.701 168.97 200.91 157.43 213.172 147.322C223 139.236 217.599 144.371 220.802 149.049C220.973 149.227 221.069 149.465 221.069 149.713C221.069 149.96 220.973 150.198 220.802 150.377C220.654 150.51 212.346 157.386 210.944 158.36C208.347 160.19 174.245 188.478 172.681 189.821C172.047 189.821 171.796 183.652 171.766 183.505C171.688 183.099 171.745 182.678 171.929 182.307C172.113 181.937 172.414 181.637 172.784 181.454ZM220.433 121.44C222.602 121.277 223.251 135.93 222.513 137.996C222.513 137.996 187.954 163.731 184.147 166.491C183.306 157.637 183.748 161.09 183.217 151.631C183.196 151.431 183.239 151.228 183.34 151.054C183.441 150.879 183.594 150.74 183.778 150.657C193.679 144.843 215.843 124.273 218.868 122.34C219.783 121.72 220.167 121.396 220.433 121.381V121.44ZM209.587 116.836C205.826 120.067 202.259 123.516 198.903 127.165C196.572 125.394 190.049 120.731 188.308 119.418C188.411 118.961 193.93 112.424 195.686 110.564C198.151 111.435 203.433 113.885 209.587 116.777V116.836ZM194.122 109.856C192.986 110.963 185.859 117.736 186.006 120.185C186.006 121.189 197.605 128.449 197.811 128.538C198.446 128.951 198.977 129.6 200.63 128.051C207.86 121.277 209.941 118.193 211.357 117.588C213.286 118.426 215.163 119.377 216.98 120.436C214.869 121.661 184.043 149.182 182.391 148.031C182.243 147.927 144.659 131.415 141.855 131.799C141.56 131.799 141.634 131.267 141.855 131.253C142.593 131.253 150.975 127.726 152.008 126.545C154.841 123.329 155.431 116.747 154.575 111.169C155.842 111.216 157.097 110.915 158.205 110.299C158.578 109.985 158.85 109.569 158.989 109.102C159.128 108.636 159.128 108.138 158.987 107.672C158.825 106.196 154.929 99.0249 154.841 98.8183C155.457 98.6445 156.055 98.4123 156.626 98.1248C157.084 97.8149 157.526 97.2984 157.113 96.1179C156.331 93.8602 156.243 92.8715 155.638 90.481C163.532 94.1848 164.786 97.3427 194.122 109.797V109.856ZM155.165 96.5754C152.917 97.4489 150.582 98.082 148.2 98.4642C148.103 98.4808 148.003 98.4734 147.909 98.4424C147.815 98.4115 147.73 98.358 147.662 98.2866C147.593 98.2153 147.543 98.1282 147.516 98.0331C147.489 97.9381 147.486 97.8378 147.507 97.7411C148.91 93.2035 149.995 88.5736 150.753 83.8849C151.107 81.5682 155.328 96.3983 155.165 96.5163V96.5754ZM147.182 71.77C148.156 72.5816 149.012 73.7031 149.381 76.6248C150.502 85.3901 146.179 103.275 138.269 104.027C135.142 104.491 131.953 103.816 129.283 102.124C127.527 100.943 114.526 85.3901 114.526 83.2652C114.526 83.1176 115.072 80.0778 115.515 79.9155C115.905 79.8392 116.307 79.8698 116.681 80.004C123.277 81.8633 129.622 88.7398 134.388 91.8091C136.676 93.2847 137.856 93.3732 135.953 91.2483C134.359 89.4923 133.754 89.5513 134.167 88.5774C135.166 85.312 135.95 81.9847 136.513 78.6169C137.03 76.0493 134.905 77.4069 134.89 78.6169C134.89 79.1777 134.256 77.9529 134.123 77.8053C133.754 77.4069 133.105 77.4807 133.134 77.8053C133.164 78.13 133.769 78.9711 133.975 79.7384C134.115 80.217 134.16 80.7182 134.108 81.214C134.108 81.3616 132.632 87.574 132.544 87.6035C131.601 86.9788 130.704 86.2885 129.858 85.5376C129.663 78.6407 130.258 71.7441 131.629 64.9821C131.644 64.5836 142.504 67.83 147.182 71.77ZM128.206 84.4162C126.597 82.9405 124 81.6567 118.762 79.0891C117.109 78.2775 116.194 78.6022 116.194 78.1595C116.194 77.7168 116.991 76.5215 118.791 72.921C118.806 72.8749 118.832 72.8332 118.867 72.7996C118.902 72.766 118.945 72.7416 118.992 72.7285C119.038 72.7154 119.088 72.7139 119.135 72.7243C119.182 72.7348 119.226 72.7567 119.263 72.7882C121.314 74.7508 124.295 75.0606 128.191 73.0538C127.77 76.8298 127.775 80.6412 128.206 84.4162ZM143.685 3.35965C144.157 1.88402 145.264 2.40049 145.411 2.41525C145.957 2.41525 151.447 5.2042 152.509 7.01922C152.874 7.50762 153.127 8.06957 153.252 8.66592C153.377 9.26228 153.37 9.87869 153.232 10.4722C152.531 12.1591 151.383 13.6231 149.912 14.7073C149.219 15.327 148.997 15.2828 148.2 14.7073C146.58 13.3443 144.847 12.1201 143.021 11.0477C142.741 10.8706 142.283 10.8264 142.224 10.4574C142.383 8.03571 142.875 5.64739 143.685 3.35965ZM141.014 12.5971C141.294 12.1544 141.516 12.0216 141.84 12.1544C143.896 13.3735 145.868 14.7292 147.743 16.2124C148.54 17.0683 147.389 17.1716 147.167 17.0683C146.946 16.965 141.162 13.025 140.999 12.8775C140.837 12.7299 140.97 12.6709 141.014 12.5971ZM140.763 14.0727C140.911 14.0727 147.256 18.3816 147.108 18.2931C147.536 18.5439 147.536 19.3555 146.71 19.1489C146.548 19.1489 140.542 15.2385 140.439 15.0909C140.158 14.7073 140.616 14.0875 140.763 14.0432V14.0727ZM139.288 16.3157C140.616 15.6959 142.932 19.385 145.81 20.5213C146.592 20.8311 146.149 21.7756 146.016 21.9969C145.884 22.2182 136.425 39.5569 136.263 39.5274C136.1 39.4979 133.872 35.1005 131.496 32.1492C134.359 29.5816 138.874 21.082 139.893 20.1819C140.114 19.9753 140.571 19.1342 140.335 18.7062C140.099 18.2783 139.775 18.8686 139.125 19.5916C136.07 23.2843 133.274 27.1844 130.758 31.2639C130.498 30.983 130.222 30.717 129.932 30.467C129.74 30.2899 138.668 16.5518 139.229 16.2862L139.288 16.3157ZM104.802 66.4872C104.802 66.3397 103.917 62.9605 103.917 62.9605C103.666 61.8832 103.459 61.6471 102.884 61.8685C102.308 62.0898 101.969 62.9605 101.866 63.1523C101.866 60.9093 105.451 41.1063 105.496 41.0178C108.196 28.6372 120.562 25.9221 126.154 30.2457C128.456 32.0164 131.747 35.7498 136.617 43.5264C141.221 50.9045 138.815 58.7254 137.738 57.4711C136.071 55.4938 136.263 55.4938 135.23 54.9773C134.197 54.4608 133.754 55.1691 133.665 55.9512C133.81 56.9296 133.81 57.924 133.665 58.9025C133.547 59.3599 133.4 59.3156 131.024 60.3781C130.139 60.7618 130.537 59.1828 128.309 57.6187C128.537 56.3185 128.606 54.9956 128.515 53.6787C130.699 52.0113 131.467 51.6424 131.718 49.8421C131.795 49.1747 131.719 48.4985 131.496 47.8647C131.039 46.7728 130.021 45.607 128.545 46.2268C128.132 46.3891 128.132 46.3891 127.94 46.0054C127.821 45.7428 127.688 45.4866 127.542 45.2381C127.099 44.5298 126.73 45.3266 126.73 45.7988C126.73 46.271 127.379 48.3517 127.379 48.3812C127.379 48.4107 127.763 48.8829 127.969 48.6763C128.84 47.7614 129.091 47.2007 129.445 47.8795C129.722 48.4627 129.83 49.1122 129.755 49.7535C129.755 50.4618 128.279 51.6719 127.792 51.908C127.305 52.1441 127.276 52.5572 127.276 53.0885C127.276 53.1918 126.509 61.8537 126.509 61.9423C126.509 63.3294 128.604 64.5541 130.139 64.3328C130.242 64.3328 130.39 64.5984 130.33 64.6869C128.855 67.2841 129.091 71.4306 128.515 71.6372C126.866 72.2543 125.109 72.5304 123.351 72.4488C121.491 72.3012 119.455 71.5929 119.706 70.9731C119.868 70.5895 122.569 64.9821 122.657 64.923C122.923 64.4361 122.746 64.1852 122.539 63.8163C121.843 62.3871 121.394 60.8504 121.211 59.2714C121.151 58.9659 120.996 58.6872 120.768 58.4752C120.54 58.2631 120.251 58.1286 119.942 58.0909C118.968 57.8843 117.374 59.05 113.582 58.2532C113.224 58.1299 112.894 57.9357 112.613 57.6822C112.331 57.4286 112.104 57.121 111.944 56.7775C110.144 53.5607 109.509 46.64 109.347 45.4742C109.326 44.9872 109.156 44.5184 108.86 44.1314C108.86 44.1314 109.436 43.3788 112.328 39.4536C113.188 40.4238 114.258 41.1857 115.456 41.6818C114.923 41.9269 114.426 42.2447 113.98 42.6262C112.977 43.4673 113.243 44.4118 114.718 43.7477C115.434 43.3548 116.185 43.0288 116.961 42.7738C118.688 42.6262 121.521 45.2676 126.464 44.3232C127.586 44.1019 127.851 43.187 127.055 43.0837C117.256 41.9032 116.356 39.7635 112.475 37.5648C112.151 37.373 111.797 37.1959 111.428 37.0041C111.059 36.8122 110.675 37.1959 110.616 37.5943C110.35 39.4094 108.034 42.0212 107.193 43.6592C106.853 44.2937 106.809 44.7511 107.34 44.884C107.871 45.0168 107.93 44.884 107.96 45.5775C107.96 47.6434 108.285 54.0181 111.472 58.4155C111.601 58.5843 111.701 58.7739 111.767 58.9762C111.767 59.0943 107.96 67.9776 107.753 67.83C106.912 67.1365 105.156 67.83 104.743 66.4429L104.802 66.4872ZM97.4681 84.6227C97.4681 84.4309 97.6009 84.2981 97.7337 84.2833C98.2945 84.2833 97.9108 85.0949 98.2355 85.5376C98.4313 86.0047 98.4676 86.5234 98.3388 87.0133C98.2502 87.4707 97.8518 87.8249 97.8075 87.456C97.8075 87.3379 97.4534 85.6852 97.4386 85.6557C97.3833 85.3126 97.3933 84.9621 97.4681 84.6227ZM96.6565 85.7295C97.5124 87.6921 96.7451 89.6104 96.5532 88.9316C96.45 88.5184 95.9925 87.9872 96.0958 87.456C96.1991 86.9247 95.904 86.2459 95.963 85.7442C95.9777 85.6409 96.3909 85.1245 96.6565 85.7295ZM95.3432 89.1972C95.4908 89.5809 96.1843 90.5253 95.8892 90.8056C95.5941 91.086 95.6826 91.5435 95.6236 91.9271C95.5055 92.901 94.5906 90.2892 94.4136 89.4038C94.3398 88.9611 95.0038 88.2971 95.3432 89.1972ZM86.9321 124.863C86.8278 124.91 86.7128 124.927 86.5993 124.914C86.4858 124.901 86.378 124.857 86.2874 124.787C86.1967 124.718 86.1265 124.625 86.0841 124.519C86.0417 124.413 86.0288 124.297 86.0467 124.184C86.0467 123.904 86.0467 123.402 86.1795 123.314C86.5337 123.048 87.8027 123.727 87.7437 124.007C87.551 124.358 87.2715 124.652 86.9321 124.863ZM89.6325 122.694C89.0352 122.826 88.4132 122.793 87.8334 122.598C87.2536 122.403 86.7379 122.054 86.3419 121.587C86.3419 121.44 85.6778 116.068 86.0615 115.478C86.2238 115.242 86.5632 115.154 87.2568 114.785C87.5519 114.608 87.6699 115.478 87.4043 115.714C86.8731 116.172 87.0059 117.839 88.4077 116.614C89.0718 116.024 89.4997 115.921 89.7211 115.98C89.9424 116.039 90.0457 115.98 89.8539 118.37C89.8539 118.695 90.3113 119.521 90.9311 119.094C91.5508 118.666 91.7574 118.002 92.0083 118.031C92.2592 118.061 92.3182 118.577 92.3182 120.289C91.5387 121.211 90.6349 122.021 89.6325 122.694ZM94.7087 116.526C94.0889 117.352 93.9561 117.205 94.0889 116.865C94.3988 116.068 92.9675 115.08 92.1559 115.95C91.3443 116.821 91.359 116.585 91.3885 115.095C91.3885 112.911 89.1308 115.552 88.7029 114.977C88.4668 114.667 88.8799 114.475 88.939 114.194C89.0718 113.589 88.4668 112.999 87.9946 113.442C87.5224 113.885 87.0502 113.589 87.124 113.324C87.1977 113.058 92.451 100.264 94.812 94.8489C94.8502 94.7308 94.9175 94.6243 95.0078 94.5392C95.0981 94.4541 95.2084 94.3931 95.3285 94.3619C96.3467 94.052 96.6565 92.296 96.5532 91.5582C96.45 90.8204 97.6157 90.9827 97.778 89.2562C100.582 89.0644 99.2537 86.1131 99.5488 85.4196C99.7406 85.2868 112.092 65.0854 112.977 59.6993C112.984 59.6513 113 59.6052 113.026 59.5643C113.052 59.5233 113.087 59.4884 113.127 59.4618C113.168 59.4352 113.214 59.4177 113.261 59.4103C113.309 59.4029 113.358 59.4058 113.405 59.4189C115.346 59.8726 117.366 59.8726 119.307 59.4189C119.431 59.381 119.565 59.3884 119.684 59.4398C119.803 59.4911 119.899 59.5831 119.957 59.6993C120.398 61.0806 120.719 62.4976 120.916 63.9344C120.975 64.284 120.913 64.6434 120.739 64.9526C120.65 65.1149 115.633 75.6952 114.718 77.9824C114.821 76.854 114.68 75.7167 114.305 74.6475C114.209 74.3221 113.991 74.046 113.698 73.8759C113.404 73.7057 113.056 73.6545 112.726 73.7326C112.372 73.8801 112.018 74.131 111.974 74.4409C111.929 74.7508 111.693 74.5737 111.59 74.4409C110.926 73.8654 111.073 73.1866 109.509 72.434C108.875 72.1241 108.122 72.921 108.506 73.5112L109.598 75.4591C108.978 75.3115 108.329 74.6622 107.753 74.5589C107.178 74.4556 106.75 75.2377 106.986 75.6509C107.222 76.0641 107.473 76.1231 107.916 76.6396C108.152 76.9199 108.211 77.1413 107.827 77.2741C107.499 77.38 107.186 77.5289 106.897 77.7168C106.101 78.2333 106.204 78.7792 106.897 79.1924C107.764 79.582 108.707 79.7687 109.657 79.7384C109.849 79.7384 110.011 79.9893 109.657 80.0335C108.786 80.1663 107.827 80.7713 107.916 81.2288C107.943 81.4281 108.024 81.6165 108.148 81.7746C108.272 81.9328 108.437 82.055 108.624 82.1289C109.523 82.482 110.477 82.6719 111.442 82.6897C111.478 82.6833 111.514 82.6846 111.549 82.6934C111.583 82.7022 111.616 82.7183 111.644 82.7407C111.672 82.763 111.694 82.7911 111.711 82.823C111.727 82.855 111.736 82.89 111.738 82.9258C111.738 83.2652 111.073 84.1948 110.646 84.9326C106.838 91.4402 97.7042 112.453 94.7087 116.526ZM99.6668 121.971C99.2208 125.395 99.0776 128.851 99.2389 132.3C98.2502 132.3 96.8041 132.212 96.8189 131.445C97.0402 117.943 97.232 116.541 97.2763 115.7C99.1642 116.206 101.088 116.566 103.031 116.777C103.636 116.924 100.11 119.049 99.6668 121.897V121.971ZM101.438 144.179C101.688 146.88 102.913 149.728 102.057 149.669C100.39 148.4 97.9551 149.049 97.3353 148.488C96.7156 147.927 101.438 143.84 101.438 144.179ZM95.1514 159.644C93.9414 154.332 94.7382 151.794 95.9925 150.421C96.568 149.801 99.475 151.041 102.043 151.469C102.884 154.125 104.374 158.759 103.267 161.4C100.623 160.524 97.8921 159.936 95.1219 159.644H95.1514ZM184.811 207.381C183.896 207.381 115.353 181.041 115.205 180.937C115.058 180.834 104.212 176.289 103.282 176.023C102.929 175.908 102.62 175.685 102.398 175.387C102.176 175.088 102.052 174.728 102.043 174.356C102.043 173.795 101.762 169.383 101.747 164.027C101.747 163.303 103.312 163.51 104.477 163.864C105.024 164.838 105.27 165.952 105.186 167.066C104.773 168.276 103.061 169.722 102.839 171.493C102.721 172.511 102.943 173.5 104.595 173.323C106.248 173.146 112.652 169.781 112.092 167.539C114.231 168.35 117.625 169.959 120.473 170.932C119.898 172.408 117.522 174.74 119.485 176.835C120.695 178.178 122.008 177.883 124.576 176.009C127.143 174.135 127.969 174.385 128.073 172.762C128.279 169.176 126.774 164.691 128.471 165.192C130.921 165.915 166.69 181.705 168.564 182.457C168.548 184.869 168.686 187.279 168.977 189.673C161.452 187.666 134.374 176.186 129.814 174.4C128.456 173.884 127.527 174.504 129.194 175.876C135.008 180.495 166.085 193.008 170.512 193.037C172.814 197.051 182.627 199.353 183.793 199.899C184.781 201.257 184.811 204.134 184.781 207.381H184.811ZM233.182 173.544C231.338 174.297 187.88 208.841 187.6 208.295C187.526 208.148 186.832 201.817 186.464 200.46C186.316 199.958 186.98 199.397 187.275 199.265C191.923 197.11 197.442 192.683 202.489 188.124C202.636 187.976 210.354 180.672 231.072 161.267C232.149 163.038 233.669 171.124 233.153 173.544H233.182Z" fill="#001B62"/>
</svg>
