<svg width="59" height="59" viewBox="0 0 59 59" fill="none" xmlns="http://www.w3.org/2000/svg">
<path d="M6.73972 0.164737C6.98838 0.0587792 7.25547 0.00283715 7.52574 0.000105146C7.79602 -0.00262686 8.06419 0.0479048 8.31493 0.148815C8.56568 0.249725 8.79409 0.399037 8.98713 0.588225C9.18017 0.777413 9.33406 1.00277 9.44 1.25143V1.25692L9.44549 1.26515L9.45921 1.29808L9.50861 1.41608L9.69247 1.86339C10.651 4.28163 11.5079 6.73891 12.261 9.22877C13.6523 13.8445 15.093 19.953 15.093 25.5813C15.093 27.2279 14.8543 28.7536 14.4536 30.1861H44.5464C44.1236 28.6877 43.9084 27.1383 43.907 25.5813C43.907 19.953 45.3477 13.8445 46.739 9.22877C47.4921 6.73891 48.3491 4.28163 49.3075 1.86339L49.4914 1.41608L49.5408 1.29808L49.5545 1.26515L49.5573 1.25692C49.7785 0.766267 50.1831 0.37905 50.6844 0.183159C51.1857 -0.0127329 51.7438 -0.00445548 52.2391 0.206217C52.7344 0.416889 53.1274 0.813193 53.334 1.31019C53.5406 1.80719 53.5443 2.36534 53.3442 2.86501V2.8705L53.336 2.8952L53.2921 2.99399L53.1274 3.40013C52.2129 5.7035 51.3962 8.04455 50.6796 10.417C49.3267 14.8982 48.0233 20.554 48.0233 25.5813C48.0233 28.4874 49.0057 30.9792 50.5095 33.6931C51.0281 34.6262 51.6346 35.6251 52.2767 36.6843C53.6873 39.0031 55.2761 41.6184 56.4918 44.4888C57.9572 47.9437 59 51.9612 59 56.9419C59 57.4877 58.7832 58.0112 58.3972 58.3972C58.0112 58.7832 57.4877 59 56.9419 59C56.396 59 55.8725 58.7832 55.4865 58.3972C55.1006 58.0112 54.8837 57.4877 54.8837 56.9419C54.8837 52.853 54.0879 49.5463 52.9381 46.6676C38.136 47.071 32.4665 54.5462 31.4511 57.5922C31.3139 58.001 31.0517 58.3564 30.7016 58.6081C30.3515 58.8599 29.9312 58.9953 29.5 58.9953C29.0688 58.9953 28.6485 58.8599 28.2984 58.6081C27.9483 58.3564 27.6861 58.001 27.5489 57.5922C26.5335 54.5462 20.864 47.071 6.06191 46.6704C4.75452 49.936 4.09374 53.4244 4.11628 56.9419C4.11628 57.4877 3.89944 58.0112 3.51346 58.3972C3.12749 58.7832 2.60399 59 2.05814 59C1.51229 59 0.988791 58.7832 0.602815 58.3972C0.216839 58.0112 0 57.4877 0 56.9419C0 51.9612 1.04279 47.9409 2.50819 44.4888C3.72386 41.6184 5.31274 39.0031 6.72326 36.6843C7.3654 35.6251 7.9746 34.6262 8.49051 33.6931C9.99433 30.9792 10.9767 28.4847 10.9767 25.5813C10.9767 20.554 9.67326 14.8982 8.32037 10.417C7.60374 8.04548 6.78707 5.70534 5.87256 3.40287L5.70791 2.99673L5.664 2.89794L5.65577 2.87324C5.5493 2.62461 5.49289 2.35468 5.48975 2.08423C5.48662 1.81378 5.53682 1.54536 5.63749 1.29432C5.73816 1.04328 5.88732 0.81455 6.07645 0.621198C6.26558 0.427847 6.49097 0.273669 6.73972 0.167482" fill="#7887B0"/>
<path d="M44.5002 24.6751L50.9339 24.6751C51.023 24.6751 51.0676 24.5674 51.0046 24.5044L48.0085 21.5083C47.9455 21.4453 47.9901 21.3375 48.0792 21.3375L54.5128 21.3375" stroke="#FF442B" stroke-width="1.5" stroke-linecap="round"/>
<path d="M42.1359 30L44.8264 35.8441C44.8636 35.925 44.9801 35.9205 45.011 35.8369L46.4796 31.8624C46.5105 31.7789 46.627 31.7743 46.6643 31.8553L49.3547 37.6994" stroke="#FF442B" stroke-width="1.5" stroke-linecap="round"/>
<path d="M37.7598 17.7L42.3091 13.1507C42.3721 13.0877 42.3274 12.98 42.2383 12.98H38.0012C37.9121 12.98 37.8675 12.8723 37.9305 12.8093L42.4798 8.26001" stroke="#FF442B" stroke-width="1.5" stroke-linecap="round"/>
<circle cx="38.5" cy="24" r="3" fill="#FF442B"/>
</svg>
