<svg width="49" height="66" viewBox="0 0 49 66" fill="none" xmlns="http://www.w3.org/2000/svg">
<path d="M22.5 32.7692V47.7797M25 64L22.5 47.7797M43 64C41.9709 59.3816 41.1211 54.7186 40.7259 50.6154C39.7235 40.2075 42.2719 34.19 40.7259 23.8462C39.6636 16.738 36.1694 6 36.1694 6H8.83056C8.83056 6 5.33644 16.738 4.27408 23.8462C2.72814 34.19 5.27646 40.2075 4.27408 50.6154C3.87891 54.7186 3.02911 59.3816 2 64M22.5 47.7797L20 64" stroke="#001B62" stroke-width="4" stroke-linecap="round" stroke-linejoin="round"/>
<path d="M37.5002 17.4151L43.9339 17.4151C44.023 17.4151 44.0676 17.3074 44.0046 17.2444L41.0085 14.2482C40.9455 14.1852 40.9901 14.0775 41.0792 14.0775L47.5128 14.0775" stroke="#FF442B" stroke-width="1.5" stroke-linecap="round"/>
<path d="M35.1359 22.74L37.8264 28.5841C37.8636 28.665 37.9801 28.6605 38.011 28.5769L39.4796 24.6024C39.5105 24.5188 39.627 24.5143 39.6643 24.5953L42.3547 30.4394" stroke="#FF442B" stroke-width="1.5" stroke-linecap="round"/>
<path d="M30.7598 10.44L35.3091 5.89071C35.3721 5.82771 35.3274 5.72 35.2383 5.72H31.0012C30.9121 5.72 30.8675 5.61229 30.9305 5.54929L35.4798 1" stroke="#FF442B" stroke-width="1.5" stroke-linecap="round"/>
<circle cx="31.5" cy="16.74" r="3" fill="#FF442B"/>
</svg>
