<svg width="58" height="64" viewBox="0 0 58 64" fill="none" xmlns="http://www.w3.org/2000/svg">
<path d="M5.9502 3C13.8886 3.9106 32.1963 8.4984 40.2882 19.6634C41.2823 21.0264 42.3237 21.995 44.0347 22.4184C46.1705 22.9404 47.9405 24.3498 48.5836 26.4784C49.268 28.7926 50.5306 31.2344 50.1294 33.711C49.976 34.6593 49.504 35.5322 48.56 37.278L35.7363 61" stroke="#7887B0" stroke-width="5" stroke-linecap="round" stroke-linejoin="round"/>
<path d="M3 32C5.95 37.0054 15.2838 39.5284 26.6 37.0054C23.5992 38.6885 20.919 40.8719 18.6793 43.4579C17.0302 45.3313 16.3281 47.9355 16.2131 50.5687C16.0597 54.0835 15.5287 57.9057 13.6938 61" stroke="#7887B0" stroke-width="5" stroke-linecap="round" stroke-linejoin="round"/>
<path d="M46.6003 33.4151L53.034 33.4151C53.1231 33.4151 53.1677 33.3074 53.1047 33.2444L50.1086 30.2482C50.0456 30.1852 50.0902 30.0775 50.1793 30.0775L56.6129 30.0775" stroke="#FF442B" stroke-width="1.5" stroke-linecap="round"/>
<path d="M44.236 38.74L46.9265 44.5841C46.9637 44.665 47.0802 44.6605 47.1111 44.5769L48.5797 40.6024C48.6106 40.5188 48.7271 40.5143 48.7644 40.5953L51.4548 46.4394" stroke="#FF442B" stroke-width="1.5" stroke-linecap="round"/>
<path d="M39.8599 26.44L44.4092 21.8907C44.4721 21.8277 44.4275 21.72 44.3384 21.72H40.1013C40.0122 21.72 39.9676 21.6123 40.0306 21.5493L44.5799 17" stroke="#FF442B" stroke-width="1.5" stroke-linecap="round"/>
<circle cx="40.6001" cy="32.74" r="3" fill="#FF442B"/>
</svg>
