<svg width="59" height="66" viewBox="0 0 59 66" fill="none" xmlns="http://www.w3.org/2000/svg">
<path d="M13 53.8919C13 53.8919 24.3404 44.6152 17.1776 34.1395C9.23296 22.5173 13.3095 10.4833 23.5969 4.78974C27.6028 2.57299 31.5127 1.79623 35.2719 2.04434C43.5403 2.59082 50.3425 7.96812 50.7992 12.9676C51.2959 18.4292 49.8265 18.9368 51.0443 20.8957C51.7542 22.0357 53.794 23.8649 56.0694 24.5443C58.1061 25.1524 56.68 28.866 52.9592 29.9557C53.0425 31.2011 53.129 33.0595 53.1627 33.9352C51.9609 35.4222 49.5 35.5 46.0192 36.3595C48 39 48.3026 40.7638 52.0923 41.14C50.9866 44.9314 52.6147 46.6325 51.2286 47.9897C49.7464 49.4411 43.8816 50.273 39.7058 49.6503C33.8794 49.06 29.024 62 29.024 62" stroke="#7887B0" stroke-width="4"/>
<path d="M16.8791 47.2858L11.3074 44.0689C11.2302 44.0244 11.1377 44.0953 11.1608 44.1814L12.2574 48.2742C12.2805 48.3602 12.188 48.4312 12.1108 48.3867L6.53912 45.1698" stroke="#FF442B" stroke-width="1.5" stroke-linecap="round"/>
<path d="M21.5891 43.8564L22.1812 37.45C22.1894 37.3613 22.0862 37.307 22.0177 37.3639L18.7586 40.0716C18.6901 40.1285 18.5869 40.0742 18.5951 39.9855L19.1872 33.5791" stroke="#FF442B" stroke-width="1.5" stroke-linecap="round"/>
<path d="M19.2288 56.6965L13.0143 58.3617C12.9283 58.3848 12.9131 58.5004 12.9902 58.5449L16.6597 60.6635C16.7369 60.708 16.7216 60.8236 16.6356 60.8467L10.4211 62.5118" stroke="#FF442B" stroke-width="1.5" stroke-linecap="round"/>
<circle cx="21.7379" cy="50.8704" r="3" transform="rotate(-150 21.7379 50.8704)" fill="#FF442B"/>
</svg>
