<svg width="47" height="62" viewBox="0 0 47 62" fill="none" xmlns="http://www.w3.org/2000/svg">
<path d="M7.3749 60V56.2793C7.37615 53.2808 6.69649 50.3221 5.38834 47.6315L4.55415 45.9147C2.87474 42.4554 2.00101 38.653 2 34.799V19.951C2 17.6658 3.80597 15.8098 6.03046 15.8098C8.25781 15.8098 10.0638 17.6658 10.0638 19.951M31.5634 60V56.2909C31.5691 52.9762 34.989 51.2884 37.7868 49.6383C40.9859 47.7504 43.5487 44.7025 44.7326 41.0369C45.5094 38.6241 43.3566 36.5274 40.7824 36.5274C38.2082 36.5274 36.0238 38.801 34.1605 40.5439C33.9146 40.7769 33.6489 40.9874 33.3665 41.1732C29.7316 43.5193 24.8784 40.6976 24.8784 36.5274C24.8784 32.3572 29.7316 29.5355 33.3665 31.8787C34.2723 32.3601 35.0205 32.9981 35.6168 33.6622C36.9727 35.1702 38.7586 36.5274 40.8053 36.5274C43.4225 36.5274 45.6184 34.3901 44.8415 31.9309C43.8525 28.844 41.9197 26.1547 39.3219 24.2512C36.7241 22.3477 33.5957 21.3283 30.3881 21.3401C27.53 21.3401 26.1856 22.1579 26.1856 22.1579L32.3345 7.6463C33.4095 4.9522 31.4831 2 28.648 2C27.1402 2 25.7613 2.8758 25.0848 4.262L18.1247 18.5706M18.1247 18.5706L16.8404 21.2096M18.1247 18.5706V8.9049C18.1247 6.6168 16.3187 4.7608 14.0942 4.7608C11.8669 4.7608 10.0638 6.6168 10.0638 8.9049V19.9539V29.6196" stroke="#001B62" stroke-width="4" stroke-linecap="round" stroke-linejoin="round"/>
</svg>
