<svg width="64" height="74" viewBox="0 0 64 74" fill="none" xmlns="http://www.w3.org/2000/svg">
<path d="M20.0752 13.7167C19.4763 11.7153 17.3698 10.5801 15.3732 11.1775C13.3742 11.7757 12.2375 13.8814 12.8364 15.8828L18.9646 36.3625C17.4999 38.8526 8.62932 34.142 8.10343 37.305C7.58242 40.4665 10.5619 43.127 11.7861 44.1505L23.3601 51.0604C24.2531 51.7127 24.9094 52.6382 25.2276 53.7016L27.6638 63.0001M23.673 25.7397L19.003 10.1334C18.4041 8.132 19.5384 6.02705 21.5374 5.42887C23.534 4.83141 25.6412 5.969 26.2394 7.96801L31.6541 26.0628M27.6638 12.728C27.0627 10.7194 28.2777 8.58241 30.284 7.98204C32.2903 7.38167 34.4063 8.5219 35.0081 10.533L39.7141 26.2598M36.4794 15.4497C35.8848 13.4628 37.0084 11.3663 38.9903 10.7732C40.9748 10.1794 43.0631 11.3069 43.6569 13.2914L49.8718 34.0604C50.6164 36.5489 50.5329 39.6032 48.7444 43.7508C48.2281 44.951 48.0829 46.2923 48.4574 47.5438L54.5 63.0001" stroke="#7887B0" stroke-width="4" stroke-linecap="round" stroke-linejoin="round"/>
<path d="M47.9325 56.437L53.4732 53.1671C53.55 53.1219 53.5336 53.0064 53.4474 52.9842L49.3443 51.9267C49.258 51.9044 49.2417 51.789 49.3184 51.7437L54.8592 48.4738" stroke="#FF442B" stroke-width="1.5" stroke-linecap="round"/>
<path d="M48.6028 62.2245L53.89 65.8901C53.9633 65.9409 54.0613 65.8778 54.0454 65.7901L53.2902 61.6208C53.2743 61.5331 53.3724 61.47 53.4456 61.5208L58.7329 65.1864" stroke="#FF442B" stroke-width="1.5" stroke-linecap="round"/>
<path d="M38.5825 53.8558L40.1883 47.6257C40.2105 47.5395 40.1173 47.4694 40.0406 47.5147L36.3915 49.6682C36.3148 49.7135 36.2216 49.6434 36.2438 49.5571L37.8496 43.327" stroke="#FF442B" stroke-width="1.5" stroke-linecap="round"/>
<circle cx="42.4218" cy="58.9052" r="3" transform="rotate(-30.547 42.4218 58.9052)" fill="#FF442B"/>
</svg>
