<svg width="50" height="50" viewBox="0 0 50 50" fill="none" xmlns="http://www.w3.org/2000/svg">
<circle cx="24.9574" cy="24.9574" r="24.9574" fill="#001B62"/>
<path d="M25.5048 43.7962C35.8925 43.7962 44.3436 35.3452 44.3436 24.9574C44.3436 14.5697 35.8925 6.11865 25.5048 6.11865C15.1171 6.11865 6.66602 14.5697 6.66602 24.9574C6.66602 35.3452 15.1171 43.7962 25.5048 43.7962ZM32.0852 19.3058C32.4608 19.2962 32.8345 19.3619 33.1844 19.4991C33.5342 19.6362 33.853 19.842 34.122 20.1043C34.391 20.3666 34.6048 20.6802 34.7507 21.0264C34.8966 21.3727 34.9717 21.7446 34.9716 22.1203C34.9715 22.4961 34.8961 22.868 34.7499 23.2141C34.6038 23.5603 34.3898 23.8737 34.1206 24.1358C33.8515 24.3979 33.5325 24.6035 33.1826 24.7404C32.8327 24.8773 32.4589 24.9428 32.0833 24.933C31.3497 24.9137 30.6526 24.6087 30.1407 24.083C29.6287 23.5572 29.3423 22.8523 29.3425 22.1185C29.3428 21.3846 29.6297 20.6799 30.142 20.1545C30.6543 19.6291 31.3516 19.3245 32.0852 19.3058ZM23.9826 32.3404C24.9874 32.5423 26.0222 32.5423 27.027 32.3404C27.5055 32.2411 27.9765 32.0948 28.4399 31.9014C28.8807 31.713 29.314 31.4794 29.719 31.2082C30.1122 30.9394 30.4833 30.6323 30.8324 30.2869C31.1778 29.9428 31.4849 29.5711 31.7536 29.1717L34.8771 31.276C34.066 32.4804 33.0305 33.5172 31.8271 34.3297C30.602 35.1567 29.2265 35.7353 27.7787 36.0328C26.2778 36.3351 24.7316 36.3345 23.231 36.0309C21.7824 35.7385 20.4068 35.1602 19.1844 34.3297C17.9825 33.5134 16.9462 32.4765 16.1306 31.2741L19.2541 29.1698C19.5254 29.5692 19.8318 29.9397 20.1734 30.2813C21.2144 31.3255 22.5388 32.0415 23.9826 32.3404ZM18.9112 19.3058C19.2824 19.3059 19.65 19.3792 19.9929 19.5213C20.3358 19.6635 20.6474 19.8718 20.9098 20.1344C21.1722 20.397 21.3803 20.7087 21.5222 21.0517C21.6642 21.3947 21.7372 21.7623 21.7371 22.1335C21.7369 22.5047 21.6637 22.8723 21.5215 23.2152C21.3793 23.5581 21.171 23.8697 20.9084 24.1321C20.6459 24.3945 20.3342 24.6026 19.9912 24.7445C19.6482 24.8865 19.2806 24.9595 18.9093 24.9593C18.1596 24.9591 17.4407 24.661 16.9108 24.1307C16.3809 23.6004 16.0833 22.8813 16.0835 22.1316C16.0838 21.3819 16.3818 20.663 16.9121 20.1331C17.4424 19.6031 18.1615 19.3056 18.9112 19.3058Z" fill="#F0F2FF"/>
</svg>
