<svg width="51" height="50" viewBox="0 0 51 50" fill="none" xmlns="http://www.w3.org/2000/svg">
<circle cx="25.2132" cy="24.9574" r="24.9574" fill="#7887B0"/>
<path d="M25.7607 43.7962C36.1484 43.7962 44.5995 35.3452 44.5995 24.9574C44.5995 14.5697 36.1484 6.11865 25.7607 6.11865C15.373 6.11865 6.92188 14.5697 6.92188 24.9574C6.92188 35.3452 15.373 43.7962 25.7607 43.7962ZM32.3411 19.3058C32.7167 19.2962 33.0904 19.3619 33.4402 19.4991C33.79 19.6362 34.1088 19.842 34.3779 20.1043C34.6469 20.3666 34.8606 20.6802 35.0065 21.0264C35.1525 21.3727 35.2276 21.7446 35.2274 22.1203C35.2273 22.4961 35.152 22.868 35.0058 23.2141C34.8597 23.5603 34.6457 23.8737 34.3765 24.1358C34.1073 24.3979 33.7884 24.6035 33.4385 24.7404C33.0886 24.8773 32.7148 24.9428 32.3392 24.933C31.6056 24.9137 30.9085 24.6087 30.3965 24.083C29.8845 23.5572 29.5982 22.8523 29.5984 22.1185C29.5986 21.3846 29.8855 20.6799 30.3978 20.1545C30.9102 19.6291 31.6074 19.3245 32.3411 19.3058ZM24.2385 32.3404C25.2432 32.5423 26.2781 32.5423 27.2828 32.3404C27.7613 32.2411 28.2323 32.0948 28.6958 31.9014C29.1366 31.713 29.5699 31.4794 29.9749 31.2082C30.368 30.9394 30.7391 30.6323 31.0883 30.2869C31.4337 29.9428 31.7407 29.5711 32.0095 29.1717L35.133 31.276C34.3219 32.4804 33.2863 33.5172 32.083 34.3297C30.8578 35.1567 29.4824 35.7353 28.0345 36.0328C26.5336 36.3351 24.9875 36.3345 23.4868 36.0309C22.0383 35.7385 20.6626 35.1602 19.4403 34.3297C18.2383 33.5134 17.2021 32.4765 16.3865 31.2741L19.51 29.1698C19.7812 29.5692 20.0877 29.9397 20.4293 30.2813C21.4702 31.3255 22.7947 32.0415 24.2385 32.3404ZM19.1671 19.3058C19.5383 19.3059 19.9059 19.3792 20.2488 19.5213C20.5917 19.6635 20.9032 19.8718 21.1656 20.1344C21.428 20.397 21.6362 20.7087 21.7781 21.0517C21.92 21.3947 21.993 21.7623 21.9929 22.1335C21.9928 22.5047 21.9195 22.8723 21.7774 23.2152C21.6352 23.5581 21.4269 23.8697 21.1643 24.1321C20.9017 24.3945 20.59 24.6026 20.247 24.7445C19.904 24.8865 19.5364 24.9595 19.1652 24.9593C18.4155 24.9591 17.6966 24.661 17.1667 24.1307C16.6367 23.6004 16.3391 22.8813 16.3394 22.1316C16.3396 21.3819 16.6377 20.663 17.168 20.1331C17.6983 19.6031 18.4174 19.3056 19.1671 19.3058Z" fill="#F0F2FF"/>
<path d="M24.2385 32.3404C25.2432 32.5423 26.2781 32.5423 27.2828 32.3404C27.7613 32.2411 28.2323 32.0948 28.6958 31.9014C29.1366 31.713 29.5699 31.4794 29.9749 31.2082C30.368 30.9394 30.7391 30.6323 31.0883 30.2869C31.4337 29.9428 31.7407 29.5711 32.0095 29.1717L35.133 31.276C34.3219 32.4804 33.2863 33.5172 32.083 34.3297C30.8578 35.1567 29.4824 35.7353 28.0345 36.0328C26.5336 36.3351 24.9875 36.3345 23.4868 36.0309C22.0383 35.7385 20.6626 35.1602 19.4403 34.3297C18.2383 33.5134 17.2021 32.4765 16.3865 31.2741L19.51 29.1698C19.7812 29.5692 20.0877 29.9397 20.4293 30.2813C21.4702 31.3255 22.7947 32.0415 24.2385 32.3404Z" fill="#F0F2FF"/>
<path d="M17.2559 34.1111L19.367 32L22.5336 34.1111L25.7003 32L28.867 34.1111L32.0336 32L34.1447 34.1111" stroke="#7887B0" stroke-width="3" stroke-linecap="square" stroke-linejoin="round"/>
</svg>
