<svg width="51" height="50" viewBox="0 0 51 50" fill="none" xmlns="http://www.w3.org/2000/svg">
<circle cx="25.8368" cy="24.9574" r="24.9574" fill="#001B62"/>
<path d="M25.998 6.11865C15.6103 6.11865 7.15918 14.5697 7.15918 24.9574C7.15918 35.3452 15.6103 43.7962 25.998 43.7962C36.3857 43.7962 44.8368 35.3452 44.8368 24.9574C44.8368 14.5697 36.3857 6.11865 25.998 6.11865ZM16.5786 22.1316C16.5788 21.3819 16.8769 20.663 17.4072 20.1331C17.6698 19.8707 17.9814 19.6626 18.3245 19.5206C18.6675 19.3787 19.0351 19.3057 19.4063 19.3058C19.7775 19.3059 20.1451 19.3792 20.488 19.5213C20.8309 19.6635 21.1424 19.8718 21.4048 20.1344C21.6672 20.397 21.8753 20.7087 22.0173 21.0517C22.1592 21.3947 22.2322 21.7623 22.2321 22.1335C22.2318 22.8832 21.9338 23.6021 21.4035 24.1321C20.8732 24.662 20.1541 24.9596 19.4044 24.9593C18.6547 24.9591 17.9358 24.661 17.4058 24.1307C16.8759 23.6004 16.5783 22.8813 16.5786 22.1316ZM18.4625 34.3768C18.4625 34.3768 20.3463 28.7252 25.998 28.7252C31.6496 28.7252 33.5335 34.3768 33.5335 34.3768H18.4625ZM32.5784 24.9311C32.2028 24.9407 31.829 24.875 31.4792 24.7378C31.1294 24.6007 30.8106 24.3949 30.5416 24.1326C30.2726 23.8702 30.0588 23.5567 29.9129 23.2105C29.767 22.8642 29.6919 22.4923 29.692 22.1165C29.6921 21.7408 29.7675 21.3689 29.9136 21.0227C30.0598 20.6766 30.2737 20.3632 30.5429 20.1011C30.8121 19.8389 31.1311 19.6334 31.481 19.4964C31.8309 19.3595 32.2046 19.2941 32.5802 19.3039C33.3138 19.3232 34.0109 19.6281 34.5229 20.1539C35.0349 20.6796 35.3213 21.3846 35.321 22.1184C35.3208 22.8523 35.0339 23.557 34.5216 24.0824C34.0093 24.6078 33.312 24.9123 32.5784 24.9311Z" fill="#F0F2FF"/>
</svg>
