<svg width="50" height="50" viewBox="0 0 50 50" fill="none" xmlns="http://www.w3.org/2000/svg">
<circle cx="24.8438" cy="24.8438" r="24.8438" fill="#7887B0"/>
<path d="M24.6838 43.5973C14.3264 43.5973 5.93066 35.2015 5.93066 24.8442C5.93066 14.4868 14.3264 6.09106 24.6838 6.09106C35.0411 6.09106 43.4369 14.4868 43.4369 24.8442C43.4369 35.2015 35.0411 43.5973 24.6838 43.5973ZM17.1825 26.7195C17.1825 28.7089 17.9728 30.6169 19.3796 32.0236C20.7863 33.4304 22.6943 34.2207 24.6838 34.2207C26.6732 34.2207 28.5812 33.4304 29.9879 32.0236C31.3947 30.6169 32.185 28.7089 32.185 26.7195H17.1825ZM17.1825 22.9689C17.9286 22.9689 18.6441 22.6725 19.1716 22.145C19.6991 21.6174 19.9955 20.9019 19.9955 20.1559C19.9955 19.4098 19.6991 18.6944 19.1716 18.1668C18.6441 17.6393 17.9286 17.3429 17.1825 17.3429C16.4365 17.3429 15.721 17.6393 15.1935 18.1668C14.6659 18.6944 14.3696 19.4098 14.3696 20.1559C14.3696 20.9019 14.6659 21.6174 15.1935 22.145C15.721 22.6725 16.4365 22.9689 17.1825 22.9689ZM32.185 22.9689C32.931 22.9689 33.6465 22.6725 34.1741 22.145C34.7016 21.6174 34.998 20.9019 34.998 20.1559C34.998 19.4098 34.7016 18.6944 34.1741 18.1668C33.6465 17.6393 32.931 17.3429 32.185 17.3429C31.439 17.3429 30.7235 17.6393 30.1959 18.1668C29.6684 18.6944 29.372 19.4098 29.372 20.1559C29.372 20.9019 29.6684 21.6174 30.1959 22.145C30.7235 22.6725 31.439 22.9689 32.185 22.9689Z" fill="#F0F2FF"/>
</svg>
