<svg width="50" height="50" viewBox="0 0 50 50" fill="none" xmlns="http://www.w3.org/2000/svg">
<circle cx="24.9574" cy="24.9574" r="24.9574" fill="#001B62"/>
<path d="M24.9574 6.11865C14.5697 6.11865 6.11865 14.5697 6.11865 24.9574C6.11865 35.3452 14.5697 43.7962 24.9574 43.7962C35.3452 43.7962 43.7962 35.3452 43.7962 24.9574C43.7962 14.5697 35.3452 6.11865 24.9574 6.11865ZM15.538 22.1316C15.5383 21.3819 15.8364 20.663 16.3667 20.1331C16.6292 19.8707 16.9409 19.6626 17.2839 19.5206C17.6269 19.3787 17.9945 19.3057 18.3658 19.3058C18.737 19.3059 19.1045 19.3792 19.4474 19.5213C19.7903 19.6635 20.1019 19.8718 20.3643 20.1344C20.6267 20.397 20.8348 20.7087 20.9768 21.0517C21.1187 21.3947 21.1917 21.7623 21.1916 22.1335C21.1913 22.8832 20.8933 23.6021 20.363 24.1321C19.8327 24.662 19.1136 24.9596 18.3639 24.9593C17.6142 24.9591 16.8953 24.661 16.3653 24.1307C15.8354 23.6004 15.5378 22.8813 15.538 22.1316ZM32.493 34.3768H17.3729V30.6091H32.493V34.3768ZM31.5378 24.9311C31.1622 24.9407 30.7885 24.875 30.4387 24.7378C30.0889 24.6007 29.7701 24.3949 29.501 24.1326C29.232 23.8702 29.0183 23.5567 28.8724 23.2105C28.7264 22.8642 28.6513 22.4923 28.6515 22.1165C28.6516 21.7408 28.7269 21.3689 28.8731 21.0227C29.0192 20.6766 29.2332 20.3632 29.5024 20.1011C29.7716 19.8389 30.0905 19.6334 30.4404 19.4964C30.7903 19.3595 31.1641 19.2941 31.5397 19.3039C32.2733 19.3232 32.9704 19.6281 33.4824 20.1539C33.9943 20.6796 34.2807 21.3846 34.2805 22.1184C34.2802 22.8523 33.9934 23.557 33.4811 24.0824C32.9687 24.6078 32.2714 24.9123 31.5378 24.9311Z" fill="#F0F2FF"/>
</svg>
