<svg width="50" height="50" viewBox="0 0 50 50" fill="none" xmlns="http://www.w3.org/2000/svg">
<circle cx="24.8438" cy="24.8438" r="24.8438" fill="#001B62"/>
<path d="M25.1847 6.09106C26.9062 6.09106 28.5666 6.31083 30.166 6.75035C31.7654 7.18988 33.2549 7.82475 34.6345 8.65496C36.0142 9.48518 37.2778 10.4619 38.4255 11.5851C39.5731 12.7084 40.5559 13.972 41.3739 15.376C42.1919 16.7801 42.8207 18.2757 43.2602 19.8629C43.6998 21.45 43.9256 23.1105 43.9378 24.8442C43.9378 26.5656 43.7181 28.2261 43.2785 29.8255C42.839 31.4248 42.2042 32.9143 41.3739 34.294C40.5437 35.6736 39.567 36.9372 38.4438 38.0849C37.3205 39.2325 36.0569 40.2154 34.6529 41.0334C33.2488 41.8514 31.7532 42.4801 30.166 42.9197C28.5789 43.3592 26.9184 43.585 25.1847 43.5973C23.4633 43.5973 21.8028 43.3775 20.2034 42.938C18.6041 42.4984 17.1146 41.8636 15.7349 41.0334C14.3553 40.2031 13.0917 39.2264 11.944 38.1032C10.7964 36.98 9.81355 35.7163 8.99554 34.3123C8.17753 32.9082 7.54877 31.4126 7.10924 29.8255C6.66972 28.2383 6.44385 26.5778 6.43164 24.8442C6.43164 23.1227 6.6514 21.4623 7.09093 19.8629C7.53045 18.2635 8.16533 16.774 8.99554 15.3944C9.82576 14.0147 10.8025 12.7511 11.9257 11.6034C13.0489 10.4558 14.3126 9.47297 15.7166 8.65496C17.1207 7.83696 18.6163 7.20819 20.2034 6.76867C21.7906 6.32914 23.4511 6.10327 25.1847 6.09106ZM18.1523 17.2257C17.7494 17.2257 17.3709 17.299 17.0169 17.4455C16.6628 17.592 16.3515 17.8056 16.0829 18.0865C15.8143 18.3673 15.6067 18.6786 15.4602 19.0204C15.3137 19.3623 15.2344 19.7408 15.2222 20.1559C15.2222 20.5588 15.2954 20.9373 15.4419 21.2913C15.5884 21.6454 15.8021 21.9567 16.0829 22.2253C16.3637 22.4939 16.675 22.7015 17.0169 22.848C17.3587 22.9945 17.7372 23.0739 18.1523 23.0861C18.5552 23.0861 18.9337 23.0128 19.2878 22.8663C19.6418 22.7198 19.9532 22.5061 20.2218 22.2253C20.4904 21.9445 20.6979 21.6332 20.8444 21.2913C20.9909 20.9495 21.0703 20.571 21.0825 20.1559C21.0825 19.753 21.0092 19.3745 20.8627 19.0204C20.7162 18.6664 20.5026 18.3551 20.2218 18.0865C19.941 17.8179 19.6296 17.6103 19.2878 17.4638C18.9459 17.3173 18.5674 17.2379 18.1523 17.2257ZM34.7078 33.2684C34.0973 32.5969 33.4319 31.9926 32.7116 31.4554C31.9913 30.9182 31.2282 30.4664 30.4224 30.1002C29.6166 29.7339 28.7681 29.447 27.8768 29.2394C26.9856 29.0319 26.0882 28.9342 25.1847 28.9464C24.2691 28.9464 23.3717 29.0441 22.4926 29.2394C21.6136 29.4348 20.7712 29.7156 19.9654 30.0818C19.1596 30.4481 18.3904 30.906 17.6579 31.4554C16.9253 32.0048 16.2599 32.6091 15.6617 33.2684L18.2988 35.5942C19.1779 34.6053 20.2096 33.8361 21.3938 33.2867C22.5781 32.7373 23.8417 32.4626 25.1847 32.4626C26.5155 32.4626 27.7731 32.7373 28.9573 33.2867C30.1416 33.8361 31.1794 34.6053 32.0706 35.5942L34.7078 33.2684ZM32.2171 23.0861C32.62 23.0861 32.9985 23.0128 33.3526 22.8663C33.7067 22.7198 34.018 22.5061 34.2866 22.2253C34.5552 21.9445 34.7627 21.6332 34.9092 21.2913C35.0558 20.9495 35.1351 20.571 35.1473 20.1559C35.1473 19.753 35.0741 19.3745 34.9276 19.0204C34.781 18.6664 34.5674 18.3551 34.2866 18.0865C34.0058 17.8179 33.6944 17.6103 33.3526 17.4638C33.0107 17.3173 32.6323 17.2379 32.2171 17.2257C31.8143 17.2257 31.4358 17.299 31.0817 17.4455C30.7276 17.592 30.4163 17.8056 30.1477 18.0865C29.8791 18.3673 29.6716 18.6786 29.5251 19.0204C29.3785 19.3623 29.2992 19.7408 29.287 20.1559C29.287 20.5588 29.3602 20.9373 29.5067 21.2913C29.6532 21.6454 29.8669 21.9567 30.1477 22.2253C30.4285 22.4939 30.7399 22.7015 31.0817 22.848C31.4236 22.9945 31.802 23.0739 32.2171 23.0861Z" fill="#F0F2FF"/>
</svg>
