<svg width="32" height="37" viewBox="0 0 32 37" fill="none" xmlns="http://www.w3.org/2000/svg">
<path d="M9.65714 1.2791L9.14286 2.3125H2.28571C1.02143 2.3125 0 3.3459 0 4.625C0 5.9041 1.02143 6.9375 2.28571 6.9375H29.7143C30.9786 6.9375 32 5.9041 32 4.625C32 3.3459 30.9786 2.3125 29.7143 2.3125H22.8571L22.3429 1.2791C21.9571 0.491406 21.1643 0 20.3 0H11.7C10.8357 0 10.0429 0.491406 9.65714 1.2791ZM29.7143 9.25H2.28571L3.8 33.748C3.91429 35.5764 5.41429 37 7.22143 37H24.7786C26.5857 37 28.0857 35.5764 28.2 33.748L29.7143 9.25Z" fill="#EF3017"/>
</svg>
