<svg width="17" height="18" viewBox="0 0 17 18" fill="none" xmlns="http://www.w3.org/2000/svg">
<path d="M10.3164 0.664256C9.68489 1.33295 9.35764 2.49844 9.59564 3.41104C9.72229 3.89343 9.74269 4.47753 9.40864 4.83213L4.56368 9.96209C4.22878 10.3158 3.67713 10.2942 3.22069 10.1601C2.35964 9.90809 1.2589 10.2546 0.627353 10.9233C0.428497 11.1338 0.270745 11.3837 0.163104 11.6587C0.0554621 11.9338 3.94857e-05 12.2286 2.11196e-08 12.5263C-7.96813e-05 13.1276 0.225433 13.7043 0.626928 14.1295C1.02842 14.5547 1.57301 14.7937 2.14089 14.7938C2.70877 14.7939 3.25342 14.5551 3.65503 14.13C3.25354 14.5552 3.02802 15.1319 3.0281 15.7332C3.02818 16.3345 3.25385 16.9111 3.65546 17.3362C4.05707 17.7613 4.60172 18.0001 5.1696 18C5.73748 17.9999 6.28207 17.761 6.68356 17.3357C7.31511 16.667 7.64236 15.5016 7.40436 14.589C7.27771 14.1066 7.25731 13.5225 7.59136 13.1679L12.4363 8.03791C12.7712 7.68421 13.3229 7.70581 13.7793 7.83991C14.6404 8.09191 15.7411 7.74541 16.3726 7.07671C16.7743 6.6516 16.9999 6.07498 17 5.47369C17.0001 4.87241 16.7746 4.29572 16.3731 3.87048C16.1743 3.65993 15.9382 3.4929 15.6785 3.37893C15.4187 3.26495 15.1403 3.20627 14.8591 3.20623C14.2912 3.20614 13.7466 3.44492 13.345 3.87003C13.7465 3.4448 13.972 2.86811 13.9719 2.26683C13.9718 1.66554 13.7461 1.08892 13.3445 0.663806C12.9429 0.238694 12.3983 -8.4364e-05 11.8304 2.23595e-08C11.2625 8.44087e-05 10.7179 0.239024 10.3164 0.664256Z" fill="white"/>
</svg>
