<svg width="40" height="46" viewBox="0 0 40 46" fill="none" xmlns="http://www.w3.org/2000/svg">
<path d="M37.7778 46H6.66667C4.89856 46 3.20286 45.273 1.95262 43.979C0.702379 42.685 0 40.93 0 39.1V6.9C0 5.07001 0.702379 3.31496 1.95262 2.02096C3.20286 0.726962 4.89856 0 6.66667 0H37.7778C38.3671 0 38.9324 0.242321 39.3491 0.673654C39.7659 1.10499 40 1.69 40 2.3V43.7C40 44.31 39.7659 44.895 39.3491 45.3263C38.9324 45.7577 38.3671 46 37.7778 46ZM35.5556 41.4V36.8H6.66667C6.0773 36.8 5.51207 37.0423 5.09532 37.4737C4.67857 37.905 4.44444 38.49 4.44444 39.1C4.44444 39.71 4.67857 40.295 5.09532 40.7263C5.51207 41.1577 6.0773 41.4 6.66667 41.4H35.5556ZM20 18.4C21.1787 18.4 22.3092 17.9154 23.1427 17.0527C23.9762 16.19 24.4444 15.02 24.4444 13.8C24.4444 12.58 23.9762 11.41 23.1427 10.5473C22.3092 9.68464 21.1787 9.2 20 9.2C18.8213 9.2 17.6908 9.68464 16.8573 10.5473C16.0238 11.41 15.5556 12.58 15.5556 13.8C15.5556 15.02 16.0238 16.19 16.8573 17.0527C17.6908 17.9154 18.8213 18.4 20 18.4ZM13.3333 27.6H26.6667C26.6667 25.77 25.9643 24.015 24.714 22.721C23.4638 21.427 21.7681 20.7 20 20.7C18.2319 20.7 16.5362 21.427 15.286 22.721C14.0357 24.015 13.3333 25.77 13.3333 27.6Z" fill="#001B62"/>
</svg>
