<svg width="17" height="17" viewBox="0 0 17 17" fill="none" xmlns="http://www.w3.org/2000/svg">
<path d="M15.758 5.52803L10.958 0.728029L11.383 0.303029C11.587 0.0990289 11.8343 -0.00197087 12.125 2.91263e-05C12.4163 0.00202913 12.664 0.105029 12.868 0.309029L16.188 3.64903C16.3927 3.85303 16.495 4.09636 16.495 4.37903C16.495 4.6617 16.393 4.90503 16.189 5.10903L15.758 5.52803ZM5.106 16.211C4.91467 16.4024 4.678 16.5044 4.396 16.517C4.114 16.5297 3.877 16.4407 3.685 16.25L0.306 12.89C0.102 12.686 0 12.4394 0 12.15C0 11.8614 0.102 11.615 0.306 11.411L0.802 10.915L5.602 15.715L5.106 16.211ZM8.424 16.146C8.262 16.3074 8.07333 16.388 7.858 16.388C7.64267 16.388 7.45433 16.3074 7.293 16.146L0.371 9.22403C0.209 9.06203 0.128 8.87336 0.128 8.65803C0.128 8.4427 0.208667 8.25436 0.37 8.09303L1.853 6.60403C2.015 6.4427 2.20467 6.36203 2.422 6.36203C2.63933 6.36203 2.82867 6.4427 2.99 6.60403L4.853 8.48703L8.541 4.79903L6.659 2.93503C6.497 2.7737 6.416 2.58536 6.416 2.37003C6.416 2.1547 6.497 1.96603 6.659 1.80403L8.141 0.297029C8.303 0.135029 8.49567 0.054029 8.719 0.054029C8.94233 0.054029 9.135 0.134696 9.297 0.296029L16.218 7.21703C16.38 7.37903 16.461 7.5717 16.461 7.79503C16.461 8.01836 16.38 8.21103 16.218 8.37303L14.711 9.85603C14.549 10.0174 14.3603 10.098 14.145 10.098C13.9297 10.098 13.7413 10.0174 13.58 9.85603L11.716 7.97303L8.028 11.662L9.911 13.525C10.0723 13.6864 10.153 13.8757 10.153 14.093C10.153 14.3104 10.0723 14.5 9.911 14.662L8.424 16.146Z" fill="white"/>
</svg>
