<svg width="42" height="42" viewBox="0 0 42 42" fill="none" xmlns="http://www.w3.org/2000/svg">
<path d="M24.3056 22.7542C24.3056 22.0684 24.578 21.4107 25.0629 20.9258C25.5479 20.4409 26.2055 20.1685 26.8913 20.1685C27.5771 20.1685 28.2348 20.4409 28.7197 20.9258C29.2046 21.4107 29.477 22.0684 29.477 22.7542C29.477 23.44 29.2046 24.0976 28.7197 24.5826C28.2348 25.0675 27.5771 25.3399 26.8913 25.3399C26.2055 25.3399 25.5479 25.0675 25.0629 24.5826C24.578 24.0976 24.3056 23.44 24.3056 22.7542ZM41.3713 20.6856V41.3713H0V20.6856C0 9.30853 9.30853 0 20.6856 0C32.0627 0 41.3713 9.30853 41.3713 20.6856ZM4.13713 20.6856C4.13713 29.808 11.5633 37.2341 20.6856 37.2341C29.808 37.2341 37.2341 29.808 37.2341 20.6856C37.2341 19.0515 36.9859 17.4794 36.5515 16.0107C32.5525 16.9408 28.3668 16.6562 24.5305 15.1931C20.6942 13.7301 17.3819 11.1553 15.0178 7.79848C12.9906 12.7423 9.12236 16.7347 4.24055 18.9067C4.13713 19.4859 4.13713 20.0857 4.13713 20.6856ZM14.4799 25.3399C15.1657 25.3399 15.8234 25.0675 16.3083 24.5826C16.7932 24.0976 17.0656 23.44 17.0656 22.7542C17.0656 22.0684 16.7932 21.4107 16.3083 20.9258C15.8234 20.4409 15.1657 20.1685 14.4799 20.1685C13.7942 20.1685 13.1365 20.4409 12.6516 20.9258C12.1667 21.4107 11.8942 22.0684 11.8942 22.7542C11.8942 23.44 12.1667 24.0976 12.6516 24.5826C13.1365 25.0675 13.7942 25.3399 14.4799 25.3399Z" fill="white"/>
</svg>
