<svg width="46" height="46" viewBox="0 0 46 46" fill="none" xmlns="http://www.w3.org/2000/svg">
<path d="M16.1001 22.4251C15.3376 22.4251 14.6063 22.728 14.0671 23.2672C13.528 23.8063 13.2251 24.5376 13.2251 25.3001C13.2251 26.0626 13.528 26.7939 14.0671 27.3331C14.6063 27.8722 15.3376 28.1751 16.1001 28.1751C16.4776 28.1751 16.8515 28.1008 17.2003 27.9563C17.5491 27.8118 17.866 27.6 18.133 27.3331C18.4 27.0661 18.6118 26.7491 18.7562 26.4003C18.9007 26.0515 18.9751 25.6777 18.9751 25.3001C18.9751 24.9226 18.9007 24.5487 18.7562 24.1999C18.6118 23.8511 18.4 23.5341 18.133 23.2672C17.866 23.0002 17.5491 22.7884 17.2003 22.6439C16.8515 22.4995 16.4776 22.4251 16.1001 22.4251ZM29.9001 22.4251C29.1376 22.4251 28.4064 22.728 27.8672 23.2672C27.328 23.8063 27.0251 24.5376 27.0251 25.3001C27.0251 26.0626 27.328 26.7939 27.8672 27.3331C28.4064 27.8722 29.1376 28.1751 29.9001 28.1751C30.6626 28.1751 31.3939 27.8722 31.9331 27.3331C32.4722 26.7939 32.7751 26.0626 32.7751 25.3001C32.7751 24.5376 32.4722 23.8063 31.9331 23.2672C31.3939 22.728 30.6626 22.4251 29.9001 22.4251ZM23.0001 0C19.9797 0 16.9888 0.594915 14.1983 1.75078C11.4078 2.90664 8.87233 4.60082 6.73657 6.73657C2.42322 11.0499 0 16.9001 0 23.0001C0 29.1001 2.42322 34.9503 6.73657 39.2636C8.87233 41.3994 11.4078 43.0936 14.1983 44.2494C16.9888 45.4053 19.9797 46.0002 23.0001 46.0002C29.1001 46.0002 34.9503 43.577 39.2636 39.2636C43.577 34.9503 46.0002 29.1001 46.0002 23.0001C46.0002 19.9797 45.4053 16.9888 44.2494 14.1983C43.0936 11.4078 41.3994 8.87233 39.2636 6.73657C37.1279 4.60082 34.5924 2.90664 31.8019 1.75078C29.0114 0.594915 26.0205 0 23.0001 0ZM23.0001 41.4002C12.8571 41.4002 4.60002 33.1432 4.60002 23.0001C4.60002 22.3331 4.60002 21.6661 4.71502 21.0221C10.143 18.6071 14.4441 14.1681 16.6981 8.67104C19.3267 12.4035 23.0096 15.2664 27.2752 16.8931C31.5407 18.5198 36.1947 18.8363 40.6412 17.8021C41.1242 19.4351 41.4002 21.1831 41.4002 23.0001C41.4002 33.1432 33.1432 41.4002 23.0001 41.4002Z" fill="#8495C0"/>
</svg>
