<svg width="52" height="52" viewBox="0 0 52 52" fill="none" xmlns="http://www.w3.org/2000/svg">
<path d="M31.5558 1.91896C29.6239 3.85075 28.6229 7.21773 29.3509 9.85411C29.7383 11.2477 29.8007 12.9351 28.7789 13.9595L25.4509 17.2875C25.4098 17.3296 25.3795 17.381 25.3627 17.4374C25.3458 17.4938 25.3429 17.5535 25.3541 17.6112C25.3654 17.669 25.3905 17.7232 25.4272 17.7691C25.464 17.8151 25.5114 17.8514 25.5653 17.8751C29.4112 19.5239 32.4757 22.5884 34.1246 26.4342C34.1481 26.4886 34.1845 26.5364 34.2307 26.5735C34.2768 26.6106 34.3313 26.6359 34.3895 26.6472C34.4477 26.6585 34.5077 26.6554 34.5644 26.6382C34.6211 26.621 34.6727 26.5903 34.7148 26.5486L38.0428 23.2206C39.0647 22.1988 40.7521 22.2612 42.1457 22.6486C44.7821 23.3766 48.1492 22.3756 50.081 20.4438C51.3095 19.2157 51.9998 17.5499 52 15.8129C52.0002 14.0758 51.3104 12.4098 50.0823 11.1814C49.4742 10.5731 48.7522 10.0906 47.9576 9.76134C47.163 9.43209 46.3114 9.26256 45.4513 9.26244C43.7142 9.26219 42.0482 9.952 40.8197 11.1801C42.0478 9.95165 42.7376 8.28566 42.7374 6.54861C42.7371 4.81157 42.0469 3.14577 40.8184 1.91766C39.5899 0.68956 37.9239 -0.000243718 36.1868 6.45942e-08C34.4497 0.000243847 32.7839 0.690515 31.5558 1.91896ZM1.918 40.8199C3.14656 42.0472 4.81209 42.7366 6.54866 42.7366C8.28522 42.7366 9.95075 42.0472 11.1793 40.8199C9.95119 42.0483 9.26137 43.7143 9.26161 45.4514C9.26186 47.1884 9.95214 48.8542 11.1806 50.0823C12.4091 51.3104 14.0751 52.0002 15.8122 52C17.5493 51.9998 19.2151 51.3095 20.4432 50.081C22.3751 48.1492 23.3761 44.7823 22.6481 42.1459C22.2607 40.7523 22.1982 39.0649 23.2201 38.0405L26.5481 34.7125C26.5892 34.6704 26.6195 34.619 26.6363 34.5626C26.6532 34.5062 26.6561 34.4465 26.6449 34.3888C26.6336 34.331 26.6085 34.2768 26.5718 34.2309C26.535 34.1849 26.4876 34.1486 26.4337 34.1249C22.5878 32.4761 19.5233 29.4116 17.8744 25.5658C17.8509 25.5114 17.8145 25.4636 17.7683 25.4265C17.7222 25.3894 17.6677 25.3641 17.6095 25.3528C17.5513 25.3415 17.4913 25.3446 17.4346 25.3618C17.3779 25.379 17.3263 25.4097 17.2842 25.4514L13.9561 28.7794C12.9343 29.8012 11.2469 29.7388 9.8533 29.3514C7.21686 28.6234 3.84982 29.6244 1.918 31.5562C0.689894 32.7848 0 34.4509 0 36.188C0 37.9252 0.689894 39.5913 1.918 40.8199ZM16.2494 7.80012C16.2494 8.31729 16.4548 8.81328 16.8205 9.17897C17.1862 9.54467 17.6822 9.75011 18.1994 9.75011C18.7166 9.75011 19.2126 9.54467 19.5783 9.17897C19.944 8.81328 20.1494 8.31729 20.1494 7.80012V5.20014C20.1494 4.68297 19.944 4.18699 19.5783 3.82129C19.2126 3.4556 18.7166 3.25015 18.1994 3.25015C17.6822 3.25015 17.1862 3.4556 16.8205 3.82129C16.4548 4.18699 16.2494 4.68297 16.2494 5.20014V7.80012ZM12.6717 9.91391C12.8579 10.0939 13.0063 10.3091 13.1084 10.5471C13.2105 10.785 13.2642 11.0409 13.2663 11.2998C13.2684 11.5588 13.219 11.8155 13.1208 12.0551C13.0227 12.2947 12.8778 12.5124 12.6946 12.6954C12.5114 12.8784 12.2936 13.0231 12.0539 13.121C11.8142 13.2189 11.5574 13.2681 11.2985 13.2658C11.0396 13.2634 10.7837 13.2095 10.5459 13.1072C10.308 13.0049 10.0929 12.8562 9.9131 12.6699L6.23665 8.99612C6.04506 8.8176 5.89139 8.60231 5.78481 8.36312C5.67823 8.12392 5.62093 7.86571 5.61631 7.60388C5.61169 7.34206 5.65985 7.08198 5.75793 6.83918C5.856 6.59637 6.00198 6.3758 6.18715 6.19063C6.37232 6.00547 6.59289 5.85949 6.8357 5.76142C7.07852 5.66334 7.3386 5.61518 7.60043 5.6198C7.86226 5.62442 8.12048 5.68173 8.35968 5.78831C8.59888 5.89489 8.81416 6.04855 8.99269 6.24013L12.6717 9.91391ZM42.0885 39.3275C41.7227 38.9617 41.2265 38.7562 40.7092 38.7562C40.1918 38.7562 39.6957 38.9617 39.3299 39.3275C38.964 39.6933 38.7585 40.1895 38.7585 40.7068C38.7585 41.2241 38.964 41.7203 39.3299 42.0861L43.0063 45.7625C43.376 46.1069 43.8649 46.2944 44.3701 46.2855C44.8753 46.2766 45.3573 46.072 45.7146 45.7147C46.0718 45.3574 46.2765 44.8754 46.2854 44.3702C46.2943 43.8651 46.1068 43.3761 45.7623 43.0065L42.0885 39.3275ZM33.7996 42.2499C34.3168 42.2499 34.8128 42.4553 35.1785 42.821C35.5442 43.1867 35.7496 43.6827 35.7496 44.1999V46.7999C35.7496 47.317 35.5442 47.813 35.1785 48.1787C34.8128 48.5444 34.3168 48.7498 33.7996 48.7498C33.2824 48.7498 32.7864 48.5444 32.4207 48.1787C32.055 47.813 31.8496 47.317 31.8496 46.7999V44.1999C31.8496 43.6827 32.055 43.1867 32.4207 42.821C32.7864 42.4553 33.2824 42.2499 33.7996 42.2499ZM7.79927 20.15C8.31645 20.15 8.81245 19.9446 9.17815 19.5789C9.54385 19.2132 9.7493 18.7172 9.7493 18.2001C9.7493 17.6829 9.54385 17.1869 9.17815 16.8212C8.81245 16.4555 8.31645 16.2501 7.79927 16.2501H5.19924C4.68206 16.2501 4.18606 16.4555 3.82036 16.8212C3.45466 17.1869 3.24921 17.6829 3.24921 18.2001C3.24921 18.7172 3.45466 19.2132 3.82036 19.5789C4.18606 19.9446 4.68206 20.15 5.19924 20.15H7.79927ZM42.2497 33.7999C42.2497 33.2828 42.4551 32.7868 42.8208 32.4211C43.1865 32.0554 43.6825 31.85 44.1997 31.85H46.7998C47.3169 31.85 47.8129 32.0554 48.1786 32.4211C48.5443 32.7868 48.7498 33.2828 48.7498 33.7999C48.7498 34.3171 48.5443 34.8131 48.1786 35.1788C47.8129 35.5445 47.3169 35.7499 46.7998 35.7499H44.1997C43.6825 35.7499 43.1865 35.5445 42.8208 35.1788C42.4551 34.8131 42.2497 34.3171 42.2497 33.7999Z" fill="#001B62"/>
</svg>
