<svg width="268" height="268" viewBox="0 0 268 268" fill="none" xmlns="http://www.w3.org/2000/svg">
<ellipse cx="131.397" cy="135.924" rx="63" ry="66.15" transform="rotate(43.7211 131.397 135.924)" fill="#D5DBF2"/>
<path d="M177.125 77.7653C169.774 80.4503 163.107 87.9876 161.814 95.7153C161.138 99.8033 159.262 104.262 155.37 105.689L142.706 110.314C142.548 110.374 142.407 110.471 142.295 110.597C142.184 110.724 142.104 110.875 142.063 111.039C142.023 111.202 142.023 111.373 142.063 111.537C142.103 111.701 142.182 111.852 142.293 111.979C150.292 120.907 154.552 132.569 154.19 144.55C154.186 144.72 154.223 144.888 154.298 145.04C154.373 145.192 154.484 145.324 154.621 145.423C154.759 145.523 154.918 145.587 155.086 145.611C155.254 145.635 155.426 145.617 155.585 145.56L168.25 140.934C172.138 139.514 176.446 141.714 179.599 144.404C185.568 149.479 195.523 150.945 202.875 148.26C207.549 146.554 211.354 143.06 213.452 138.548C215.551 134.036 215.771 128.875 214.064 124.201C213.219 121.887 211.927 119.761 210.26 117.946C208.594 116.131 206.586 114.662 204.352 113.623C199.84 111.525 194.679 111.304 190.005 113.011C194.679 111.303 198.483 107.809 200.58 103.296C202.677 98.7834 202.896 93.6225 201.188 88.9487C199.48 84.2748 195.985 80.4708 191.473 78.3735C186.96 76.2762 181.799 76.0574 177.125 77.7653ZM53.1544 143.022C54.8635 147.694 58.3575 151.497 62.8685 153.594C67.3795 155.691 72.5386 155.912 77.2122 154.208C72.5383 155.915 68.7343 159.41 66.637 163.923C64.5398 168.435 64.3211 173.596 66.029 178.27C67.7369 182.944 71.2316 186.748 75.7443 188.845C80.2569 190.942 85.4179 191.161 90.0918 189.453C97.4431 186.768 104.11 179.231 105.403 171.503C106.079 167.415 107.955 162.957 111.847 161.53L124.511 156.904C124.669 156.844 124.81 156.747 124.922 156.621C125.033 156.495 125.113 156.344 125.154 156.18C125.194 156.016 125.194 155.845 125.154 155.681C125.114 155.518 125.035 155.366 124.924 155.24C116.925 146.312 112.665 134.65 113.027 122.668C113.031 122.499 112.994 122.331 112.919 122.178C112.844 122.026 112.733 121.895 112.596 121.795C112.458 121.696 112.299 121.631 112.131 121.607C111.963 121.584 111.791 121.601 111.632 121.658L98.9672 126.284C95.0788 127.704 90.7708 125.504 87.6185 122.815C81.6492 117.74 71.6938 116.273 64.3425 118.958C59.6684 120.667 55.8642 124.161 53.7661 128.674C51.6681 133.187 51.448 138.348 53.1544 143.022ZM130.262 74.5566C129.637 75.9 129.572 77.4365 130.08 78.8281C130.588 80.2198 131.629 81.3525 132.972 81.9771C134.315 82.6017 135.852 82.667 137.244 82.1588C138.635 81.6505 139.768 80.6102 140.393 79.2668L143.533 72.5129C144.157 71.1695 144.223 69.6329 143.714 68.2413C143.206 66.8497 142.166 65.717 140.822 65.0924C139.479 64.4678 137.942 64.4024 136.551 64.9107C135.159 65.419 134.026 66.4592 133.402 67.8027L130.262 74.5566ZM118.415 75.7266C118.681 76.419 118.807 77.1574 118.785 77.8988C118.763 78.6402 118.593 79.3698 118.286 80.0449C117.979 80.7201 117.54 81.3273 116.996 81.8311C116.451 82.335 115.812 82.7254 115.115 82.9795C114.418 83.2336 113.678 83.3465 112.937 83.3114C112.196 83.2763 111.47 83.094 110.8 82.7751C110.13 82.4563 109.531 82.0072 109.036 81.4542C108.542 80.9011 108.163 80.2552 107.921 79.554L102.807 65.5707C102.525 64.8755 102.386 64.1307 102.398 63.3806C102.41 62.6306 102.573 61.8906 102.877 61.2049C103.182 60.5192 103.621 59.9018 104.169 59.3895C104.717 58.8772 105.362 58.4805 106.067 58.2232C106.772 57.9658 107.521 57.853 108.27 57.8915C109.019 57.93 109.753 58.119 110.428 58.4472C111.102 58.7754 111.704 59.2361 112.196 59.8019C112.689 60.3676 113.063 61.0268 113.295 61.7401L118.415 75.7266ZM159.306 187.661C158.798 186.269 157.757 185.136 156.413 184.511C155.069 183.886 153.532 183.821 152.14 184.329C150.748 184.838 149.615 185.878 148.99 187.222C148.366 188.566 148.3 190.103 148.809 191.495L153.919 205.485C154.463 206.826 155.507 207.904 156.83 208.491C158.153 209.078 159.652 209.128 161.012 208.632C162.371 208.135 163.485 207.13 164.118 205.829C164.751 204.527 164.855 203.031 164.406 201.655L159.306 187.661ZM134.245 185.241C135.589 185.866 136.629 186.999 137.137 188.39C137.645 189.782 137.58 191.319 136.955 192.662L133.815 199.416C133.191 200.759 132.058 201.8 130.666 202.308C129.275 202.816 127.738 202.751 126.395 202.126C125.051 201.502 124.011 200.369 123.503 198.977C122.994 197.586 123.06 196.049 123.684 194.706L126.824 187.952C127.449 186.608 128.582 185.568 129.973 185.06C131.365 184.551 132.902 184.617 134.245 185.241ZM93.3956 96.432C94.7391 97.0566 96.2756 97.122 97.6672 96.6137C99.0589 96.1054 100.192 95.0652 100.816 93.7217C101.441 92.3783 101.506 90.8418 100.998 89.4501C100.489 88.0585 99.4492 86.9258 98.1057 86.3012L91.3517 83.1611C90.0083 82.5364 88.4717 82.4711 87.0801 82.9794C85.6885 83.4877 84.5557 84.5279 83.9311 85.8714C83.3065 87.2148 83.2412 88.7513 83.7495 90.1429C84.2578 91.5346 85.2981 92.6673 86.6416 93.2919L93.3956 96.432ZM166.401 173.497C167.025 172.153 168.158 171.113 169.55 170.605C170.941 170.097 172.478 170.162 173.821 170.786L180.575 173.927C181.919 174.551 182.959 175.684 183.468 177.076C183.976 178.467 183.91 180.004 183.286 181.347C182.661 182.691 181.529 183.731 180.137 184.239C178.745 184.747 177.209 184.682 175.865 184.057L169.111 180.917C167.768 180.293 166.728 179.16 166.219 177.768C165.711 176.377 165.776 174.84 166.401 173.497Z" fill="#001B62"/>
<path d="M142.295 110.597C142.407 110.471 142.548 110.374 142.706 110.314L111.632 121.658C111.791 121.601 111.963 121.584 112.131 121.607C112.299 121.631 112.458 121.696 112.596 121.795C112.733 121.895 112.844 122.026 112.919 122.178C112.994 122.331 113.031 122.499 113.027 122.668C112.665 134.65 116.925 146.312 124.924 155.24C125.035 155.366 125.114 155.518 125.154 155.681C125.194 155.845 125.194 156.016 125.154 156.18C125.113 156.344 125.033 156.495 124.922 156.621C124.81 156.747 124.669 156.844 124.511 156.904L155.585 145.56C155.426 145.617 155.254 145.635 155.086 145.611C154.918 145.587 154.759 145.523 154.621 145.423C154.484 145.324 154.373 145.192 154.298 145.04C154.223 144.888 154.186 144.72 154.19 144.55C154.552 132.569 150.292 120.907 142.293 111.979C142.182 111.852 142.103 111.701 142.063 111.537C142.023 111.373 142.023 111.202 142.063 111.039C142.104 110.875 142.184 110.724 142.295 110.597Z" fill="#DCAB7A"/>
<path fill-rule="evenodd" clip-rule="evenodd" d="M128.781 128.348C128.619 127.873 128.652 127.353 128.873 126.902C129.094 126.451 129.486 126.106 129.961 125.944L131.753 125.332C132.229 125.17 132.749 125.203 133.2 125.424C133.651 125.645 133.995 126.037 134.158 126.512L135.382 130.096L138.966 128.872C139.442 128.71 139.962 128.743 140.413 128.964C140.864 129.185 141.208 129.577 141.371 130.052L141.983 131.844C142.145 132.32 142.112 132.84 141.891 133.291C141.67 133.742 141.278 134.086 140.803 134.249L137.219 135.473L138.443 139.057C138.605 139.533 138.572 140.053 138.351 140.504C138.13 140.955 137.738 141.299 137.263 141.462L135.471 142.074C134.995 142.236 134.475 142.203 134.024 141.982C133.573 141.761 133.229 141.369 133.066 140.894L131.842 137.31L128.258 138.534C127.782 138.696 127.262 138.663 126.811 138.442C126.36 138.221 126.016 137.829 125.853 137.354L125.241 135.562C125.079 135.086 125.112 134.566 125.333 134.115C125.554 133.664 125.946 133.32 126.421 133.157L130.005 131.933L128.781 128.348Z" fill="#CD0808"/>
</svg>
