<svg width="186" height="186" viewBox="0 0 186 186" fill="none" xmlns="http://www.w3.org/2000/svg">
<circle cx="93" cy="93" r="89" fill="#F0F2FF" stroke="#001B62" stroke-width="8"/>
<path d="M92.9999 14.3079C49.5288 14.3079 14.3076 49.529 14.3076 93.0002C14.3076 136.471 49.5288 171.692 92.9999 171.692C136.471 171.692 171.692 136.471 171.692 93.0002C171.692 49.529 136.471 14.3079 92.9999 14.3079ZM92.9999 44.7694C108.421 44.7694 120.923 57.2713 120.923 72.6925C120.923 88.1136 108.421 100.616 92.9999 100.616C77.5788 100.616 65.0768 88.1136 65.0768 72.6925C65.0768 57.2713 77.5788 44.7694 92.9999 44.7694ZM92.9999 153.923C74.374 153.923 57.6836 145.483 46.5143 132.283C52.4797 121.05 64.1567 113.308 77.7692 113.308C78.5307 113.308 79.2922 113.435 80.022 113.657C84.147 114.99 88.4624 115.846 92.9999 115.846C97.5374 115.846 101.885 114.99 105.978 113.657C106.708 113.435 107.469 113.308 108.231 113.308C121.843 113.308 133.52 121.05 139.485 132.283C128.316 145.483 111.626 153.923 92.9999 153.923Z" fill="#001B62"/>
</svg>
