<svg width="18" height="18" viewBox="0 0 18 18" fill="none" xmlns="http://www.w3.org/2000/svg">
<path d="M18 5.40251C18.001 4.05655 17.499 2.75876 16.5926 1.76362C15.6861 0.76848 14.4405 0.147765 13.1001 0.0231859C11.7596 -0.101394 10.4209 0.279149 9.34652 1.0902C8.27213 1.90124 7.53953 3.08429 7.29235 4.40738C6.78027 6.06294 6.3177 6.9654 6.06391 7.38469L3.79873 9.64938C3.71803 9.73015 3.65915 9.83006 3.62758 9.93977C3.59602 10.0495 3.59281 10.1654 3.61826 10.2767C3.6437 10.388 3.69697 10.491 3.77307 10.5761C3.84918 10.6612 3.94563 10.7256 4.05341 10.7633L2.21661 12.6006C1.7431 12.6076 1.28387 12.7638 0.904325 13.047C0.524785 13.3301 0.244288 13.7258 0.102786 14.1776C-0.0387163 14.6295 -0.034009 15.1144 0.116238 15.5634C0.266484 16.0124 0.554609 16.4026 0.939574 16.6783C1.08537 16.7827 1.21766 16.915 1.32205 17.0607C1.59809 17.4459 1.98873 17.7341 2.43825 17.8842C2.88778 18.0343 3.37323 18.0386 3.82537 17.8966C4.27751 17.7545 4.67324 17.4734 4.95612 17.0932C5.23899 16.713 5.39457 16.2532 5.40065 15.7795L7.23655 13.9439C7.2737 14.0523 7.33784 14.1495 7.42292 14.2262C7.508 14.3029 7.61122 14.3568 7.72286 14.3826C7.8345 14.4084 7.95088 14.4054 8.06104 14.3739C8.17119 14.3423 8.27149 14.2832 8.35249 14.2022L10.624 11.9312C11.0497 11.6765 11.9541 11.2159 13.6073 10.7075C14.8428 10.473 15.9577 9.81474 16.7597 8.84626C17.5616 7.87777 18.0003 6.65981 18 5.40251ZM5.92532 10.8011H7.20055V12.0715L4.3963 14.8743C4.16982 15.1089 4.04556 15.4237 4.05071 15.7498C4.05066 15.9403 3.99013 16.1259 3.87783 16.2798C3.76553 16.4337 3.60727 16.548 3.42583 16.6062C3.2444 16.6645 3.04916 16.6636 2.86824 16.6038C2.68731 16.544 2.53005 16.4283 2.4191 16.2734C2.22704 16.0072 1.99336 15.7735 1.72703 15.5815C1.57211 15.4706 1.45641 15.3133 1.39659 15.1325C1.33677 14.9516 1.33592 14.7564 1.39416 14.575C1.4524 14.3936 1.56673 14.2354 1.72068 14.1231C1.87463 14.0108 2.06025 13.9503 2.25081 13.9502C2.51989 13.9502 2.85648 13.8693 3.11926 13.6065L5.92532 10.8011Z" fill="white"/>
</svg>
