<svg width="22" height="23" viewBox="0 0 22 23" fill="none" xmlns="http://www.w3.org/2000/svg">
<path d="M12.74 0.509087C13.6005 -0.507482 15.2632 0.100363 15.2632 1.43229V21.5684C15.2632 22.8993 13.6014 23.5072 12.74 22.4916L8.84216 17.8908C8.66313 17.6795 8.44016 17.5097 8.18876 17.3932C7.93737 17.2767 7.66358 17.2164 7.38644 17.2163H3.8158C2.80379 17.2163 1.83322 16.8148 1.11762 16.1001C0.402021 15.3854 0 14.416 0 13.4053V9.59438C0 8.58365 0.402021 7.61432 1.11762 6.89963C1.83322 6.18494 2.80379 5.78343 3.8158 5.78343H7.38644C7.66358 5.78334 7.93737 5.72295 8.18876 5.60646C8.44016 5.48997 8.66313 5.32018 8.84216 5.10889L12.74 0.509087ZM19.8651 5.24418C19.7947 5.1397 19.7043 5.05019 19.599 4.98083C19.4938 4.91146 19.3758 4.86362 19.252 4.84007C19.1281 4.81651 19.0008 4.81772 18.8774 4.84361C18.754 4.86949 18.637 4.91956 18.5331 4.9909C18.4292 5.06223 18.3405 5.15344 18.2721 5.25923C18.2037 5.36502 18.157 5.4833 18.1347 5.60723C18.1124 5.73117 18.1148 5.85829 18.142 5.98126C18.1692 6.10422 18.2205 6.22059 18.2929 6.32363C19.5188 8.10525 20.0931 9.82494 20.0931 11.4998C20.0931 13.1748 19.5188 14.8954 18.2929 16.677C18.1527 16.8853 18.1003 17.1404 18.1473 17.387C18.1944 17.6336 18.3369 17.8517 18.544 17.9939C18.7511 18.1361 19.0061 18.191 19.2534 18.1465C19.5008 18.102 19.7206 17.9619 19.8651 17.7565C21.2626 15.7271 22 13.6359 22 11.4998C22 9.36381 21.2626 7.27351 19.8651 5.24418Z" fill="#001B62"/>
</svg>
