<svg width="24" height="24" viewBox="0 0 24 24" fill="none" xmlns="http://www.w3.org/2000/svg">
<path d="M13.74 1.50909C14.6005 0.492518 16.2632 1.10036 16.2632 2.43229V22.5684C16.2632 23.8993 14.6014 24.5072 13.74 23.4916L9.84216 18.8908C9.66313 18.6795 9.44016 18.5097 9.18876 18.3932C8.93737 18.2767 8.66358 18.2164 8.38644 18.2163H4.8158C3.80379 18.2163 2.83322 17.8148 2.11762 17.1001C1.40202 16.3854 1 15.416 1 14.4053V10.5944C1 9.58365 1.40202 8.61432 2.11762 7.89963C2.83322 7.18494 3.80379 6.78343 4.8158 6.78343H8.38644C8.66358 6.78334 8.93737 6.72295 9.18876 6.60646C9.44016 6.48997 9.66313 6.32018 9.84216 6.10889L13.74 1.50909ZM20.8651 6.24418C20.7947 6.1397 20.7043 6.05019 20.599 5.98083C20.4938 5.91146 20.3758 5.86362 20.252 5.84007C20.1281 5.81651 20.0008 5.81772 19.8774 5.84361C19.754 5.86949 19.637 5.91956 19.5331 5.9909C19.4292 6.06223 19.3405 6.15344 19.2721 6.25923C19.2037 6.36502 19.157 6.4833 19.1347 6.60723C19.1124 6.73117 19.1148 6.85829 19.142 6.98126C19.1692 7.10422 19.2205 7.22059 19.2929 7.32363C20.5188 9.10525 21.0931 10.8249 21.0931 12.4998C21.0931 14.1748 20.5188 15.8954 19.2929 17.677C19.1527 17.8853 19.1003 18.1404 19.1473 18.387C19.1944 18.6336 19.3369 18.8517 19.544 18.9939C19.7511 19.1361 20.0061 19.191 20.2534 19.1465C20.5008 19.102 20.7206 18.9619 20.8651 18.7565C22.2626 16.7271 23 14.6359 23 12.4998C23 10.3638 22.2626 8.27351 20.8651 6.24418Z" fill="#7887B0"/>
<path d="M2 2L22 22" stroke="#F0F2FF" stroke-width="3" stroke-linecap="round"/>
<path d="M2 2L22 22" stroke="#7887B0" stroke-width="2" stroke-linecap="round"/>
</svg>
