<svg width="18" height="18" viewBox="0 0 18 18" fill="none" xmlns="http://www.w3.org/2000/svg">
<path d="M12.4099 8.71888C12.4099 9.69833 12.0209 10.6377 11.3283 11.3302C10.6357 12.0228 9.69638 12.4119 8.71693 12.4119C7.73748 12.4119 6.79815 12.0228 6.10558 11.3302C5.41301 10.6377 5.02393 9.69833 5.02393 8.71888C5.02393 7.73944 5.41301 6.80011 6.10558 6.10753C6.79815 5.41496 7.73748 5.02588 8.71693 5.02588C9.69638 5.02588 10.6357 5.41496 11.3283 6.10753C12.0209 6.80011 12.4099 7.73944 12.4099 8.71888Z" fill="white"/>
<path fill-rule="evenodd" clip-rule="evenodd" d="M5.96311 0.225211C5.83474 0.135212 5.68557 0.0793856 5.52965 0.0629933C5.37373 0.0466009 5.21621 0.070183 5.07192 0.131517C4.92764 0.19285 4.80136 0.289915 4.70497 0.413562C4.60858 0.537208 4.54527 0.683363 4.52099 0.83825L4.11292 3.44182C4.08326 3.63224 3.99476 3.8086 3.85982 3.94618C3.72488 4.08377 3.55027 4.17568 3.36047 4.20904L0.764285 4.6642C0.609797 4.69121 0.464733 4.75712 0.342778 4.85572C0.220822 4.95433 0.125994 5.08237 0.0672396 5.22778C0.00848475 5.37319 -0.0122605 5.53117 0.00696033 5.68682C0.0261812 5.84247 0.0847346 5.99065 0.177098 6.1174L1.73093 8.24642C1.84444 8.40217 1.90637 8.58954 1.90803 8.78227C1.90968 8.97499 1.85098 9.1634 1.74016 9.32108L0.22603 11.4787C0.136031 11.6071 0.0802042 11.7563 0.0638119 11.9122C0.0474195 12.0681 0.0710014 12.2256 0.132335 12.3699C0.193669 12.5142 0.290734 12.6405 0.41438 12.7369C0.538027 12.8333 0.684182 12.8966 0.839069 12.9208L3.44264 13.3289C3.63289 13.3588 3.80904 13.4473 3.94645 13.5823C4.08386 13.7172 4.17563 13.8917 4.20894 14.0814L4.6641 16.6775C4.6911 16.832 4.75701 16.9771 4.85562 17.0991C4.95422 17.221 5.08227 17.3158 5.22768 17.3746C5.37308 17.4333 5.53106 17.4541 5.68671 17.4349C5.84236 17.4157 5.99055 17.3571 6.1173 17.2647L8.24724 15.7109C8.40299 15.5974 8.59036 15.5355 8.78309 15.5338C8.97581 15.5322 9.16422 15.5908 9.3219 15.7017L11.4786 17.2158C11.607 17.306 11.7563 17.362 11.9123 17.3785C12.0683 17.3951 12.226 17.3715 12.3704 17.3102C12.5149 17.2488 12.6413 17.1517 12.7377 17.0279C12.8342 16.9041 12.8975 16.7578 12.9217 16.6028L13.3279 13.9992C13.3578 13.8087 13.4467 13.6323 13.582 13.4949C13.7173 13.3575 13.8922 13.2658 14.0822 13.2329L16.6784 12.7777C16.8328 12.7506 16.9777 12.6846 17.0996 12.5859C17.2214 12.4873 17.3161 12.3592 17.3748 12.2138C17.4334 12.0684 17.4541 11.9105 17.4348 11.7549C17.4156 11.5993 17.357 11.4512 17.2646 11.3245L15.7117 9.1946C15.5981 9.03894 15.536 8.85162 15.5342 8.65889C15.5323 8.46617 15.5909 8.27771 15.7016 8.11993L17.2157 5.96322C17.3059 5.8349 17.3619 5.68571 17.3785 5.52973C17.3951 5.37375 17.3716 5.21612 17.3103 5.07172C17.2491 4.92732 17.1521 4.80091 17.0284 4.70441C16.9047 4.60791 16.7585 4.5445 16.6036 4.52018L13.9991 4.11302C13.8087 4.08313 13.6325 3.99441 13.495 3.85931C13.3576 3.72421 13.2659 3.54949 13.2328 3.35965L12.7776 0.763467C12.7505 0.609057 12.6845 0.4641 12.5858 0.342258C12.4872 0.220417 12.3591 0.125706 12.2137 0.0670509C12.0683 0.00839627 11.9104 -0.0122694 11.7548 0.00700215C11.5992 0.0262736 11.4511 0.0848473 11.3244 0.177202L9.19541 1.73011C9.03966 1.84363 8.85229 1.90555 8.65956 1.90721C8.46684 1.90886 8.27843 1.85017 8.12075 1.73934L5.96311 0.225211ZM13.3334 8.71912C13.3334 9.94343 12.8471 11.1176 11.9814 11.9833C11.1156 12.849 9.94148 13.3354 8.71717 13.3354C7.49286 13.3354 6.3187 12.849 5.45299 11.9833C4.58727 11.1176 4.10092 9.94343 4.10092 8.71912C4.10092 7.49481 4.58727 6.32065 5.45299 5.45494C6.3187 4.58922 7.49286 4.10287 8.71717 4.10287C9.94148 4.10287 11.1156 4.58922 11.9814 5.45494C12.8471 6.32065 13.3334 7.49481 13.3334 8.71912Z" fill="white"/>
</svg>
